<?xml version="1.0" standalone="no"?>
<!DOCTYPE svg PUBLIC "-//W3C//DTD SVG 1.1//EN" "http://www.w3.org/Graphics/SVG/1.1/DTD/svg11.dtd" >
<svg xmlns="http://www.w3.org/2000/svg" xmlns:xlink="http://www.w3.org/1999/xlink" version="1.1">
<metadata>
Created by FontForge 20190801 at Wed Feb 16 15:19:36 2011
 By Jimmy Wärting
Copyright 2009, 2010, 2011 by Daniel Johnson.  Released under the terms of the Open Font License.
</metadata>
<defs>
<font id="JuraBook" horiz-adv-x="598" >
  <font-face 
    font-family="Jura"
    font-weight="400"
    font-stretch="normal"
    units-per-em="1024"
    panose-1="2 0 5 3 0 0 0 0 0 0"
    ascent="819"
    descent="-205"
    x-height="461"
    cap-height="636"
    bbox="-534 -205 896 838"
    underline-thickness="51"
    underline-position="-152"
    stemh="52"
    stemv="52"
    unicode-range="U+0020-FFFD"
  />
<missing-glyph horiz-adv-x="538" 
d="M156 546v-416c0 -42 12 -59 54 -59h118c42 0 54 17 54 59v416c0 42 -12 60 -54 60h-118c-42 0 -54 -18 -54 -60zM85 0v678h368v-678h-368z" />
    <glyph glyph-name=".notdef" horiz-adv-x="538" 
d="M156 546v-416c0 -42 12 -59 54 -59h118c42 0 54 17 54 59v416c0 42 -12 60 -54 60h-118c-42 0 -54 -18 -54 -60zM85 0v678h368v-678h-368z" />
    <glyph glyph-name="space" unicode=" " horiz-adv-x="260" 
 />
    <glyph glyph-name="exclam" unicode="!" horiz-adv-x="244" 
d="M122 -12c-19 0 -51 16 -51 41c0 24 32 41 51 41c20 0 52 -17 52 -41c0 -25 -31 -41 -52 -41zM122 649c10 0 26 -4 26 -33v-419c0 -24 -11 -33 -27 -33c-20 0 -25 17 -25 33v419c0 29 16 33 26 33z" />
    <glyph glyph-name="quotedbl" unicode="&#x22;" horiz-adv-x="295" 
d="M197 433c-20 0 -25 17 -25 33v149c0 29 16 33 26 33s26 -4 26 -33v-149c0 -24 -11 -33 -27 -33zM96 433c-20 0 -25 17 -25 33v149c0 29 16 33 26 33c20 0 25 -17 25 -33v-149c0 -29 -16 -33 -26 -33z" />
    <glyph glyph-name="numbersign" unicode="#" horiz-adv-x="603" 
d="M343 605c0 -3 -1 -9 -3 -17l-57 -152h124l62 170c7 18 16 24 27 24c16 0 26 -13 26 -26c0 -5 -1 -10 -3 -16l-56 -152h63c29 0 33 -16 33 -26s-4 -26 -33 -26h-82l-48 -132h99c24 0 33 -11 33 -27c0 -20 -17 -25 -33 -25h-118l-62 -170c-4 -12 -11 -24 -27 -24
s-26 10 -26 26c0 5 1 10 3 16l57 152h-125l-61 -170c-4 -12 -11 -24 -27 -24c-15 0 -25 10 -25 25c0 3 1 9 3 17l56 152h-66c-29 0 -33 16 -33 26s4 26 33 26h85l48 132h-103c-16 0 -32 5 -32 27c0 10 5 25 32 25h122l62 170c6 14 14 24 26 24c16 0 26 -10 26 -25zM265 384
l-48 -132h123l48 132h-123z" />
    <glyph glyph-name="dollar" unicode="$" horiz-adv-x="587" 
d="M161 89c-90 0 -100 57 -100 111c0 18 5 34 26 34c18 0 26 -10 26 -32c0 -48 15 -61 55 -61h104v160h-82c-98 0 -129 59 -129 131c0 74 31 121 129 121h82v57c0 29 15 33 26 33s26 -4 26 -32v-57h101c90 0 100 -57 100 -111c0 -18 -5 -34 -26 -34c-10 0 -26 4 -26 32
c0 48 -15 60 -55 60h-94v-148h75c102 0 128 -70 128 -137c0 -77 -33 -126 -128 -126h-75v-65c0 -16 -4 -32 -27 -32c-10 0 -25 5 -25 31v65h-111zM416 301h-92v-160h92c43 0 59 29 59 73c0 51 -24 87 -59 87zM172 353h100v148h-100c-35 0 -59 -15 -59 -67
c0 -54 26 -81 59 -81z" />
    <glyph glyph-name="percent" unicode="%" horiz-adv-x="559" 
d="M367 183c0 -16 14 -30 30 -30c17 0 30 14 30 30c0 18 -14 30 -30 30s-30 -13 -30 -30zM312 183c0 45 39 82 85 82c45 0 82 -37 82 -82s-37 -82 -82 -82c-46 0 -85 37 -85 82zM134 466c0 -16 14 -30 30 -30c13 0 30 12 30 30s-17 30 -30 30c-16 0 -30 -14 -30 -30zM81 466
c0 45 37 82 83 82s84 -37 84 -82s-38 -82 -84 -82s-83 37 -83 82zM466 528c10 0 25 -10 25 -25c0 -5 -2 -13 -12 -24l-360 -346c-12 -11 -20 -12 -25 -12c-10 0 -25 10 -25 25c0 5 1 13 12 24l361 346c11 10 19 12 24 12z" />
    <glyph glyph-name="ampersand" unicode="&#x26;" horiz-adv-x="508" 
d="M386 528c0 -13 -11 -25 -26 -25c-36 0 -43 97 -118 97c-57 0 -124 -44 -124 -124c0 -20 10 -47 38 -79l236 -272c18 27 29 62 29 102c0 20 5 36 27 36c18 0 24 -13 24 -36c0 -57 -18 -105 -45 -143l46 -52c6 -7 7 -15 7 -21c0 -18 -14 -23 -22 -23c-9 0 -20 5 -30 16
l-35 41c-44 -39 -97 -59 -145 -59c-84 0 -209 50 -209 196c0 58 23 132 84 175l-11 13c-33 40 -48 74 -48 106c0 108 98 176 179 176c91 0 143 -109 143 -124zM359 84l-202 235c-49 -31 -66 -90 -66 -137c0 -111 91 -144 157 -144c35 0 77 16 111 46z" />
    <glyph glyph-name="quotesingle" unicode="'" horiz-adv-x="194" 
d="M96 433c-20 0 -25 17 -25 33v149c0 29 16 33 26 33c20 0 25 -17 25 -33v-149c0 -29 -16 -33 -26 -33z" />
    <glyph glyph-name="parenleft" unicode="(" horiz-adv-x="248" 
d="M125 503v-370c0 -125 6 -128 78 -128v-52c-84 0 -130 14 -130 180v370c0 166 46 180 130 180v-52c-72 0 -78 -3 -78 -128z" />
    <glyph glyph-name="parenright" unicode=")" horiz-adv-x="248" 
d="M123 503c0 125 -6 128 -78 128v52c84 0 130 -14 130 -180v-370c0 -166 -46 -180 -130 -180v52c72 0 78 3 78 128v370z" />
    <glyph glyph-name="asterisk" unicode="*" horiz-adv-x="397" 
d="M307 404c-8 0 -18 5 -20 6l-63 36v-72c0 -29 -16 -33 -26 -33s-26 4 -26 33v72l-63 -36c-2 -1 -12 -6 -20 -6c-14 0 -24 14 -24 25c0 10 7 19 18 26l63 37l-63 35c-11 7 -18 16 -18 26c0 5 5 25 24 25c8 0 18 -5 20 -6l63 -36v72c0 24 11 33 27 33c20 0 25 -17 25 -33
v-72l63 36c2 1 12 6 20 6c16 0 25 -15 25 -25c0 -11 -8 -19 -19 -26l-62 -35l62 -37c11 -7 19 -15 19 -26c0 -5 -6 -25 -25 -25z" />
    <glyph glyph-name="plus" unicode="+" horiz-adv-x="518" 
d="M259 -12c-21 0 -26 17 -26 32v184h-164c-23 0 -31 13 -31 27c0 10 5 26 31 26h164v183c0 24 11 33 27 33c20 0 25 -17 25 -33v-183h162c21 0 34 -10 34 -28c0 -15 -14 -25 -34 -25h-162v-184c0 -15 -5 -32 -26 -32z" />
    <glyph glyph-name="comma" unicode="," horiz-adv-x="210" 
d="M142 41c0 -5 -1 -12 -5 -19l-41 -83c-6 -14 -13 -24 -25 -24c-10 0 -22 5 -22 25c0 3 1 8 3 16l24 87c5 17 15 23 25 23c8 0 41 -5 41 -25z" />
    <glyph glyph-name="hyphen" unicode="-" horiz-adv-x="456" 
d="M73 231c0 10 5 26 31 26h245c21 0 34 -10 34 -28c0 -15 -14 -25 -34 -25h-245c-23 0 -31 13 -31 27z" />
    <glyph glyph-name="period" unicode="." horiz-adv-x="232" 
d="M116 70c19 0 51 -17 51 -41c0 -25 -32 -41 -51 -41c-20 0 -51 16 -51 41c0 24 31 41 51 41z" />
    <glyph glyph-name="slash" unicode="/" horiz-adv-x="359" 
d="M316 626c0 -5 -1 -11 -3 -18l-218 -598c-6 -17 -16 -23 -26 -23c-8 0 -26 5 -26 24c0 5 1 10 3 18l218 598c6 17 15 23 25 23c9 0 27 -5 27 -24z" />
    <glyph glyph-name="zero" unicode="0" horiz-adv-x="616" 
d="M128 497v-359c0 -43 48 -91 117 -91h126c69 0 117 48 117 91v359c0 43 -48 91 -117 91h-126c-69 0 -117 -48 -117 -91zM540 154c0 -95 -77 -159 -178 -159h-108c-101 0 -178 64 -178 159v328c0 95 77 159 178 159h108c101 0 178 -64 178 -159v-328z" />
    <glyph glyph-name="one" unicode="1" horiz-adv-x="253" 
d="M113 600l-25 -24c-10 -11 -21 -14 -29 -14c-19 0 -24 14 -24 22s4 17 14 26l61 62c9 8 17 13 28 13c8 0 27 -6 27 -28v-632c0 -16 -5 -32 -26 -32s-26 16 -26 32v575z" />
    <glyph glyph-name="two" unicode="2" horiz-adv-x="587" 
d="M526 460c0 -181 -405 -195 -411 -413h376c21 0 35 -5 35 -27c0 -15 -9 -25 -35 -25h-428v49c0 256 411 261 411 416c0 118 -50 129 -164 129h-141c-44 0 -54 -18 -54 -60c0 -21 -5 -35 -27 -35c-15 0 -25 10 -25 35c0 81 29 112 99 112h148c132 0 216 -26 216 -181z" />
    <glyph glyph-name="three" unicode="3" horiz-adv-x="596" 
d="M336 589h-84c-54 0 -138 -22 -138 -62c0 -22 -8 -33 -26 -33c-21 0 -26 17 -26 35c0 55 64 112 183 112h80c144 0 201 -48 201 -190c0 -48 -82 -109 -127 -125c45 -14 127 -91 127 -141c0 -142 -57 -190 -201 -190h-80c-119 0 -183 57 -183 111c0 24 8 36 26 36
s26 -11 26 -33c0 -41 84 -62 138 -62h84c113 0 139 50 139 119c0 76 -118 133 -186 133c-24 0 -39 5 -39 27c0 21 15 26 39 26c71 0 186 42 186 118c0 69 -26 119 -139 119z" />
    <glyph glyph-name="four" unicode="4" horiz-adv-x="535" 
d="M469 170h-56v-146c0 -15 -5 -31 -26 -31c-16 0 -27 11 -27 31v146h-327v63l314 408h66v-419h56c15 0 32 -5 32 -26s-17 -26 -32 -26zM85 222h275v357z" />
    <glyph glyph-name="five" unicode="5" horiz-adv-x="569" 
d="M88 121c18 0 89 -78 198 -78c116 0 180 69 180 186c0 121 -97 158 -154 158h-242l9 125c7 96 38 129 114 129h251c15 0 32 -5 32 -27c0 -10 -5 -25 -32 -25h-257c-32 0 -50 -13 -54 -60l-6 -90h176c104 0 215 -75 215 -210c0 -152 -99 -238 -232 -238
c-79 0 -222 56 -222 104c0 15 15 26 24 26z" />
    <glyph glyph-name="six" unicode="6" horiz-adv-x="556" 
d="M52 209c0 310 207 435 240 435c21 0 29 -12 29 -23s-8 -20 -22 -27c-61 -31 -136 -102 -172 -219c40 33 96 53 157 53c133 0 232 -90 232 -218c0 -129 -99 -219 -232 -219c-134 0 -232 90 -232 218zM104 210c0 -100 66 -167 180 -167s180 67 180 167
c0 98 -66 166 -180 166s-180 -68 -180 -166z" />
    <glyph glyph-name="seven" unicode="7" horiz-adv-x="498" 
d="M226 -10c-9 0 -29 5 -29 24c0 6 1 12 5 21l211 559h-276c-44 0 -56 -18 -56 -60c0 -23 -7 -35 -26 -35c-21 0 -26 17 -26 35c0 81 30 112 100 112h320c16 0 26 -7 26 -23c0 -6 -1 -12 -4 -21l-218 -586c-7 -19 -16 -26 -27 -26z" />
    <glyph glyph-name="eight" unicode="8" horiz-adv-x="610" 
d="M125 174c0 -117 49 -127 165 -127h31c115 0 164 10 164 127s-50 128 -164 128h-31c-115 0 -165 -11 -165 -128zM537 174c0 -154 -84 -179 -216 -179h-31c-131 0 -217 24 -217 179c0 80 24 127 64 152c-40 22 -64 66 -64 146c0 157 88 169 217 169h31
c128 0 216 -12 216 -169c0 -80 -23 -124 -63 -146c42 -27 63 -75 63 -152zM485 472c0 116 -46 117 -164 117h-31c-116 0 -165 0 -165 -117c0 -116 48 -118 165 -118h31c116 0 164 1 164 118z" />
    <glyph glyph-name="nine" unicode="9" horiz-adv-x="556" 
d="M42 471c0 157 172 170 248 170c115 0 216 -34 216 -171c0 -293 -183 -486 -358 -486c-23 0 -31 13 -31 27c0 15 10 26 31 26c87 0 246 85 293 297c-38 -24 -90 -32 -151 -32c-88 0 -248 12 -248 169zM290 589c-73 0 -196 -10 -196 -118s110 -117 196 -117
c125 0 164 46 164 116c0 71 -42 119 -164 119z" />
    <glyph glyph-name="colon" unicode=":" horiz-adv-x="248" 
d="M124 121c19 0 51 -17 51 -41c0 -25 -32 -41 -51 -41c-20 0 -51 16 -51 41c0 24 31 41 51 41zM124 474c19 0 51 -17 51 -41c0 -25 -32 -41 -51 -41c-20 0 -51 16 -51 41c0 24 31 41 51 41z" />
    <glyph glyph-name="semicolon" unicode=";" horiz-adv-x="251" 
d="M173 92c0 -5 -1 -12 -5 -19l-41 -83c-6 -14 -13 -24 -25 -24c-10 0 -22 5 -22 25c0 3 1 8 3 16l24 87c5 17 15 23 25 23c8 0 41 -5 41 -25zM124 474c19 0 51 -17 51 -41c0 -25 -32 -41 -51 -41c-20 0 -51 16 -51 41c0 24 31 41 51 41z" />
    <glyph glyph-name="less" unicode="&#x3c;" horiz-adv-x="530" 
d="M436 89c-6 0 -13 2 -21 7l-364 210c-15 9 -18 22 -18 27c0 10 6 18 18 25l364 210c7 5 14 6 20 6c14 0 25 -9 25 -23c0 -11 -11 -24 -19 -28l-331 -190l330 -192c12 -6 20 -14 20 -25c0 -5 -5 -27 -24 -27z" />
    <glyph glyph-name="equal" unicode="=" horiz-adv-x="468" 
d="M79 384c0 10 5 26 31 26h245c21 0 34 -10 34 -28c0 -15 -14 -25 -34 -25h-245c-23 0 -31 13 -31 27zM79 281c0 10 5 26 31 26h245c21 0 34 -10 34 -28c0 -15 -14 -25 -34 -25h-245c-23 0 -31 13 -31 27z" />
    <glyph glyph-name="greater" unicode="&#x3e;" horiz-adv-x="530" 
d="M94 89c-19 0 -24 22 -24 27c0 11 8 19 20 25l330 192l-331 190c-8 4 -19 17 -19 28c0 14 11 23 25 23c6 0 13 -1 20 -6l364 -210c12 -7 18 -15 18 -25c0 -5 -3 -18 -18 -27l-364 -210c-8 -5 -15 -7 -21 -7z" />
    <glyph glyph-name="question" unicode="?" horiz-adv-x="536" 
d="M251 70c19 0 51 -17 51 -41c0 -25 -32 -41 -51 -41c-20 0 -51 16 -51 41c0 24 31 41 51 41zM277 194c0 -29 -16 -33 -26 -33s-26 5 -26 33v144l157 43c33 9 60 48 60 103c0 44 -22 113 -97 113h-93c-113 0 -161 -9 -161 -126c0 -21 -10 -33 -26 -33c-17 0 -27 12 -27 33
c0 155 86 178 214 178h76c129 0 166 -88 166 -165c0 -89 -33 -134 -127 -160l-90 -25v-105z" />
    <glyph glyph-name="at" unicode="@" horiz-adv-x="593" 
d="M283 -5c-128 0 -213 91 -213 246v154c0 155 85 246 213 246h29c128 0 213 -91 213 -246c0 -126 -11 -210 -224 -210c-101 0 -126 47 -126 147c0 99 25 146 126 146c102 0 127 -47 127 -146c0 -33 -3 -60 -10 -82c41 11 55 34 55 145c0 120 -53 194 -161 194h-29
c-109 0 -161 -74 -161 -194v-154c0 -120 52 -194 161 -194h134c41 0 56 14 56 62c0 17 5 33 25 33c16 0 27 -10 27 -36c0 -53 -11 -111 -101 -111h-141zM301 237c68 0 75 23 75 95c0 71 -7 94 -75 94c-67 0 -74 -22 -74 -94c0 -73 7 -95 74 -95z" />
    <glyph glyph-name="A" unicode="A" horiz-adv-x="570" 
d="M316 636l227 -611c2 -6 3 -11 3 -16c0 -20 -19 -25 -26 -25c-12 0 -21 9 -27 23l-71 192h-274l-71 -192c-5 -12 -15 -23 -27 -23c-7 0 -26 5 -26 25c0 5 1 10 3 16l227 611h62zM284 560l-116 -309h234z" />
    <glyph glyph-name="B" unicode="B" horiz-adv-x="605" 
d="M136 332v-280h190c120 0 170 11 170 126v28c0 115 -50 126 -164 126h-196zM84 36v564c0 20 5 36 24 36h180c133 0 218 -24 218 -150c0 -56 -18 -89 -49 -112c58 -22 91 -67 91 -165v-29c0 -154 -84 -180 -222 -180h-218c-19 0 -24 16 -24 36zM288 384
c116 0 166 15 166 97c0 90 -54 98 -166 98h-152v-195h152z" />
    <glyph glyph-name="C" unicode="C" horiz-adv-x="592" 
d="M436 0h-141c-139 0 -223 26 -223 180v276c0 154 84 180 217 180h147c90 0 100 -58 100 -112c0 -18 -5 -35 -26 -35c-10 0 -26 4 -26 33c0 48 -15 62 -55 62h-140c-115 0 -165 -11 -165 -128v-276c0 -117 50 -128 171 -128h134c44 0 55 18 55 62c0 29 16 33 26 33
c18 0 26 -12 26 -36c0 -53 -10 -111 -100 -111z" />
    <glyph glyph-name="D" unicode="D" horiz-adv-x="620" 
d="M548 456v-276c0 -154 -84 -180 -222 -180h-218c-19 0 -24 16 -24 36v564c0 20 5 36 24 36h224c132 0 216 -26 216 -180zM496 180v276c0 117 -50 128 -164 128h-196v-532h190c120 0 170 11 170 128z" />
    <glyph glyph-name="E" unicode="E" 
d="M136 332v-280h378c23 0 34 -9 34 -28s-12 -24 -34 -24h-406c-19 0 -24 15 -24 36v564c0 20 5 36 24 36h406c23 0 34 -9 34 -28s-12 -24 -34 -24h-378v-200h259c20 0 36 -6 36 -28c0 -19 -14 -24 -36 -24h-259z" />
    <glyph glyph-name="F" unicode="F" horiz-adv-x="577" 
d="M136 27c0 -22 -7 -34 -26 -34c-21 0 -26 16 -26 35v572c0 20 5 36 24 36h406c23 0 34 -9 34 -28s-12 -24 -34 -24h-378v-200h259c20 0 36 -6 36 -28c0 -19 -14 -24 -36 -24h-259v-305z" />
    <glyph glyph-name="G" unicode="G" horiz-adv-x="606" 
d="M484 246h-131c-26 0 -36 10 -36 25c0 22 14 27 36 27h183v-189c0 -52 -10 -109 -100 -109h-147c-133 0 -217 25 -217 177v282c0 152 84 177 223 177h141c90 0 100 -58 100 -111c0 -24 -8 -36 -26 -36c-16 0 -26 9 -26 34c0 43 -11 61 -55 61h-134
c-121 0 -171 -11 -171 -126v-280c0 -115 50 -126 165 -126h140c44 0 55 17 55 60v134z" />
    <glyph glyph-name="H" unicode="H" horiz-adv-x="632" 
d="M136 27c0 -22 -7 -34 -26 -34c-21 0 -26 16 -26 34v581c0 20 5 35 24 35c22 0 28 -16 28 -35v-239h360v239c0 18 5 35 25 35c22 0 27 -16 27 -35v-581c0 -19 -5 -34 -25 -34c-11 0 -27 4 -27 34v290h-360v-290z" />
    <glyph glyph-name="I" unicode="I" horiz-adv-x="220" 
d="M136 25c0 -16 -5 -32 -27 -32c-10 0 -25 5 -25 32v585c0 29 16 33 26 33s26 -4 26 -33v-585z" />
    <glyph glyph-name="J" unicode="J" horiz-adv-x="550" 
d="M251 44c116 0 166 11 166 126v441c0 28 16 32 26 32s26 -4 26 -33v-441c0 -152 -84 -177 -218 -177s-219 25 -219 180c0 21 10 33 28 33c15 0 25 -13 25 -33c0 -117 48 -128 166 -128z" />
    <glyph glyph-name="K" unicode="K" horiz-adv-x="518" 
d="M514 18c0 -15 -16 -25 -26 -25s-18 6 -25 15l-274 314l-53 -64v-233c0 -15 -5 -32 -27 -32c-10 0 -25 5 -25 32v585c0 29 16 33 26 33s26 -4 26 -33v-280l261 298c7 10 15 15 25 15s25 -10 25 -24c0 -8 -4 -16 -10 -24l-213 -239l279 -315c7 -8 11 -15 11 -23z" />
    <glyph glyph-name="L" unicode="L" horiz-adv-x="516" 
d="M108 0c-19 0 -24 15 -24 35v576c0 28 16 32 26 32s26 -4 26 -32v-559h323c24 0 33 -11 33 -27c0 -20 -17 -25 -33 -25h-351z" />
    <glyph glyph-name="M" unicode="M" horiz-adv-x="653" 
d="M326 279c-3 0 -11 0 -17 8l-173 258v-517c0 -23 -7 -35 -26 -35c-21 0 -26 16 -26 34v581c0 20 5 35 24 35c12 0 21 -5 30 -19l188 -278l189 278c9 13 17 19 29 19c20 0 25 -15 25 -35v-581c0 -22 -8 -34 -27 -34c-20 0 -25 15 -25 35v517l-173 -258c-4 -5 -11 -8 -18 -8
z" />
    <glyph glyph-name="N" unicode="N" horiz-adv-x="632" 
d="M523 -7c-8 0 -16 2 -20 7l-367 543v-517c0 -22 -7 -33 -26 -33c-21 0 -26 16 -26 34v581c0 20 5 35 24 35c12 0 21 -5 30 -19l358 -528v511c0 19 5 36 25 36c22 0 27 -16 27 -35v-581c0 -19 -5 -34 -25 -34z" />
    <glyph glyph-name="O" unicode="O" horiz-adv-x="594" 
d="M297 -9c-133 0 -232 86 -232 237v180c0 151 99 237 232 237c132 0 232 -86 232 -237v-180c0 -151 -100 -237 -232 -237zM297 593c-115 0 -180 -70 -180 -186v-178c0 -117 65 -186 180 -186s180 69 180 186v178c0 116 -65 186 -180 186z" />
    <glyph glyph-name="P" unicode="P" horiz-adv-x="540" 
d="M136 25c0 -16 -5 -32 -27 -32c-10 0 -25 5 -25 32v575c0 20 5 36 24 36h181c132 0 217 -29 217 -155c0 -101 -65 -154 -173 -154h-197v-302zM289 379c116 0 165 15 165 102c0 90 -53 103 -165 103h-153v-205h153z" />
    <glyph glyph-name="Q" unicode="Q" horiz-adv-x="594" 
d="M297 593c-115 0 -180 -70 -180 -186v-178c0 -117 65 -186 180 -186c44 0 81 9 109 29l-56 52c-6 5 -13 14 -13 23c0 12 10 26 26 26c5 0 14 -2 26 -13l54 -53c22 30 34 72 34 122v178c0 116 -65 186 -180 186zM297 -9c-133 0 -232 86 -232 237v180c0 151 99 237 232 237
c132 0 232 -86 232 -237v-180c0 -65 -18 -119 -49 -157l35 -34c7 -8 11 -17 11 -24c0 -11 -10 -25 -24 -25c-5 0 -15 2 -24 11l-35 35c-39 -28 -90 -43 -146 -43z" />
    <glyph glyph-name="R" unicode="R" horiz-adv-x="569" 
d="M288 374c117 0 166 15 166 102c0 90 -53 103 -166 103h-152v-205h152zM389 332c73 -71 125 -294 125 -307c0 -19 -11 -32 -27 -32c-17 0 -25 17 -25 32c0 13 -45 225 -138 297h-188v-297c0 -16 -5 -32 -27 -32c-10 0 -25 5 -25 32v575c0 20 5 36 24 36h180
c133 0 218 -29 218 -155c0 -83 -43 -134 -117 -149z" />
    <glyph glyph-name="S" unicode="S" horiz-adv-x="599" 
d="M113 481c0 -55 28 -95 60 -102l237 -51c97 -21 127 -98 127 -172c0 -75 -37 -164 -170 -164h-83c-138 0 -223 25 -223 180c0 21 10 33 28 33c15 0 25 -13 25 -33c0 -117 48 -128 170 -128h102c80 0 99 73 99 113c0 72 -37 110 -60 115l-235 52c-95 21 -129 69 -129 158
c0 75 38 162 177 162h76c137 0 223 -23 223 -178c0 -21 -10 -33 -27 -33c-16 0 -26 13 -26 33c0 117 -48 126 -170 126h-98c-80 0 -103 -68 -103 -111z" />
    <glyph glyph-name="T" unicode="T" horiz-adv-x="481" 
d="M421 636c24 0 33 -11 33 -27c0 -20 -17 -25 -33 -25h-152v-559c0 -27 -18 -32 -29 -32s-26 5 -26 32v559h-154c-29 0 -33 16 -33 26s4 26 33 26h361z" />
    <glyph glyph-name="U" unicode="U" horiz-adv-x="620" 
d="M490 611c0 27 16 32 27 32c20 0 25 -17 25 -33v-382c0 -151 -100 -237 -232 -237c-133 0 -232 86 -232 237v382c0 29 16 33 26 33s26 -4 26 -32v-382c0 -117 65 -186 180 -186s180 69 180 186v382z" />
    <glyph glyph-name="V" unicode="V" horiz-adv-x="570" 
d="M286 76l207 553c5 12 15 23 27 23c7 0 26 -5 26 -25c0 -5 -1 -10 -3 -16l-227 -611h-62l-227 611c-2 6 -3 11 -3 16c0 20 19 25 26 25c12 0 21 -9 27 -23z" />
    <glyph glyph-name="W" unicode="W" horiz-adv-x="915" 
d="M664 72l172 555c6 17 16 22 28 22c13 0 24 -5 24 -19c0 -6 0 -6 -4 -18l-192 -612h-58l-177 553l-176 -553h-57l-193 616c-4 12 -4 12 -4 18c0 14 11 19 24 19c12 0 22 -5 28 -22l174 -559l175 554c7 21 22 26 29 26c18 0 27 -13 31 -26z" />
    <glyph glyph-name="X" unicode="X" horiz-adv-x="559" 
d="M497 643c7 0 26 -5 26 -26c0 -3 0 -12 -8 -21l-203 -279l203 -278c6 -8 8 -16 8 -22c0 -16 -15 -24 -26 -24c-10 0 -18 7 -25 16l-193 268l-192 -268c-7 -9 -16 -16 -26 -16c-11 0 -25 10 -25 24c0 6 2 14 8 22l203 278l-203 279c-8 9 -8 18 -8 21c0 21 20 26 25 26
c11 0 19 -8 26 -18l192 -267l193 267c7 9 15 18 25 18z" />
    <glyph glyph-name="Y" unicode="Y" horiz-adv-x="521" 
d="M234 308l-209 289c-4 6 -8 13 -8 21c0 16 15 25 25 25s18 -9 25 -18l193 -267l192 267c11 15 21 18 26 18c10 0 25 -10 25 -25c0 -8 -4 -15 -8 -21l-208 -289v-284c0 -15 -5 -31 -27 -31c-10 0 -26 5 -26 31v284z" />
    <glyph glyph-name="Z" unicode="Z" horiz-adv-x="555" 
d="M46 0v51l401 543h-366c-22 0 -36 5 -36 26c0 18 12 26 36 26h428v-53l-399 -541h364c21 0 35 -5 35 -27c0 -15 -9 -25 -35 -25h-428z" />
    <glyph glyph-name="bracketleft" unicode="[" horiz-adv-x="255" 
d="M132 631v-626h78v-52h-130v730h130v-52h-78z" />
    <glyph glyph-name="backslash" unicode="\" horiz-adv-x="359" 
d="M95 627l218 -598c2 -8 3 -13 3 -18c0 -19 -18 -24 -27 -24c-10 0 -19 6 -25 23l-218 598c-2 7 -3 13 -3 18c0 19 18 24 26 24c10 0 20 -6 26 -23z" />
    <glyph glyph-name="bracketright" unicode="]" horiz-adv-x="255" 
d="M123 5v626h-78v52h130v-730h-130v52h78z" />
    <glyph glyph-name="asciicircum" unicode="^" horiz-adv-x="443" 
d="M222 581l-90 -200c-9 -17 -18 -21 -29 -21c-13 0 -23 9 -23 23c0 5 1 8 2 12l110 246h60l109 -246c2 -4 2 -7 2 -12c0 -15 -10 -23 -23 -23c-12 0 -21 5 -29 21z" />
    <glyph glyph-name="underscore" unicode="_" horiz-adv-x="475" 
d="M-5 -20c0 20 17 25 33 25h419c24 0 33 -11 33 -27c0 -20 -17 -25 -33 -25h-419c-24 0 -33 11 -33 27z" />
    <glyph glyph-name="grave" unicode="`" horiz-adv-x="212" 
d="M54 683c8 0 16 -5 25 -15l96 -115c6 -7 9 -14 9 -23c0 -16 -15 -25 -25 -25c-8 0 -16 5 -25 15l-96 115c-6 7 -9 15 -9 22c0 16 14 26 25 26z" />
    <glyph glyph-name="a" unicode="a" horiz-adv-x="554" 
d="M283 243c-121 0 -171 -10 -171 -125c0 -35 28 -66 55 -66h93c113 0 170 63 170 176v15h-147zM283 295h147v57c0 40 -11 57 -55 57h-141c-73 0 -122 -15 -122 -60c0 -21 -5 -35 -27 -35c-15 0 -25 10 -25 35c0 81 74 112 167 112h155c80 0 100 -36 100 -126v-308
c0 -18 -5 -34 -26 -34s-26 17 -26 35v35c-39 -43 -102 -63 -170 -63h-93c-61 0 -107 47 -107 123c0 144 85 172 223 172z" />
    <glyph glyph-name="b" unicode="b" horiz-adv-x="611" 
d="M127 398c40 43 102 63 171 63h29c138 0 222 -26 222 -176v-109c0 -150 -84 -176 -222 -176h-29c-69 0 -131 20 -171 63v-35c0 -23 -7 -35 -26 -35c-21 0 -26 16 -26 34v580c0 20 5 36 24 36c22 0 28 -16 28 -36v-209zM298 409c-114 0 -171 -62 -171 -177v-4
c0 -114 57 -176 171 -176h29c120 0 170 10 170 125v107c0 115 -50 125 -170 125h-29z" />
    <glyph glyph-name="c" unicode="c" horiz-adv-x="584" 
d="M426 0h-141c-139 0 -223 26 -223 176v109c0 150 84 176 223 176h141c90 0 100 -59 100 -112c0 -18 -5 -35 -26 -35c-10 0 -26 4 -26 33c0 48 -15 62 -55 62h-134c-121 0 -171 -10 -171 -125v-107c0 -115 50 -125 171 -125h134c44 0 55 18 55 62c0 29 16 33 26 33
c18 0 26 -12 26 -36c0 -53 -10 -111 -100 -111z" />
    <glyph glyph-name="d" unicode="d" horiz-adv-x="611" 
d="M484 461v146c0 20 6 36 28 36c19 0 24 -16 24 -36v-580c0 -18 -5 -34 -26 -34c-19 0 -26 12 -26 35v35c-40 -43 -102 -63 -171 -63h-29c-138 0 -222 26 -222 176v109c0 150 84 176 222 176h200zM484 409h-200c-120 0 -170 -10 -170 -125v-107c0 -115 50 -125 170 -125h29
c114 0 171 62 171 176v181z" />
    <glyph glyph-name="e" unicode="e" horiz-adv-x="592" 
d="M536 285v-40h-422v-68c0 -115 50 -125 171 -125h134c44 0 55 18 55 62c0 29 16 33 26 33c18 0 26 -12 26 -36c0 -53 -10 -111 -100 -111h-141c-139 0 -223 26 -223 176v109c0 150 84 176 223 176h29c138 0 222 -26 222 -176zM314 409h-29c-119 0 -169 -11 -171 -112h370
c-2 101 -52 112 -170 112z" />
    <glyph glyph-name="f" unicode="f" horiz-adv-x="323" 
d="M293 584c-110 0 -160 -10 -161 -123h138c20 0 36 -6 36 -28c0 -19 -16 -24 -36 -24h-138v-381c0 -20 -6 -35 -28 -35c-19 0 -24 15 -24 35v382c-17 1 -31 7 -31 27c0 16 11 23 31 24c2 152 86 175 213 175c23 0 36 -8 36 -28c0 -19 -17 -24 -36 -24z" />
    <glyph glyph-name="g" unicode="g" horiz-adv-x="611" 
d="M536 -87c0 -83 -18 -118 -91 -118h-283c-90 0 -100 59 -100 112c0 18 5 35 26 35c18 0 26 -11 26 -33c0 -48 15 -62 55 -62h269c39 0 46 11 46 50v103h-200c-138 0 -222 26 -222 176v109c0 150 84 176 222 176h29c69 0 131 -20 171 -63v35c0 23 7 35 26 35
c21 0 26 -16 26 -34v-521zM484 52v181c0 114 -57 176 -171 176h-29c-120 0 -170 -10 -170 -125v-107c0 -115 50 -125 170 -125h200z" />
    <glyph glyph-name="h" unicode="h" horiz-adv-x="619" 
d="M298 409c-114 0 -171 -63 -171 -178v-204c0 -22 -7 -34 -26 -34c-21 0 -26 16 -26 34v580c0 20 5 36 24 36c22 0 28 -16 28 -36v-209c40 43 102 63 171 63h29c138 0 222 -26 222 -176v-258c0 -19 -5 -34 -25 -34c-11 0 -27 4 -27 34v257c0 115 -50 125 -170 125h-29z" />
    <glyph glyph-name="i" unicode="i" horiz-adv-x="200" 
d="M99 -12c-10 0 -25 5 -25 32v420c0 29 16 33 26 33s26 -4 26 -33v-420c0 -16 -5 -32 -27 -32zM100 642c19 0 51 -16 51 -41c0 -24 -32 -41 -51 -41c-20 0 -51 17 -51 41c0 25 31 41 51 41z" />
    <glyph glyph-name="j" unicode="j" horiz-adv-x="202" 
d="M99 642c19 0 51 -16 51 -41c0 -24 -32 -41 -51 -41c-20 0 -51 17 -51 41c0 25 31 41 51 41zM127 0c0 -153 -85 -175 -213 -175c-19 0 -36 5 -36 27c0 19 13 25 36 25c111 0 161 10 161 123v432c0 20 5 36 27 36c18 0 25 -12 25 -36v-432z" />
    <glyph glyph-name="k" unicode="k" horiz-adv-x="454" 
d="M442 19c0 -11 -10 -25 -24 -25c-10 0 -19 7 -25 12l-237 229l-29 -29v-181c0 -15 -5 -32 -27 -32c-10 0 -25 5 -25 31v586c0 29 16 33 26 33s26 -4 26 -33v-341l194 185c11 10 19 12 24 12c11 0 25 -10 25 -26c0 -9 -7 -18 -12 -23l-166 -152l239 -222
c7 -8 11 -17 11 -24z" />
    <glyph glyph-name="l" unicode="l" horiz-adv-x="271" 
d="M197 0h-7c-80 0 -100 37 -100 127v481c0 18 5 35 26 35c19 0 26 -12 26 -35v-498c0 -41 11 -58 55 -58c21 0 35 -5 35 -27c0 -15 -9 -25 -35 -25z" />
    <glyph glyph-name="m" unicode="m" horiz-adv-x="830" 
d="M257 409c-82 0 -131 -62 -131 -178v-204c0 -22 -7 -34 -26 -34c-21 0 -26 16 -26 34v406c0 20 5 35 24 35c22 0 28 -16 28 -36v-34c36 43 68 63 131 63c80 0 143 -13 171 -80c32 50 83 80 147 80c109 0 184 -26 184 -176v-258c0 -18 -5 -34 -26 -34s-26 16 -26 34v257
c0 115 -37 125 -132 125c-83 0 -133 -62 -133 -178v-204c0 -19 -5 -34 -25 -34c-19 0 -27 11 -27 34v257c0 115 -38 125 -133 125z" />
    <glyph glyph-name="n" unicode="n" horiz-adv-x="617" 
d="M297 409c-114 0 -171 -63 -171 -178v-204c0 -22 -7 -34 -26 -34c-21 0 -26 16 -26 34v406c0 20 5 35 24 35c22 0 28 -16 28 -36v-34c40 43 102 63 171 63h29c138 0 222 -26 222 -176v-258c0 -19 -5 -34 -25 -34c-11 0 -27 4 -27 34v257c0 115 -50 125 -170 125h-29z" />
    <glyph glyph-name="o" unicode="o" 
d="M314 0h-29c-139 0 -223 26 -223 176v109c0 150 84 176 223 176h29c138 0 222 -26 222 -176v-109c0 -150 -84 -176 -222 -176zM285 52h29c120 0 170 10 170 125v107c0 115 -50 125 -170 125h-29c-121 0 -171 -10 -171 -125v-107c0 -115 50 -125 171 -125z" />
    <glyph glyph-name="p" unicode="p" horiz-adv-x="611" 
d="M497 284c0 115 -50 125 -170 125h-29c-114 0 -171 -62 -171 -177v-180h201c119 0 169 10 169 125v107zM549 176c0 -150 -84 -176 -221 -176h-201v-147c0 -20 -6 -35 -28 -35c-19 0 -24 15 -24 35v581c0 18 5 34 26 34c19 0 26 -12 26 -35v-35c40 43 102 63 171 63h29
c138 0 222 -26 222 -176v-109z" />
    <glyph glyph-name="q" unicode="q" horiz-adv-x="611" 
d="M114 284v-107c0 -115 50 -125 170 -125h200v180c0 115 -57 177 -170 177h-29c-121 0 -171 -10 -171 -125zM62 176v109c0 150 84 176 223 176h29c68 0 131 -20 170 -63v35c0 18 5 35 26 35s26 -16 26 -34v-581c0 -20 -5 -35 -24 -35c-17 0 -28 10 -28 35v147h-200
c-138 0 -222 26 -222 176z" />
    <glyph glyph-name="r" unicode="r" horiz-adv-x="383" 
d="M287 409c-104 0 -161 -63 -161 -178v-204c0 -22 -7 -34 -26 -34c-21 0 -26 16 -26 34v406c0 20 5 35 24 35c22 0 28 -16 28 -36v-34c40 43 99 63 161 63h46c22 0 35 -7 35 -26c0 -10 -4 -26 -35 -26h-46z" />
    <glyph glyph-name="s" unicode="s" horiz-adv-x="586" 
d="M160 0c-90 0 -100 58 -100 111c0 24 8 36 26 36s26 -11 26 -33c0 -44 11 -62 55 -62h248c43 0 59 31 59 74c0 50 -24 84 -59 84h-226c-97 0 -129 58 -129 130c0 74 31 121 139 121h225c90 0 100 -59 100 -112c0 -18 -5 -35 -26 -35c-10 0 -26 4 -26 33
c0 48 -15 62 -55 62h-246c-35 0 -59 -18 -59 -69c0 -52 26 -78 59 -78h227c102 0 128 -70 128 -136c0 -77 -33 -126 -138 -126h-228z" />
    <glyph glyph-name="t" unicode="t" horiz-adv-x="344" 
d="M130 177c0 -115 50 -125 161 -125c20 0 35 -5 35 -24c0 -22 -15 -28 -35 -28c-129 0 -213 27 -213 176v234c-18 1 -31 7 -31 27c0 16 11 23 31 24v104c0 20 5 36 24 36c22 0 28 -16 28 -36v-104h138c20 0 36 -6 36 -28c0 -19 -16 -24 -36 -24h-138v-232z" />
    <glyph glyph-name="u" unicode="u" horiz-adv-x="618" 
d="M321 52c114 0 171 63 171 178v204c0 22 7 34 26 34c21 0 26 -16 26 -34v-406c0 -20 -5 -35 -24 -35c-22 0 -28 16 -28 36v34c-40 -43 -102 -63 -171 -63h-29c-138 0 -222 26 -222 176v258c0 19 5 34 25 34c11 0 27 -4 27 -34v-257c0 -115 50 -125 170 -125h29z" />
    <glyph glyph-name="v" unicode="v" horiz-adv-x="509" 
d="M212 0l-180 436c-4 9 -4 10 -4 16c0 14 11 21 24 21c12 0 21 -6 28 -22l172 -400l178 401c7 16 17 21 28 21c12 0 24 -6 24 -20c0 -7 0 -8 -4 -17l-192 -436h-74z" />
    <glyph glyph-name="w" unicode="w" horiz-adv-x="792" 
d="M758 436l-155 -436h-79l-127 374l-137 -374h-79l-146 436c-4 12 -4 12 -4 18c0 14 11 19 24 19c12 0 22 -5 28 -22l140 -403l146 398c6 15 12 21 29 21s22 -6 27 -21l140 -398l145 403c6 16 16 22 28 22c13 0 24 -5 24 -19c0 -6 0 -6 -4 -18z" />
    <glyph glyph-name="x" unicode="x" horiz-adv-x="512" 
d="M472 12c0 -14 -14 -23 -25 -23c-9 0 -17 5 -24 12l-166 193l-167 -193c-8 -7 -16 -12 -25 -12c-11 0 -25 9 -25 23c0 10 9 22 10 24l171 194l-171 195c-9 11 -10 18 -10 23c0 14 14 24 25 24c9 0 17 -5 25 -12l167 -193l166 193c7 7 14 12 24 12c11 0 25 -10 25 -24
c0 -5 -1 -12 -10 -23l-171 -195l171 -194c6 -9 10 -16 10 -24z" />
    <glyph glyph-name="y" unicode="y" horiz-adv-x="619" 
d="M544 -87c0 -83 -18 -118 -91 -118h-283c-90 0 -100 59 -100 112c0 18 5 35 26 35c18 0 26 -11 26 -33c0 -48 15 -62 55 -62h269c39 0 46 11 46 50v166c-40 -43 -102 -63 -171 -63h-29c-138 0 -222 26 -222 176v258c0 19 5 34 25 34c11 0 27 -4 27 -34v-257
c0 -115 50 -125 170 -125h29c114 0 171 63 171 178v204c0 22 7 34 26 34c21 0 26 -16 26 -34v-521z" />
    <glyph glyph-name="z" unicode="z" horiz-adv-x="552" 
d="M126 52h267c53 0 56 31 56 77c0 20 5 36 26 36c16 0 26 -10 26 -36c0 -90 -20 -129 -100 -129h-342v64l357 345h-250c-51 0 -55 -30 -55 -77c0 -22 -5 -36 -27 -36c-20 0 -25 17 -25 36c0 92 20 129 100 129h321v-67z" />
    <glyph glyph-name="braceleft" unicode="{" horiz-adv-x="262" 
d="M163 236c0 -46 -28 -102 -28 -128c0 -93 8 -103 78 -103v-52c-84 0 -130 19 -130 155c0 37 28 93 28 128c0 34 -59 70 -73 77v8c15 8 73 45 73 79c0 35 -28 91 -28 128c0 136 46 155 130 155v-52c-70 0 -78 -11 -78 -103c0 -25 28 -82 28 -128c0 -37 -51 -71 -71 -83
c20 -11 71 -44 71 -81z" />
    <glyph glyph-name="bar" unicode="|" horiz-adv-x="214" 
d="M133 25c0 -16 -5 -32 -27 -32c-10 0 -25 5 -25 32v585c0 29 16 33 26 33s26 -4 26 -33v-585z" />
    <glyph glyph-name="braceright" unicode="}" horiz-adv-x="262" 
d="M99 236c0 37 51 70 71 81c-20 12 -71 46 -71 83c0 46 28 103 28 128c0 92 -8 103 -78 103v52c84 0 130 -19 130 -155c0 -37 -28 -93 -28 -128c0 -34 58 -71 73 -79v-8c-14 -7 -73 -43 -73 -77c0 -35 28 -91 28 -128c0 -136 -46 -155 -130 -155v52c70 0 78 10 78 103
c0 26 -28 82 -28 128z" />
    <glyph glyph-name="asciitilde" unicode="~" horiz-adv-x="425" 
d="M266 234c2 0 4 1 8 4l31 28c7 5 13 9 22 9c12 0 26 -8 26 -23c0 -8 -4 -18 -14 -27l-47 -39c-5 -5 -11 -8 -19 -8c-5 0 -11 2 -12 2l-98 36c-1 1 -4 2 -6 2s-4 -1 -8 -4l-31 -28c-7 -5 -13 -9 -22 -9c-11 0 -25 9 -25 24c0 10 5 19 14 26l46 38c5 6 12 9 19 9
c4 0 11 -2 13 -2l98 -36c3 -2 5 -2 5 -2z" />
    <glyph glyph-name="exclamdown" unicode="&#xa1;" horiz-adv-x="230" 
d="M114 -170c-10 0 -25 5 -25 32v420c0 29 16 33 26 33s26 -4 26 -33v-420c0 -16 -5 -32 -27 -32zM114 491c21 0 52 -16 52 -41c0 -24 -32 -41 -52 -41c-19 0 -51 17 -51 41c0 25 32 41 51 41z" />
    <glyph glyph-name="cent" unicode="&#xa2;" horiz-adv-x="478" 
d="M243 -12c-10 0 -25 5 -25 32v98c-105 6 -169 44 -169 180v42c0 135 67 173 169 179v96c0 24 11 33 27 33c20 0 25 -17 25 -33v-95h52c90 0 99 -58 99 -111c0 -26 -9 -36 -25 -36c-17 0 -27 11 -27 34c0 47 -13 61 -54 61h-45v-298h43c41 0 56 14 56 61c0 23 8 34 25 34
c16 0 27 -10 27 -36c0 -53 -11 -111 -101 -111h-50v-98c0 -16 -5 -32 -27 -32zM218 171v296c-80 -4 -117 -28 -117 -127v-42c0 -101 35 -123 117 -127z" />
    <glyph glyph-name="sterling" unicode="&#xa3;" horiz-adv-x="501" 
d="M65 23c0 4 0 6 1 9l38 436c13 156 98 180 184 180c81 0 153 -22 153 -147c0 -28 -16 -33 -27 -33c-20 0 -25 17 -25 33c0 89 -44 95 -105 95c-67 0 -118 -12 -128 -128l-9 -99h34c27 0 32 -16 32 -27c0 -10 -5 -25 -32 -25h-38l-24 -270h291c16 0 33 -5 33 -27
c0 -10 -5 -25 -33 -25h-323c-15 0 -22 9 -22 28z" />
    <glyph glyph-name="currency" unicode="&#xa4;" horiz-adv-x="495" 
d="M143 230c0 -57 47 -104 105 -104c57 0 104 47 104 104c0 58 -47 105 -104 105c-58 0 -105 -47 -105 -105zM99 230c0 31 9 61 26 85l-45 45c-5 6 -12 15 -12 24c0 12 14 25 25 25c9 0 18 -7 24 -12l45 -45c25 18 54 27 86 27c31 0 60 -9 85 -27l44 45c12 11 20 12 25 12
c8 0 25 -8 25 -24c0 -9 -5 -17 -14 -25l-44 -45c18 -24 27 -54 27 -85s-9 -60 -27 -85l44 -44c11 -11 14 -19 14 -24c0 -10 -13 -26 -26 -26c-5 0 -13 2 -24 14l-44 44c-25 -18 -54 -27 -85 -27c-32 0 -61 9 -86 27l-45 -44c-8 -9 -16 -14 -25 -14c-10 0 -24 9 -24 25
c0 5 1 13 12 25l45 45c-17 24 -26 53 -26 84z" />
    <glyph glyph-name="yen" unicode="&#xa5;" horiz-adv-x="538" 
d="M39 601c-4 6 -8 14 -8 22c0 16 15 25 25 25s18 -9 25 -18l188 -267l187 267c11 16 21 18 26 18c10 0 25 -10 25 -25c0 -9 -4 -16 -8 -22l-204 -293v-31h94c21 0 33 -10 33 -27c0 -16 -13 -25 -33 -25h-94v-37h94c21 0 33 -10 33 -27c0 -16 -12 -25 -33 -25h-94v-116
c0 -15 -5 -32 -26 -32c-10 0 -25 5 -25 32v116h-100c-24 0 -32 13 -32 27c0 15 11 25 32 25h100v37h-100c-21 0 -32 11 -32 27c0 15 11 25 32 25h100v31z" />
    <glyph glyph-name="brokenbar" unicode="&#xa6;" horiz-adv-x="213" 
d="M107 648c10 0 25 -5 25 -32v-215c0 -21 -10 -33 -27 -33c-16 0 -24 13 -24 33v215c0 17 5 32 26 32zM107 268c10 0 25 -5 25 -31v-215c0 -22 -10 -34 -27 -34c-10 0 -24 6 -24 34v215c0 22 10 31 26 31z" />
    <glyph glyph-name="section" unicode="&#xa7;" horiz-adv-x="520" 
d="M399 194c34 -20 46 -54 46 -95c0 -56 -21 -104 -105 -104h-184c-73 0 -81 47 -81 91c0 19 11 30 27 30c15 0 25 -12 25 -28c0 -35 5 -41 40 -41h184c34 0 42 17 42 52c0 43 -13 67 -39 70l-175 25c-68 9 -104 45 -104 112c0 43 12 77 46 94c-34 20 -46 54 -46 95
c0 55 21 104 105 104h185c72 0 80 -47 80 -91c0 -19 -10 -30 -26 -30s-26 12 -26 28c0 35 -5 41 -40 41h-184c-34 0 -42 -18 -42 -52c0 -43 13 -67 39 -70l175 -25c69 -9 104 -44 104 -111c0 -44 -12 -78 -46 -95zM127 306c0 -56 87 -80 185 -80c65 0 81 3 81 63
c0 63 -109 79 -185 79c-65 0 -81 -3 -81 -62z" />
    <glyph glyph-name="dieresis" unicode="&#xa8;" horiz-adv-x="367" 
d="M111 671c19 0 51 -17 51 -41c0 -25 -32 -41 -51 -41c-20 0 -51 16 -51 41c0 24 31 41 51 41zM257 671c19 0 51 -17 51 -41c0 -25 -32 -41 -51 -41c-20 0 -51 16 -51 41c0 24 31 41 51 41z" />
    <glyph glyph-name="copyright" unicode="&#xa9;" horiz-adv-x="612" 
d="M406 363c0 -11 -11 -17 -21 -17c-9 0 -18 5 -18 15c0 15 -4 19 -18 19h-48c-30 0 -55 -15 -55 -43v-39c0 -28 25 -43 55 -43h48c27 0 11 19 23 30c4 3 9 4 13 4c11 0 21 -7 21 -17c0 -19 -8 -58 -55 -58h-50c-48 0 -95 26 -95 84v39c0 58 47 84 95 84h50
c44 0 55 -35 55 -58zM292 82c-129 0 -213 26 -213 180v111c0 154 84 180 213 180h29c128 0 212 -26 212 -180v-111c0 -154 -84 -180 -212 -180h-29zM292 134h29c110 0 160 11 160 128v111c0 117 -50 128 -160 128h-29c-111 0 -161 -11 -161 -128v-111
c0 -117 50 -128 161 -128z" />
    <glyph glyph-name="ordfeminine" unicode="&#xaa;" horiz-adv-x="380" 
d="M65 182c0 9 6 22 26 22h196c18 0 28 -10 28 -24c0 -13 -11 -21 -28 -21h-196c-21 0 -26 14 -26 23zM249 349h-57c-44 0 -61 -5 -61 -40c0 -11 8 -24 19 -24h37c38 0 60 23 62 64zM270 241c-13 0 -21 8 -21 17v12c-11 -16 -28 -26 -62 -26h-37c-37 0 -60 35 -60 67
c0 63 38 79 102 79h57v14c0 17 -5 21 -20 21h-79c-27 0 -15 -19 -21 -29c-5 -6 -12 -9 -18 -9c-11 0 -21 6 -21 17c0 34 23 62 57 62h85c40 0 58 -28 58 -69v-139c-2 -15 -17 -17 -20 -17z" />
    <glyph glyph-name="guillemotleft" unicode="&#xab;" horiz-adv-x="503" 
d="M208 358l182 169c6 6 14 8 23 8c12 0 20 -8 20 -20c0 -7 -1 -18 -14 -32l-155 -150l155 -151c13 -14 14 -26 14 -32c0 -12 -8 -20 -20 -20c-9 0 -17 1 -23 7l-182 169c-10 8 -18 16 -18 27c0 10 9 17 18 25zM54 358l182 169c6 6 14 8 23 8c12 0 20 -8 20 -20
c0 -7 -1 -18 -14 -32l-155 -150l155 -151c13 -14 14 -26 14 -32c0 -12 -8 -20 -20 -20c-9 0 -17 1 -23 7l-182 169c-10 8 -18 16 -18 27c0 10 9 17 18 25z" />
    <glyph glyph-name="logicalnot" unicode="&#xac;" horiz-adv-x="522" 
d="M443 141c0 -21 -10 -33 -28 -33c-15 0 -25 13 -25 33v63h-279c-23 0 -31 13 -31 27c0 10 5 26 31 26h298c19 0 34 -6 34 -32v-84z" />
    <glyph glyph-name="uni00AD" unicode="&#xad;" horiz-adv-x="456" 
d="M73 231c0 10 5 26 31 26h245c21 0 34 -10 34 -28c0 -15 -14 -25 -34 -25h-245c-23 0 -31 13 -31 27z" />
    <glyph glyph-name="registered" unicode="&#xae;" horiz-adv-x="612" 
d="M292 134h29c110 0 160 11 160 128v111c0 117 -50 128 -160 128h-29c-111 0 -161 -11 -161 -128v-111c0 -117 50 -128 161 -128zM292 82c-129 0 -213 26 -213 180v111c0 154 84 180 213 180h29c128 0 212 -26 212 -180v-111c0 -154 -84 -180 -212 -180h-29zM417 217
c0 -9 -12 -14 -20 -14c-13 0 -21 8 -21 13c-2 8 -26 60 -62 82h-71v-81c0 -9 -9 -14 -21 -14c-10 0 -20 6 -20 14v194c0 9 11 15 19 15h84c60 0 109 -13 109 -65c0 -26 -18 -51 -48 -60c18 -15 51 -66 51 -84zM305 339c50 0 68 3 68 22c0 21 -18 24 -68 24h-62v-46h62z" />
    <glyph glyph-name="macron" unicode="&#xaf;" horiz-adv-x="429" 
d="M60 700c0 10 5 26 31 26h245c21 0 34 -10 34 -28c0 -15 -14 -25 -34 -25h-245c-23 0 -31 13 -31 27z" />
    <glyph glyph-name="degree" unicode="&#xb0;" horiz-adv-x="403" 
d="M104 535c0 -54 44 -98 97 -98c54 0 98 44 98 98c0 53 -44 97 -98 97c-53 0 -97 -44 -97 -97zM201 683c82 0 149 -67 149 -148c0 -82 -67 -149 -149 -149c-81 0 -148 67 -148 149c0 81 67 148 148 148z" />
    <glyph glyph-name="plusminus" unicode="&#xb1;" horiz-adv-x="579" 
d="M511 25c0 -15 -14 -25 -34 -25h-378c-15 0 -31 6 -31 28c0 10 5 25 31 25h378c21 0 34 -10 34 -28zM289 111c-21 0 -26 17 -26 32v122h-164c-25 0 -31 15 -31 28c0 10 5 25 31 25h164v122c0 24 11 33 27 33c20 0 25 -17 25 -33v-122h162c21 0 34 -10 34 -27
c0 -16 -14 -26 -34 -26h-162v-122c0 -15 -5 -32 -26 -32z" />
    <glyph glyph-name="twosuperior" unicode="&#xb2;" horiz-adv-x="325" 
d="M280 477c0 -8 -13 -21 -27 -21h-208v27c0 129 192 142 192 199c0 45 -21 47 -82 47h-26c-24 0 -38 -8 -38 -26c0 -13 -11 -23 -23 -23c-9 0 -23 9 -23 23c0 41 39 69 80 69h30c70 0 125 -7 125 -90c0 -85 -180 -106 -188 -183h161c14 -1 27 -11 27 -22z" />
    <glyph glyph-name="threesuperior" unicode="&#xb3;" horiz-adv-x="295" 
d="M138 729c-28 0 -60 -11 -60 -28c0 -14 -14 -18 -24 -18s-22 6 -22 20c0 28 37 69 102 69h12c80 0 109 -26 109 -88c0 -33 -35 -56 -59 -66c25 -11 59 -39 59 -78c0 -58 -29 -84 -109 -84h-12c-65 0 -102 41 -102 69c0 14 12 20 22 20s24 -4 24 -18c0 -17 32 -28 60 -28
h12c59 0 63 18 63 42c0 29 -49 55 -87 55c-18 0 -23 14 -23 22c0 11 9 21 23 21c36 0 87 19 87 48c0 24 -4 42 -63 42h-12z" />
    <glyph glyph-name="acute" unicode="&#xb4;" horiz-adv-x="212" 
d="M175 635l-96 -115c-9 -10 -17 -15 -25 -15c-10 0 -25 10 -25 25c0 9 3 16 9 23l96 115c9 10 17 15 25 15c11 0 25 -10 25 -26c0 -7 -3 -15 -9 -22z" />
    <glyph glyph-name="uni00B5" unicode="&#xb5;" horiz-adv-x="574" 
d="M456 228v210c0 20 5 35 25 35c19 0 27 -12 27 -35v-414c0 -24 -7 -36 -25 -36c-22 0 -27 16 -27 36v34c-40 -43 -100 -63 -161 -63c-62 0 -121 20 -161 63v-227c0 -20 -6 -36 -28 -36c-19 0 -24 16 -24 36v607c0 20 5 35 25 35c19 0 27 -12 27 -35v-210
c0 -117 57 -181 161 -181c103 0 161 64 161 181z" />
    <glyph glyph-name="paragraph" unicode="&#xb6;" horiz-adv-x="467" 
d="M352 -12c-22 0 -27 16 -27 32v569h-31v-569c0 -27 -15 -32 -25 -32c-22 0 -27 16 -27 32v312h-37c-105 0 -170 53 -170 154c0 126 85 155 212 155h130v-621c0 -27 -15 -32 -25 -32z" />
    <glyph glyph-name="periodcentered" unicode="&#xb7;" horiz-adv-x="242" 
d="M121 428c19 0 51 -17 51 -41c0 -25 -32 -41 -51 -41c-20 0 -51 16 -51 41c0 24 31 41 51 41z" />
    <glyph glyph-name="cedilla" unicode="&#xb8;" horiz-adv-x="242" 
d="M143 10c0 -49 69 -44 69 -104c0 -50 -44 -81 -96 -81c-22 0 -79 10 -79 50c0 11 7 18 15 18c15 0 40 -18 66 -18c32 0 42 8 42 26c0 31 -69 39 -69 109h52z" />
    <glyph glyph-name="onesuperior" unicode="&#xb9;" horiz-adv-x="154" 
d="M37 685c-8 -10 -18 -12 -24 -12c-13 0 -20 10 -20 19s5 16 12 22l48 50c7 6 14 11 23 11c7 0 23 -5 23 -24v-271c0 -18 -8 -27 -22 -27s-22 9 -22 27v223z" />
    <glyph glyph-name="ordmasculine" unicode="&#xba;" horiz-adv-x="380" 
d="M185 285h9c44 0 55 4 55 48v44c0 44 -11 48 -55 48h-9c-43 0 -54 -3 -54 -48v-44c0 -45 11 -48 54 -48zM185 244c-70 0 -95 18 -95 89v44c0 71 26 89 95 89h9c70 0 96 -18 96 -89v-44c0 -71 -25 -89 -96 -89h-9zM65 182c0 9 6 22 26 22h196c18 0 28 -10 28 -24
c0 -13 -11 -21 -28 -21h-196c-21 0 -26 14 -26 23z" />
    <glyph glyph-name="guillemotright" unicode="&#xbb;" horiz-adv-x="503" 
d="M449 358c9 -8 18 -15 18 -25c0 -11 -8 -19 -18 -27l-182 -169c-6 -6 -14 -7 -23 -7c-12 0 -20 8 -20 20c0 6 1 18 14 32l155 151l-155 150c-13 14 -14 25 -14 32c0 12 8 20 20 20c9 0 17 -2 23 -8zM295 358c9 -8 18 -15 18 -25c0 -11 -8 -19 -18 -27l-182 -169
c-6 -6 -14 -7 -23 -7c-12 0 -20 8 -20 20c0 6 1 18 14 32l155 151l-155 150c-13 14 -14 25 -14 32c0 12 8 20 20 20c9 0 17 -2 23 -8z" />
    <glyph glyph-name="onequarter" unicode="&#xbc;" horiz-adv-x="584" 
d="M133 551c-8 -10 -18 -12 -24 -12c-13 0 -20 10 -20 19s5 16 12 22l48 50c7 6 14 11 23 11c7 0 23 -5 23 -24v-271c0 -18 -8 -27 -22 -27s-22 9 -22 27v223zM509 519c0 -5 -1 -13 -12 -24l-409 -410c-12 -11 -20 -12 -25 -12c-9 0 -20 4 -20 20c0 5 1 13 12 25l410 409
c11 11 19 12 24 12c9 0 20 -4 20 -20zM470 95v-77c0 -18 -8 -27 -22 -27c-9 0 -22 5 -22 27v77h-132v52l122 163h54v-172h44c17 0 26 -7 26 -21c0 -13 -7 -22 -26 -22h-44zM426 138v118l-88 -118h88z" />
    <glyph glyph-name="onehalf" unicode="&#xbd;" horiz-adv-x="612" 
d="M506 519c0 -5 -1 -13 -12 -24l-409 -410c-12 -11 -20 -12 -25 -12c-9 0 -20 4 -20 20c0 5 1 13 12 25l410 409c11 11 19 12 24 12c9 0 20 -4 20 -20zM559 15c0 -8 -13 -21 -27 -21h-208v27c0 129 192 142 192 199c0 45 -21 47 -82 47h-26c-24 0 -38 -8 -38 -26
c0 -13 -11 -23 -23 -23c-9 0 -23 9 -23 23c0 41 39 69 80 69h30c70 0 125 -7 125 -90c0 -85 -180 -106 -188 -183h161c14 -1 27 -11 27 -22zM141 551c-8 -10 -18 -12 -24 -12c-13 0 -20 10 -20 19s5 16 12 22l48 50c7 6 14 11 23 11c7 0 23 -5 23 -24v-271
c0 -18 -8 -27 -22 -27s-22 9 -22 27v223z" />
    <glyph glyph-name="threequarters" unicode="&#xbe;" horiz-adv-x="631" 
d="M516 95v-77c0 -18 -8 -27 -22 -27c-9 0 -22 5 -22 27v77h-132v52l122 163h54v-172h44c17 0 26 -7 26 -21c0 -13 -7 -22 -26 -22h-44zM472 138v118l-88 -118h88zM560 519c0 -5 -1 -13 -12 -24l-409 -410c-12 -11 -20 -12 -25 -12c-9 0 -20 4 -20 20c0 5 1 13 12 25
l410 409c11 11 19 12 24 12c9 0 20 -4 20 -20zM169 598c-28 0 -60 -11 -60 -28c0 -14 -14 -18 -24 -18s-22 6 -22 20c0 28 37 69 102 69h12c80 0 109 -26 109 -88c0 -33 -35 -56 -59 -66c25 -11 59 -39 59 -78c0 -58 -29 -84 -109 -84h-12c-65 0 -102 41 -102 69
c0 14 12 20 22 20s24 -4 24 -18c0 -17 32 -28 60 -28h12c59 0 63 18 63 42c0 29 -49 55 -87 55c-18 0 -23 14 -23 22c0 11 9 21 23 21c36 0 87 19 87 48c0 24 -4 42 -63 42h-12z" />
    <glyph glyph-name="questiondown" unicode="&#xbf;" horiz-adv-x="529" 
d="M282 409c-20 0 -52 17 -52 41c0 25 31 41 52 41c19 0 51 -16 51 -41c0 -24 -32 -41 -51 -41zM255 285c0 24 11 33 27 33c20 0 25 -17 25 -33v-144l-157 -43c-33 -9 -60 -49 -60 -103c0 -45 23 -113 97 -113h94c112 0 160 9 160 126c0 20 10 33 26 33c17 0 27 -12 27 -33
c0 -155 -86 -178 -213 -178h-76c-129 0 -167 88 -167 165c0 89 34 134 128 160l89 25v105z" />
    <glyph glyph-name="Agrave" unicode="&#xc0;" horiz-adv-x="570" 
d="M316 636l227 -611c2 -6 3 -11 3 -16c0 -20 -19 -25 -26 -25c-12 0 -21 9 -27 23l-71 192h-274l-71 -192c-5 -12 -15 -23 -27 -23c-7 0 -26 5 -26 25c0 5 1 10 3 16l227 611h62zM284 560l-116 -309h234zM203 819c8 0 16 -4 24 -13l70 -69c7 -8 12 -15 12 -25
s-10 -24 -25 -24c-8 0 -17 4 -25 13l-69 68c-8 9 -13 16 -13 25c0 10 12 25 26 25z" />
    <glyph glyph-name="Aacute" unicode="&#xc1;" horiz-adv-x="570" 
d="M316 636l227 -611c2 -6 3 -11 3 -16c0 -20 -19 -25 -26 -25c-12 0 -21 9 -27 23l-71 192h-274l-71 -192c-5 -12 -15 -23 -27 -23c-7 0 -26 5 -26 25c0 5 1 10 3 16l227 611h62zM284 560l-116 -309h234zM361 770l-70 -69c-8 -9 -16 -13 -24 -13c-14 0 -26 13 -26 24
c0 10 6 18 13 26l69 68c8 9 17 13 25 13c16 0 25 -16 25 -25s-5 -16 -12 -24z" />
    <glyph glyph-name="Acircumflex" unicode="&#xc2;" horiz-adv-x="570" 
d="M316 636l227 -611c2 -6 3 -11 3 -16c0 -20 -19 -25 -26 -25c-12 0 -21 9 -27 23l-71 192h-274l-71 -192c-5 -12 -15 -23 -27 -23c-7 0 -26 5 -26 25c0 5 1 10 3 16l227 611h62zM284 560l-116 -309h234zM150 687l105 132h59l107 -132c3 -4 6 -12 6 -18
c0 -7 -2 -23 -23 -23c-14 0 -19 10 -28 20l-91 96l-90 -96c-9 -10 -14 -20 -28 -20c-21 0 -23 16 -23 23c0 6 3 14 6 18z" />
    <glyph glyph-name="Atilde" unicode="&#xc3;" horiz-adv-x="570" 
d="M316 636l227 -611c2 -6 3 -11 3 -16c0 -20 -19 -25 -26 -25c-12 0 -21 9 -27 23l-71 192h-274l-71 -192c-5 -12 -15 -23 -27 -23c-7 0 -26 5 -26 25c0 5 1 10 3 16l227 611h62zM284 560l-116 -309h234zM339 758c2 0 4 1 8 4l31 28c7 5 13 9 22 9c12 0 26 -8 26 -23
c0 -8 -4 -18 -14 -27l-47 -39c-5 -5 -11 -8 -19 -8c-5 0 -11 2 -12 2l-98 36c-1 1 -4 2 -6 2s-4 -1 -8 -4l-31 -28c-7 -5 -13 -9 -22 -9c-11 0 -25 9 -25 24c0 10 5 19 14 26l46 38c5 6 12 9 19 9c4 0 11 -2 13 -2l98 -36c3 -2 5 -2 5 -2z" />
    <glyph glyph-name="Adieresis" unicode="&#xc4;" horiz-adv-x="570" 
d="M316 636l227 -611c2 -6 3 -11 3 -16c0 -20 -19 -25 -26 -25c-12 0 -21 9 -27 23l-71 192h-274l-71 -192c-5 -12 -15 -23 -27 -23c-7 0 -26 5 -26 25c0 5 1 10 3 16l227 611h62zM284 560l-116 -309h234zM212 784c19 0 51 -17 51 -41c0 -25 -32 -41 -51 -41
c-20 0 -51 16 -51 41c0 24 31 41 51 41zM358 784c19 0 51 -17 51 -41c0 -25 -32 -41 -51 -41c-20 0 -51 16 -51 41c0 24 31 41 51 41z" />
    <glyph glyph-name="Aring" unicode="&#xc5;" horiz-adv-x="570" 
d="M316 636l227 -611c2 -6 3 -11 3 -16c0 -20 -19 -25 -26 -25c-12 0 -21 9 -27 23l-71 192h-274l-71 -192c-5 -12 -15 -23 -27 -23c-7 0 -26 5 -26 25c0 5 1 10 3 16l227 611h62zM284 560l-116 -309h234zM241 738c0 -24 20 -44 44 -44c23 0 44 20 44 44s-22 44 -44 44
c-24 0 -44 -21 -44 -44zM285 819c45 0 81 -36 81 -81s-36 -81 -81 -81s-81 36 -81 81s36 81 81 81z" />
    <glyph glyph-name="AE" unicode="&#xc6;" horiz-adv-x="867" 
d="M452 332v-280h333c23 0 34 -9 34 -28s-12 -24 -34 -24h-361c-19 0 -24 15 -24 36v163h-215l-123 -192c-8 -12 -21 -23 -33 -23c-6 0 -20 4 -20 18c0 5 2 13 8 23l388 606c4 6 10 10 19 10h361c23 0 34 -9 34 -28s-12 -24 -34 -24h-333v-205h214c20 0 36 -6 36 -28
c0 -19 -14 -24 -36 -24h-214zM400 251v282l-181 -282h181z" />
    <glyph glyph-name="Ccedilla" unicode="&#xc7;" horiz-adv-x="590" 
d="M283 0c-133 1 -212 30 -212 180v286c0 154 84 180 217 180h147c90 0 100 -58 100 -112c0 -18 -5 -35 -26 -35c-10 0 -26 4 -26 33c0 48 -15 62 -55 62h-140c-115 0 -165 -11 -165 -128v-286c0 -117 50 -128 171 -128h134c44 0 55 18 55 62c0 29 16 33 26 33
c18 0 26 -12 26 -36c0 -53 -10 -111 -100 -111h-99c9 -39 68 -38 68 -94c0 -50 -44 -81 -96 -81c-22 0 -79 10 -79 50c0 11 7 18 15 18c15 0 40 -18 66 -18c32 0 42 8 42 26c0 29 -63 38 -69 99z" />
    <glyph glyph-name="Egrave" unicode="&#xc8;" 
d="M136 332v-280h378c23 0 34 -9 34 -28s-12 -24 -34 -24h-406c-19 0 -24 15 -24 36v564c0 20 5 36 24 36h406c23 0 34 -9 34 -28s-12 -24 -34 -24h-378v-200h259c20 0 36 -6 36 -28c0 -19 -14 -24 -36 -24h-259zM230 819c8 0 16 -4 24 -13l70 -69c7 -8 12 -15 12 -25
s-10 -24 -25 -24c-8 0 -17 4 -25 13l-69 68c-8 9 -13 16 -13 25c0 10 12 25 26 25z" />
    <glyph glyph-name="Eacute" unicode="&#xc9;" 
d="M136 332v-280h378c23 0 34 -9 34 -28s-12 -24 -34 -24h-406c-19 0 -24 15 -24 36v564c0 20 5 36 24 36h406c23 0 34 -9 34 -28s-12 -24 -34 -24h-378v-200h259c20 0 36 -6 36 -28c0 -19 -14 -24 -36 -24h-259zM375 770l-70 -69c-8 -9 -16 -13 -24 -13
c-14 0 -26 13 -26 24c0 10 6 18 13 26l69 68c8 9 17 13 25 13c16 0 25 -16 25 -25s-5 -16 -12 -24z" />
    <glyph glyph-name="Ecircumflex" unicode="&#xca;" 
d="M136 332v-280h378c23 0 34 -9 34 -28s-12 -24 -34 -24h-406c-19 0 -24 15 -24 36v564c0 20 5 36 24 36h406c23 0 34 -9 34 -28s-12 -24 -34 -24h-378v-200h259c20 0 36 -6 36 -28c0 -19 -14 -24 -36 -24h-259zM176 687l105 132h59l107 -132c3 -4 6 -12 6 -18
c0 -7 -2 -23 -23 -23c-14 0 -19 10 -28 20l-91 96l-90 -96c-9 -10 -14 -20 -28 -20c-21 0 -23 16 -23 23c0 6 3 14 6 18z" />
    <glyph glyph-name="Edieresis" unicode="&#xcb;" 
d="M136 332v-280h378c23 0 34 -9 34 -28s-12 -24 -34 -24h-406c-19 0 -24 15 -24 36v564c0 20 5 36 24 36h406c23 0 34 -9 34 -28s-12 -24 -34 -24h-378v-200h259c20 0 36 -6 36 -28c0 -19 -14 -24 -36 -24h-259zM239 784c19 0 51 -17 51 -41c0 -25 -32 -41 -51 -41
c-20 0 -51 16 -51 41c0 24 31 41 51 41zM385 784c19 0 51 -17 51 -41c0 -25 -32 -41 -51 -41c-20 0 -51 16 -51 41c0 24 31 41 51 41z" />
    <glyph glyph-name="Igrave" unicode="&#xcc;" horiz-adv-x="220" 
d="M136 25c0 -16 -5 -32 -27 -32c-10 0 -25 5 -25 32v585c0 29 16 33 26 33s26 -4 26 -33v-585zM30 819c8 0 16 -4 24 -13l70 -69c7 -8 12 -15 12 -25s-10 -24 -25 -24c-8 0 -17 4 -25 13l-69 68c-8 9 -13 16 -13 25c0 10 12 25 26 25z" />
    <glyph glyph-name="Iacute" unicode="&#xcd;" horiz-adv-x="220" 
d="M136 25c0 -16 -5 -32 -27 -32c-10 0 -25 5 -25 32v585c0 29 16 33 26 33s26 -4 26 -33v-585zM205 770l-70 -69c-8 -9 -16 -13 -24 -13c-14 0 -26 13 -26 24c0 10 6 18 13 26l69 68c8 9 17 13 25 13c16 0 25 -16 25 -25s-5 -16 -12 -24z" />
    <glyph glyph-name="Icircumflex" unicode="&#xce;" horiz-adv-x="220" 
d="M136 25c0 -16 -5 -32 -27 -32c-10 0 -25 5 -25 32v585c0 29 16 33 26 33s26 -4 26 -33v-585zM-24 687l105 132h59l107 -132c3 -4 6 -12 6 -18c0 -7 -2 -23 -23 -23c-14 0 -19 10 -28 20l-91 96l-90 -96c-9 -10 -14 -20 -28 -20c-21 0 -23 16 -23 23c0 6 3 14 6 18z" />
    <glyph glyph-name="Idieresis" unicode="&#xcf;" horiz-adv-x="220" 
d="M136 25c0 -16 -5 -32 -27 -32c-10 0 -25 5 -25 32v585c0 29 16 33 26 33s26 -4 26 -33v-585zM38 784c19 0 51 -17 51 -41c0 -25 -32 -41 -51 -41c-20 0 -51 16 -51 41c0 24 31 41 51 41zM184 784c19 0 51 -17 51 -41c0 -25 -32 -41 -51 -41c-20 0 -51 16 -51 41
c0 24 31 41 51 41z" />
    <glyph glyph-name="Eth" unicode="&#xd0;" horiz-adv-x="620" 
d="M496 180v276c0 117 -50 128 -164 128h-196v-233h104c22 0 34 -10 34 -27c0 -16 -13 -26 -34 -26h-104v-246h190c120 0 170 11 170 128zM548 456v-276c0 -154 -84 -180 -222 -180h-218c-19 0 -24 16 -24 36v262c-23 0 -32 11 -32 28c0 10 5 25 32 25v249c0 20 5 36 24 36
h224c132 0 216 -26 216 -180z" />
    <glyph glyph-name="Ntilde" unicode="&#xd1;" horiz-adv-x="632" 
d="M523 -7c-8 0 -16 2 -20 7l-367 543v-517c0 -22 -7 -33 -26 -33c-21 0 -26 16 -26 34v581c0 20 5 35 24 35c12 0 21 -5 30 -19l358 -528v511c0 19 5 36 25 36c22 0 27 -16 27 -35v-581c0 -19 -5 -34 -25 -34zM369 758c2 0 4 1 8 4l31 28c7 5 13 9 22 9c12 0 26 -8 26 -23
c0 -8 -4 -18 -14 -27l-47 -39c-5 -5 -11 -8 -19 -8c-5 0 -11 2 -12 2l-98 36c-1 1 -4 2 -6 2s-4 -1 -8 -4l-31 -28c-7 -5 -13 -9 -22 -9c-11 0 -25 9 -25 24c0 10 5 19 14 26l46 38c5 6 12 9 19 9c4 0 11 -2 13 -2l98 -36c3 -2 5 -2 5 -2z" />
    <glyph glyph-name="Ograve" unicode="&#xd2;" horiz-adv-x="594" 
d="M297 -9c-133 0 -232 86 -232 237v180c0 151 99 237 232 237c132 0 232 -86 232 -237v-180c0 -151 -100 -237 -232 -237zM297 593c-115 0 -180 -70 -180 -186v-178c0 -117 65 -186 180 -186s180 69 180 186v178c0 116 -65 186 -180 186zM216 819c8 0 16 -4 24 -13l70 -69
c7 -8 12 -15 12 -25s-10 -24 -25 -24c-8 0 -17 4 -25 13l-69 68c-8 9 -13 16 -13 25c0 10 12 25 26 25z" />
    <glyph glyph-name="Oacute" unicode="&#xd3;" horiz-adv-x="594" 
d="M297 -9c-133 0 -232 86 -232 237v180c0 151 99 237 232 237c132 0 232 -86 232 -237v-180c0 -151 -100 -237 -232 -237zM297 593c-115 0 -180 -70 -180 -186v-178c0 -117 65 -186 180 -186s180 69 180 186v178c0 116 -65 186 -180 186zM391 770l-70 -69
c-8 -9 -16 -13 -24 -13c-14 0 -26 13 -26 24c0 10 6 18 13 26l69 68c8 9 17 13 25 13c16 0 25 -16 25 -25s-5 -16 -12 -24z" />
    <glyph glyph-name="Ocircumflex" unicode="&#xd4;" horiz-adv-x="594" 
d="M297 -9c-133 0 -232 86 -232 237v180c0 151 99 237 232 237c132 0 232 -86 232 -237v-180c0 -151 -100 -237 -232 -237zM297 593c-115 0 -180 -70 -180 -186v-178c0 -117 65 -186 180 -186s180 69 180 186v178c0 116 -65 186 -180 186zM162 687l105 132h59l107 -132
c3 -4 6 -12 6 -18c0 -7 -2 -23 -23 -23c-14 0 -19 10 -28 20l-91 96l-90 -96c-9 -10 -14 -20 -28 -20c-21 0 -23 16 -23 23c0 6 3 14 6 18z" />
    <glyph glyph-name="Otilde" unicode="&#xd5;" horiz-adv-x="594" 
d="M297 -9c-133 0 -232 86 -232 237v180c0 151 99 237 232 237c132 0 232 -86 232 -237v-180c0 -151 -100 -237 -232 -237zM297 593c-115 0 -180 -70 -180 -186v-178c0 -117 65 -186 180 -186s180 69 180 186v178c0 116 -65 186 -180 186zM351 758c2 0 4 1 8 4l31 28
c7 5 13 9 22 9c12 0 26 -8 26 -23c0 -8 -4 -18 -14 -27l-47 -39c-5 -5 -11 -8 -19 -8c-5 0 -11 2 -12 2l-98 36c-1 1 -4 2 -6 2s-4 -1 -8 -4l-31 -28c-7 -5 -13 -9 -22 -9c-11 0 -25 9 -25 24c0 10 5 19 14 26l46 38c5 6 12 9 19 9c4 0 11 -2 13 -2l98 -36c3 -2 5 -2 5 -2z
" />
    <glyph glyph-name="Odieresis" unicode="&#xd6;" horiz-adv-x="594" 
d="M297 -9c-133 0 -232 86 -232 237v180c0 151 99 237 232 237c132 0 232 -86 232 -237v-180c0 -151 -100 -237 -232 -237zM297 593c-115 0 -180 -70 -180 -186v-178c0 -117 65 -186 180 -186s180 69 180 186v178c0 116 -65 186 -180 186zM225 784c19 0 51 -17 51 -41
c0 -25 -32 -41 -51 -41c-20 0 -51 16 -51 41c0 24 31 41 51 41zM371 784c19 0 51 -17 51 -41c0 -25 -32 -41 -51 -41c-20 0 -51 16 -51 41c0 24 31 41 51 41z" />
    <glyph glyph-name="multiply" unicode="&#xd7;" horiz-adv-x="493" 
d="M71 382c0 11 10 24 24 24c6 0 15 -3 24 -12l127 -128l128 127c7 7 15 12 24 12c11 0 24 -10 24 -24c0 -6 -3 -15 -12 -24l-128 -127l127 -128c8 -7 13 -16 13 -24c0 -11 -11 -24 -25 -24c-7 0 -15 3 -24 12l-127 128l-128 -127c-7 -8 -16 -13 -24 -13
c-11 0 -24 11 -24 25c0 7 3 15 12 24l128 127l-127 128c-7 7 -12 15 -12 24z" />
    <glyph glyph-name="Oslash" unicode="&#xd8;" horiz-adv-x="594" 
d="M297 593c-115 0 -180 -71 -180 -189v-182c0 -46 9 -84 28 -114l270 450c-31 23 -70 35 -118 35zM475 638c5 0 26 -5 26 -25c0 -8 -5 -18 -6 -20l-17 -27c33 -40 51 -93 51 -158v-180c0 -151 -100 -237 -232 -237c-54 0 -104 14 -141 42l-10 -16c-6 -12 -16 -19 -26 -19
c-5 0 -25 5 -25 24c0 8 5 19 6 21l15 25c-33 40 -51 94 -51 160v180c0 151 99 237 232 237c54 0 105 -14 143 -43l10 17c6 13 15 19 25 19zM477 414c0 45 -9 83 -27 112l-270 -449c30 -22 69 -34 117 -34c115 0 180 70 180 189v182z" />
    <glyph glyph-name="Ugrave" unicode="&#xd9;" horiz-adv-x="620" 
d="M490 611c0 27 16 32 27 32c20 0 25 -17 25 -33v-382c0 -151 -100 -237 -232 -237c-133 0 -232 86 -232 237v382c0 29 16 33 26 33s26 -4 26 -32v-382c0 -117 65 -186 180 -186s180 69 180 186v382zM229 809c8 0 16 -5 25 -15l96 -115c6 -7 9 -14 9 -23
c0 -16 -15 -25 -25 -25c-8 0 -16 5 -25 15l-96 115c-6 7 -9 15 -9 22c0 16 14 26 25 26z" />
    <glyph glyph-name="Uacute" unicode="&#xda;" horiz-adv-x="620" 
d="M490 611c0 27 16 32 27 32c20 0 25 -17 25 -33v-382c0 -151 -100 -237 -232 -237c-133 0 -232 86 -232 237v382c0 29 16 33 26 33s26 -4 26 -32v-382c0 -117 65 -186 180 -186s180 69 180 186v382zM431 761l-96 -115c-9 -10 -17 -15 -25 -15c-10 0 -25 10 -25 25
c0 9 3 16 9 23l96 115c9 10 17 15 25 15c11 0 25 -10 25 -26c0 -7 -3 -15 -9 -22z" />
    <glyph glyph-name="Ucircumflex" unicode="&#xdb;" horiz-adv-x="620" 
d="M490 611c0 27 16 32 27 32c20 0 25 -17 25 -33v-382c0 -151 -100 -237 -232 -237c-133 0 -232 86 -232 237v382c0 29 16 33 26 33s26 -4 26 -32v-382c0 -117 65 -186 180 -186s180 69 180 186v382zM175 687l105 132h59l107 -132c3 -4 6 -12 6 -18c0 -7 -2 -23 -23 -23
c-14 0 -19 10 -28 20l-91 96l-90 -96c-9 -10 -14 -20 -28 -20c-21 0 -23 16 -23 23c0 6 3 14 6 18z" />
    <glyph glyph-name="Udieresis" unicode="&#xdc;" horiz-adv-x="620" 
d="M490 611c0 27 16 32 27 32c20 0 25 -17 25 -33v-382c0 -151 -100 -237 -232 -237c-133 0 -232 86 -232 237v382c0 29 16 33 26 33s26 -4 26 -32v-382c0 -117 65 -186 180 -186s180 69 180 186v382zM238 784c19 0 51 -17 51 -41c0 -25 -32 -41 -51 -41
c-20 0 -51 16 -51 41c0 24 31 41 51 41zM384 784c19 0 51 -17 51 -41c0 -25 -32 -41 -51 -41c-20 0 -51 16 -51 41c0 24 31 41 51 41z" />
    <glyph glyph-name="Yacute" unicode="&#xdd;" horiz-adv-x="521" 
d="M234 308l-209 289c-4 6 -8 13 -8 21c0 16 15 25 25 25s18 -9 25 -18l193 -267l192 267c11 15 21 18 26 18c10 0 25 -10 25 -25c0 -8 -4 -15 -8 -21l-208 -289v-284c0 -15 -5 -31 -27 -31c-10 0 -26 5 -26 31v284zM381 761l-96 -115c-9 -10 -17 -15 -25 -15
c-10 0 -25 10 -25 25c0 9 3 16 9 23l96 115c9 10 17 15 25 15c11 0 25 -10 25 -26c0 -7 -3 -15 -9 -22z" />
    <glyph glyph-name="Thorn" unicode="&#xde;" horiz-adv-x="520" 
d="M136 466h175c108 0 174 -52 174 -153c0 -102 -67 -154 -175 -154h-174v-134c0 -16 -5 -32 -27 -32c-10 0 -25 5 -25 32v548c0 29 16 33 26 33s26 -4 26 -33v-107zM266 414h-130v-206h129c118 0 167 14 167 103c0 87 -49 103 -166 103z" />
    <glyph glyph-name="germandbls" unicode="&#xdf;" horiz-adv-x="464" 
d="M163 353v51c124 0 143 71 143 118c0 37 -29 62 -81 62c-67 0 -110 -10 -110 -123v-432c0 -20 -6 -36 -28 -36c-19 0 -24 16 -24 36v381c-18 1 -31 7 -31 27c0 16 11 23 31 24c3 151 85 175 162 175c92 0 133 -60 133 -116c0 -61 -29 -108 -74 -137
c103 -30 142 -103 142 -187c0 -172 -82 -216 -151 -216c-50 0 -123 34 -123 111c0 26 11 36 28 36c19 0 28 -11 28 -34c0 -49 44 -61 76 -61c37 0 90 25 90 165c0 62 -37 156 -211 156z" />
    <glyph glyph-name="agrave" unicode="&#xe0;" horiz-adv-x="554" 
d="M283 243c-121 0 -171 -10 -171 -125c0 -35 28 -66 55 -66h93c113 0 170 63 170 176v15h-147zM283 295h147v57c0 40 -11 57 -55 57h-141c-73 0 -122 -15 -122 -60c0 -21 -5 -35 -27 -35c-15 0 -25 10 -25 35c0 81 74 112 167 112h155c80 0 100 -36 100 -126v-308
c0 -18 -5 -34 -26 -34s-26 17 -26 35v35c-39 -43 -102 -63 -170 -63h-93c-61 0 -107 47 -107 123c0 144 85 172 223 172zM190 680c8 0 16 -5 25 -15l96 -115c6 -7 9 -14 9 -23c0 -16 -15 -25 -25 -25c-8 0 -16 5 -25 15l-96 115c-6 7 -9 15 -9 22c0 16 14 26 25 26z" />
    <glyph glyph-name="aacute" unicode="&#xe1;" horiz-adv-x="554" 
d="M283 243c-121 0 -171 -10 -171 -125c0 -35 28 -66 55 -66h93c113 0 170 63 170 176v15h-147zM283 295h147v57c0 40 -11 57 -55 57h-141c-73 0 -122 -15 -122 -60c0 -21 -5 -35 -27 -35c-15 0 -25 10 -25 35c0 81 74 112 167 112h155c80 0 100 -36 100 -126v-308
c0 -18 -5 -34 -26 -34s-26 17 -26 35v35c-39 -43 -102 -63 -170 -63h-93c-61 0 -107 47 -107 123c0 144 85 172 223 172zM392 635l-96 -115c-9 -10 -17 -15 -25 -15c-10 0 -25 10 -25 25c0 9 3 16 9 23l96 115c9 10 17 15 25 15c11 0 25 -10 25 -26c0 -7 -3 -15 -9 -22z" />
    <glyph glyph-name="acircumflex" unicode="&#xe2;" horiz-adv-x="554" 
d="M283 243c-121 0 -171 -10 -171 -125c0 -35 28 -66 55 -66h93c113 0 170 63 170 176v15h-147zM283 295h147v57c0 40 -11 57 -55 57h-141c-73 0 -122 -15 -122 -60c0 -21 -5 -35 -27 -35c-15 0 -25 10 -25 35c0 81 74 112 167 112h155c80 0 100 -36 100 -126v-308
c0 -18 -5 -34 -26 -34s-26 17 -26 35v35c-39 -43 -102 -63 -170 -63h-93c-61 0 -107 47 -107 123c0 144 85 172 223 172zM136 558l105 132h59l107 -132c3 -4 6 -12 6 -18c0 -7 -2 -23 -23 -23c-14 0 -19 10 -28 20l-91 96l-90 -96c-9 -10 -14 -20 -28 -20
c-21 0 -23 16 -23 23c0 6 3 14 6 18z" />
    <glyph glyph-name="atilde" unicode="&#xe3;" horiz-adv-x="554" 
d="M283 243c-121 0 -171 -10 -171 -125c0 -35 28 -66 55 -66h93c113 0 170 63 170 176v15h-147zM283 295h147v57c0 40 -11 57 -55 57h-141c-73 0 -122 -15 -122 -60c0 -21 -5 -35 -27 -35c-15 0 -25 10 -25 35c0 81 74 112 167 112h155c80 0 100 -36 100 -126v-308
c0 -18 -5 -34 -26 -34s-26 17 -26 35v35c-39 -43 -102 -63 -170 -63h-93c-61 0 -107 47 -107 123c0 144 85 172 223 172zM326 574c2 0 4 1 8 4l31 28c7 5 13 9 22 9c12 0 26 -8 26 -23c0 -8 -4 -18 -14 -27l-47 -39c-5 -5 -11 -8 -19 -8c-5 0 -11 2 -12 2l-98 36
c-1 1 -4 2 -6 2s-4 -1 -8 -4l-31 -28c-7 -5 -13 -9 -22 -9c-11 0 -25 9 -25 24c0 10 5 19 14 26l46 38c5 6 12 9 19 9c4 0 11 -2 13 -2l98 -36c3 -2 5 -2 5 -2z" />
    <glyph glyph-name="adieresis" unicode="&#xe4;" horiz-adv-x="554" 
d="M283 243c-121 0 -171 -10 -171 -125c0 -35 28 -66 55 -66h93c113 0 170 63 170 176v15h-147zM283 295h147v57c0 40 -11 57 -55 57h-141c-73 0 -122 -15 -122 -60c0 -21 -5 -35 -27 -35c-15 0 -25 10 -25 35c0 81 74 112 167 112h155c80 0 100 -36 100 -126v-308
c0 -18 -5 -34 -26 -34s-26 17 -26 35v35c-39 -43 -102 -63 -170 -63h-93c-61 0 -107 47 -107 123c0 144 85 172 223 172zM198 599c19 0 51 -17 51 -41c0 -25 -32 -41 -51 -41c-20 0 -51 16 -51 41c0 24 31 41 51 41zM344 599c19 0 51 -17 51 -41c0 -25 -32 -41 -51 -41
c-20 0 -51 16 -51 41c0 24 31 41 51 41z" />
    <glyph glyph-name="aring" unicode="&#xe5;" horiz-adv-x="554" 
d="M283 243c-121 0 -171 -10 -171 -125c0 -35 28 -66 55 -66h93c113 0 170 63 170 176v15h-147zM283 295h147v57c0 40 -11 57 -55 57h-141c-73 0 -122 -15 -122 -60c0 -21 -5 -35 -27 -35c-15 0 -25 10 -25 35c0 81 74 112 167 112h155c80 0 100 -36 100 -126v-308
c0 -18 -5 -34 -26 -34s-26 17 -26 35v35c-39 -43 -102 -63 -170 -63h-93c-61 0 -107 47 -107 123c0 144 85 172 223 172zM228 598c0 -24 20 -44 44 -44c23 0 44 20 44 44s-22 44 -44 44c-24 0 -44 -21 -44 -44zM272 679c45 0 81 -36 81 -81s-36 -81 -81 -81s-81 36 -81 81
s36 81 81 81z" />
    <glyph glyph-name="ae" unicode="&#xe6;" horiz-adv-x="944" 
d="M283 243c-121 0 -171 -10 -171 -125c0 -35 28 -66 55 -66h93c113 0 170 63 170 176v15h-147zM662 409h-8c-119 0 -169 -13 -171 -114h349c-2 101 -52 114 -170 114zM884 285v-42h-401v-66c0 -115 50 -125 171 -125h123c44 0 55 18 55 62c0 29 16 33 26 33
c18 0 26 -12 26 -36c0 -53 -10 -111 -100 -111h-130c-101 0 -173 14 -205 78c-39 -52 -130 -78 -189 -78h-93c-61 0 -107 47 -107 123c0 144 85 172 223 172h147v57c0 40 -11 57 -55 57h-141c-73 0 -122 -15 -122 -60c0 -21 -5 -35 -27 -35c-15 0 -25 10 -25 35
c0 81 74 112 167 112h155c50 0 77 -14 90 -47c37 38 100 47 182 47h8c138 0 222 -26 222 -176z" />
    <glyph glyph-name="ccedilla" unicode="&#xe7;" horiz-adv-x="584" 
d="M268 0c-129 2 -206 32 -206 176v109c0 150 84 176 223 176h141c90 0 100 -59 100 -112c0 -18 -5 -35 -26 -35c-10 0 -26 4 -26 33c0 48 -15 62 -55 62h-134c-121 0 -171 -10 -171 -125v-107c0 -115 50 -125 171 -125h134c44 0 55 18 55 62c0 29 16 33 26 33
c18 0 26 -12 26 -36c0 -53 -10 -111 -100 -111h-105c9 -39 68 -38 68 -94c0 -50 -44 -81 -96 -81c-22 0 -79 10 -79 50c0 11 7 18 15 18c15 0 40 -18 66 -18c32 0 42 8 42 26c0 29 -63 38 -69 99z" />
    <glyph glyph-name="egrave" unicode="&#xe8;" horiz-adv-x="592" 
d="M536 285v-40h-422v-68c0 -115 50 -125 171 -125h134c44 0 55 18 55 62c0 29 16 33 26 33c18 0 26 -12 26 -36c0 -53 -10 -111 -100 -111h-141c-139 0 -223 26 -223 176v109c0 150 84 176 223 176h29c138 0 222 -26 222 -176zM314 409h-29c-119 0 -169 -11 -171 -112h370
c-2 101 -52 112 -170 112zM216 683c8 0 16 -5 25 -15l96 -115c6 -7 9 -14 9 -23c0 -16 -15 -25 -25 -25c-8 0 -16 5 -25 15l-96 115c-6 7 -9 15 -9 22c0 16 14 26 25 26z" />
    <glyph glyph-name="eacute" unicode="&#xe9;" horiz-adv-x="592" 
d="M536 285v-40h-422v-68c0 -115 50 -125 171 -125h134c44 0 55 18 55 62c0 29 16 33 26 33c18 0 26 -12 26 -36c0 -53 -10 -111 -100 -111h-141c-139 0 -223 26 -223 176v109c0 150 84 176 223 176h29c138 0 222 -26 222 -176zM314 409h-29c-119 0 -169 -11 -171 -112h370
c-2 101 -52 112 -170 112zM421 635l-96 -115c-9 -10 -17 -15 -25 -15c-10 0 -25 10 -25 25c0 9 3 16 9 23l96 115c9 10 17 15 25 15c11 0 25 -10 25 -26c0 -7 -3 -15 -9 -22z" />
    <glyph glyph-name="ecircumflex" unicode="&#xea;" horiz-adv-x="592" 
d="M536 285v-40h-422v-68c0 -115 50 -125 171 -125h134c44 0 55 18 55 62c0 29 16 33 26 33c18 0 26 -12 26 -36c0 -53 -10 -111 -100 -111h-141c-139 0 -223 26 -223 176v109c0 150 84 176 223 176h29c138 0 222 -26 222 -176zM314 409h-29c-119 0 -169 -11 -171 -112h370
c-2 101 -52 112 -170 112zM164 558l105 132h59l107 -132c3 -4 6 -12 6 -18c0 -7 -2 -23 -23 -23c-14 0 -19 10 -28 20l-91 96l-90 -96c-9 -10 -14 -20 -28 -20c-21 0 -23 16 -23 23c0 6 3 14 6 18z" />
    <glyph glyph-name="edieresis" unicode="&#xeb;" horiz-adv-x="592" 
d="M536 285v-40h-422v-68c0 -115 50 -125 171 -125h134c44 0 55 18 55 62c0 29 16 33 26 33c18 0 26 -12 26 -36c0 -53 -10 -111 -100 -111h-141c-139 0 -223 26 -223 176v109c0 150 84 176 223 176h29c138 0 222 -26 222 -176zM314 409h-29c-119 0 -169 -11 -171 -112h370
c-2 101 -52 112 -170 112zM227 599c19 0 51 -17 51 -41c0 -25 -32 -41 -51 -41c-20 0 -51 16 -51 41c0 24 31 41 51 41zM373 599c19 0 51 -17 51 -41c0 -25 -32 -41 -51 -41c-20 0 -51 16 -51 41c0 24 31 41 51 41z" />
    <glyph glyph-name="igrave" unicode="&#xec;" horiz-adv-x="200" 
d="M99 -12c-10 0 -25 5 -25 32v420c0 29 16 33 26 33s26 -4 26 -33v-420c0 -16 -5 -32 -27 -32zM-4 684c8 0 16 -5 25 -15l96 -115c6 -7 9 -14 9 -23c0 -16 -15 -25 -25 -25c-8 0 -16 5 -25 15l-96 115c-6 7 -9 15 -9 22c0 16 14 26 25 26z" />
    <glyph glyph-name="iacute" unicode="&#xed;" horiz-adv-x="200" 
d="M99 -12c-10 0 -25 5 -25 32v420c0 29 16 33 26 33s26 -4 26 -33v-420c0 -16 -5 -32 -27 -32zM220 635l-96 -115c-9 -10 -17 -15 -25 -15c-10 0 -25 10 -25 25c0 9 3 16 9 23l96 115c9 10 17 15 25 15c11 0 25 -10 25 -26c0 -7 -3 -15 -9 -22z" />
    <glyph glyph-name="icircumflex" unicode="&#xee;" horiz-adv-x="200" 
d="M99 -12c-10 0 -25 5 -25 32v420c0 29 16 33 26 33s26 -4 26 -33v-420c0 -16 -5 -32 -27 -32zM-35 565l105 132h59l107 -132c3 -4 6 -12 6 -18c0 -7 -2 -23 -23 -23c-14 0 -19 10 -28 20l-91 96l-90 -96c-9 -10 -14 -20 -28 -20c-21 0 -23 16 -23 23c0 6 3 14 6 18z" />
    <glyph glyph-name="idieresis" unicode="&#xef;" horiz-adv-x="200" 
d="M99 -12c-10 0 -25 5 -25 32v420c0 29 16 33 26 33s26 -4 26 -33v-420c0 -16 -5 -32 -27 -32zM27 606c19 0 51 -17 51 -41c0 -25 -32 -41 -51 -41c-20 0 -51 16 -51 41c0 24 31 41 51 41zM173 606c19 0 51 -17 51 -41c0 -25 -32 -41 -51 -41c-20 0 -51 16 -51 41
c0 24 31 41 51 41z" />
    <glyph glyph-name="eth" unicode="&#xf0;" horiz-adv-x="566" 
d="M153 583c-26 0 -31 15 -31 25c0 22 16 28 31 28c45 0 91 -8 135 -26l33 32c6 5 16 12 26 12c11 0 26 -10 26 -24c0 -9 -4 -16 -13 -25l-21 -20c99 -61 172 -176 172 -363c0 -123 -76 -238 -216 -238c-143 0 -248 86 -248 236c0 151 105 236 248 236c53 0 95 -15 126 -39
c-30 64 -76 105 -122 129l-50 -47c-5 -5 -15 -12 -24 -12c-11 0 -28 10 -28 25c0 9 8 18 14 24l34 32c-35 12 -68 15 -92 15zM459 221c0 91 -46 183 -164 183c-121 0 -196 -77 -196 -184c0 -106 74 -184 196 -184c117 0 164 107 164 185z" />
    <glyph glyph-name="ntilde" unicode="&#xf1;" horiz-adv-x="618" 
d="M297 409c-114 0 -171 -63 -171 -178v-204c0 -22 -7 -34 -26 -34c-21 0 -26 16 -26 34v406c0 20 5 35 24 35c22 0 28 -16 28 -36v-34c40 43 102 63 171 63h29c138 0 222 -26 222 -176v-258c0 -19 -5 -34 -25 -34c-11 0 -27 4 -27 34v257c0 115 -50 125 -170 125h-29z
M365 581c2 0 4 1 8 4l31 28c7 5 13 9 22 9c12 0 26 -8 26 -23c0 -8 -4 -18 -14 -27l-47 -39c-5 -5 -11 -8 -19 -8c-5 0 -11 2 -12 2l-98 36c-1 1 -4 2 -6 2s-4 -1 -8 -4l-31 -28c-7 -5 -13 -9 -22 -9c-11 0 -25 9 -25 24c0 10 5 19 14 26l46 38c5 6 12 9 19 9
c4 0 11 -2 13 -2l98 -36c3 -2 5 -2 5 -2z" />
    <glyph glyph-name="ograve" unicode="&#xf2;" 
d="M314 0h-29c-139 0 -223 26 -223 176v109c0 150 84 176 223 176h29c138 0 222 -26 222 -176v-109c0 -150 -84 -176 -222 -176zM285 52h29c120 0 170 10 170 125v107c0 115 -50 125 -170 125h-29c-121 0 -171 -10 -171 -125v-107c0 -115 50 -125 171 -125zM218 683
c8 0 16 -5 25 -15l96 -115c6 -7 9 -14 9 -23c0 -16 -15 -25 -25 -25c-8 0 -16 5 -25 15l-96 115c-6 7 -9 15 -9 22c0 16 14 26 25 26z" />
    <glyph glyph-name="oacute" unicode="&#xf3;" 
d="M314 0h-29c-139 0 -223 26 -223 176v109c0 150 84 176 223 176h29c138 0 222 -26 222 -176v-109c0 -150 -84 -176 -222 -176zM285 52h29c120 0 170 10 170 125v107c0 115 -50 125 -170 125h-29c-121 0 -171 -10 -171 -125v-107c0 -115 50 -125 171 -125zM419 635
l-96 -115c-9 -10 -17 -15 -25 -15c-10 0 -25 10 -25 25c0 9 3 16 9 23l96 115c9 10 17 15 25 15c11 0 25 -10 25 -26c0 -7 -3 -15 -9 -22z" />
    <glyph glyph-name="ocircumflex" unicode="&#xf4;" 
d="M314 0h-29c-139 0 -223 26 -223 176v109c0 150 84 176 223 176h29c138 0 222 -26 222 -176v-109c0 -150 -84 -176 -222 -176zM285 52h29c120 0 170 10 170 125v107c0 115 -50 125 -170 125h-29c-121 0 -171 -10 -171 -125v-107c0 -115 50 -125 171 -125zM164 558l105 132
h59l107 -132c3 -4 6 -12 6 -18c0 -7 -2 -23 -23 -23c-14 0 -19 10 -28 20l-91 96l-90 -96c-9 -10 -14 -20 -28 -20c-21 0 -23 16 -23 23c0 6 3 14 6 18z" />
    <glyph glyph-name="otilde" unicode="&#xf5;" 
d="M314 0h-29c-139 0 -223 26 -223 176v109c0 150 84 176 223 176h29c138 0 222 -26 222 -176v-109c0 -150 -84 -176 -222 -176zM285 52h29c120 0 170 10 170 125v107c0 115 -50 125 -170 125h-29c-121 0 -171 -10 -171 -125v-107c0 -115 50 -125 171 -125zM353 574
c2 0 4 1 8 4l31 28c7 5 13 9 22 9c12 0 26 -8 26 -23c0 -8 -4 -18 -14 -27l-47 -39c-5 -5 -11 -8 -19 -8c-5 0 -11 2 -12 2l-98 36c-1 1 -4 2 -6 2s-4 -1 -8 -4l-31 -28c-7 -5 -13 -9 -22 -9c-11 0 -25 9 -25 24c0 10 5 19 14 26l46 38c5 6 12 9 19 9c4 0 11 -2 13 -2
l98 -36c3 -2 5 -2 5 -2z" />
    <glyph glyph-name="odieresis" unicode="&#xf6;" 
d="M314 0h-29c-139 0 -223 26 -223 176v109c0 150 84 176 223 176h29c138 0 222 -26 222 -176v-109c0 -150 -84 -176 -222 -176zM285 52h29c120 0 170 10 170 125v107c0 115 -50 125 -170 125h-29c-121 0 -171 -10 -171 -125v-107c0 -115 50 -125 171 -125zM227 599
c19 0 51 -17 51 -41c0 -25 -32 -41 -51 -41c-20 0 -51 16 -51 41c0 24 31 41 51 41zM373 599c19 0 51 -17 51 -41c0 -25 -32 -41 -51 -41c-20 0 -51 16 -51 41c0 24 31 41 51 41z" />
    <glyph glyph-name="divide" unicode="&#xf7;" horiz-adv-x="439" 
d="M64 231c0 10 5 26 31 26h245c21 0 34 -10 34 -28c0 -15 -14 -25 -34 -25h-245c-23 0 -31 13 -31 27zM215 169c19 0 51 -17 51 -41c0 -25 -32 -41 -51 -41c-20 0 -51 16 -51 41c0 24 31 41 51 41zM215 374c19 0 51 -17 51 -41c0 -25 -32 -41 -51 -41c-20 0 -51 16 -51 41
c0 24 31 41 51 41z" />
    <glyph glyph-name="oslash" unicode="&#xf8;" 
d="M492 469c12 0 26 -10 26 -25c0 -9 -6 -17 -10 -23l-9 -10c24 -27 37 -68 37 -126v-109c0 -150 -84 -176 -222 -176h-29c-57 0 -106 4 -142 19l-11 -12c-8 -9 -15 -15 -25 -15s-26 10 -26 25c0 5 3 13 11 23l8 9c-25 28 -38 68 -38 127v109c0 150 84 176 223 176h29
c57 0 107 -4 143 -21l10 14c7 9 15 15 25 15zM285 52h29c120 0 170 11 170 128v111c0 43 -7 71 -19 89l-287 -319c26 -7 63 -9 107 -9zM114 170c0 -43 7 -71 20 -90l287 320c-26 7 -61 9 -107 9h-29c-121 0 -171 -11 -171 -128v-111z" />
    <glyph glyph-name="ugrave" unicode="&#xf9;" horiz-adv-x="618" 
d="M321 52c114 0 171 63 171 178v204c0 22 7 34 26 34c21 0 26 -16 26 -34v-406c0 -20 -5 -35 -24 -35c-22 0 -28 16 -28 36v34c-40 -43 -102 -63 -171 -63h-29c-138 0 -222 26 -222 176v258c0 19 5 34 25 34c11 0 27 -4 27 -34v-257c0 -115 50 -125 170 -125h29zM225 683
c8 0 16 -5 25 -15l96 -115c6 -7 9 -14 9 -23c0 -16 -15 -25 -25 -25c-8 0 -16 5 -25 15l-96 115c-6 7 -9 15 -9 22c0 16 14 26 25 26z" />
    <glyph glyph-name="uacute" unicode="&#xfa;" horiz-adv-x="618" 
d="M321 52c114 0 171 63 171 178v204c0 22 7 34 26 34c21 0 26 -16 26 -34v-406c0 -20 -5 -35 -24 -35c-22 0 -28 16 -28 36v34c-40 -43 -102 -63 -171 -63h-29c-138 0 -222 26 -222 176v258c0 19 5 34 25 34c11 0 27 -4 27 -34v-257c0 -115 50 -125 170 -125h29zM428 635
l-96 -115c-9 -10 -17 -15 -25 -15c-10 0 -25 10 -25 25c0 9 3 16 9 23l96 115c9 10 17 15 25 15c11 0 25 -10 25 -26c0 -7 -3 -15 -9 -22z" />
    <glyph glyph-name="ucircumflex" unicode="&#xfb;" horiz-adv-x="618" 
d="M321 52c114 0 171 63 171 178v204c0 22 7 34 26 34c21 0 26 -16 26 -34v-406c0 -20 -5 -35 -24 -35c-22 0 -28 16 -28 36v34c-40 -43 -102 -63 -171 -63h-29c-138 0 -222 26 -222 176v258c0 19 5 34 25 34c11 0 27 -4 27 -34v-257c0 -115 50 -125 170 -125h29zM171 565
l105 132h59l107 -132c3 -4 6 -12 6 -18c0 -7 -2 -23 -23 -23c-14 0 -19 10 -28 20l-91 96l-90 -96c-9 -10 -14 -20 -28 -20c-21 0 -23 16 -23 23c0 6 3 14 6 18z" />
    <glyph glyph-name="udieresis" unicode="&#xfc;" horiz-adv-x="618" 
d="M321 52c114 0 171 63 171 178v204c0 22 7 34 26 34c21 0 26 -16 26 -34v-406c0 -20 -5 -35 -24 -35c-22 0 -28 16 -28 36v34c-40 -43 -102 -63 -171 -63h-29c-138 0 -222 26 -222 176v258c0 19 5 34 25 34c11 0 27 -4 27 -34v-257c0 -115 50 -125 170 -125h29zM234 606
c19 0 51 -17 51 -41c0 -25 -32 -41 -51 -41c-20 0 -51 16 -51 41c0 24 31 41 51 41zM380 606c19 0 51 -17 51 -41c0 -25 -32 -41 -51 -41c-20 0 -51 16 -51 41c0 24 31 41 51 41z" />
    <glyph glyph-name="yacute" unicode="&#xfd;" horiz-adv-x="619" 
d="M544 -87c0 -83 -18 -118 -91 -118h-283c-90 0 -100 59 -100 112c0 18 5 35 26 35c18 0 26 -11 26 -33c0 -48 15 -62 55 -62h269c39 0 46 11 46 50v166c-40 -43 -102 -63 -171 -63h-29c-138 0 -222 26 -222 176v258c0 19 5 34 25 34c11 0 27 -4 27 -34v-257
c0 -115 50 -125 170 -125h29c114 0 171 63 171 178v204c0 22 7 34 26 34c21 0 26 -16 26 -34v-521zM429 635l-96 -115c-9 -10 -17 -15 -25 -15c-10 0 -25 10 -25 25c0 9 3 16 9 23l96 115c9 10 17 15 25 15c11 0 25 -10 25 -26c0 -7 -3 -15 -9 -22z" />
    <glyph glyph-name="thorn" unicode="&#xfe;" horiz-adv-x="611" 
d="M497 284c0 115 -50 125 -170 125h-29c-114 0 -171 -62 -171 -177v-180h201c119 0 169 10 169 125v107zM549 176c0 -150 -84 -176 -221 -176h-201v-147c0 -20 -6 -35 -28 -35c-19 0 -24 15 -24 35v755c0 18 5 35 26 35c19 0 26 -12 26 -35v-210c40 43 102 63 171 63h29
c138 0 222 -26 222 -176v-109z" />
    <glyph glyph-name="ydieresis" unicode="&#xff;" horiz-adv-x="619" 
d="M234 611c19 0 51 -17 51 -41c0 -25 -32 -41 -51 -41c-20 0 -51 16 -51 41c0 24 31 41 51 41zM380 611c19 0 51 -17 51 -41c0 -25 -32 -41 -51 -41c-20 0 -51 16 -51 41c0 24 31 41 51 41zM544 -87c0 -83 -18 -118 -91 -118h-283c-90 0 -100 59 -100 112c0 18 5 35 26 35
c18 0 26 -11 26 -33c0 -48 15 -62 55 -62h269c39 0 46 11 46 50v166c-40 -43 -102 -63 -171 -63h-29c-138 0 -222 26 -222 176v258c0 19 5 34 25 34c11 0 27 -4 27 -34v-257c0 -115 50 -125 170 -125h29c114 0 171 63 171 178v204c0 22 7 34 26 34c21 0 26 -16 26 -34v-521z
" />
    <glyph glyph-name="Amacron" unicode="&#x100;" horiz-adv-x="570" 
d="M130 734c0 10 5 26 31 26h245c21 0 34 -10 34 -28c0 -15 -14 -25 -34 -25h-245c-23 0 -31 13 -31 27zM316 636l227 -611c2 -6 3 -11 3 -16c0 -20 -19 -25 -26 -25c-12 0 -21 9 -27 23l-71 192h-274l-71 -192c-5 -12 -15 -23 -27 -23c-7 0 -26 5 -26 25c0 5 1 10 3 16
l227 611h62zM284 560l-116 -309h234z" />
    <glyph glyph-name="amacron" unicode="&#x101;" horiz-adv-x="554" 
d="M116 549c0 10 5 26 31 26h245c21 0 34 -10 34 -28c0 -15 -14 -25 -34 -25h-245c-23 0 -31 13 -31 27zM283 243c-121 0 -171 -10 -171 -125c0 -35 28 -66 55 -66h93c113 0 170 63 170 176v15h-147zM283 295h147v57c0 40 -11 57 -55 57h-141c-73 0 -122 -15 -122 -60
c0 -21 -5 -35 -27 -35c-15 0 -25 10 -25 35c0 81 74 112 167 112h155c80 0 100 -36 100 -126v-308c0 -18 -5 -34 -26 -34s-26 17 -26 35v35c-39 -43 -102 -63 -170 -63h-93c-61 0 -107 47 -107 123c0 144 85 172 223 172z" />
    <glyph glyph-name="Abreve" unicode="&#x102;" horiz-adv-x="570" 
d="M316 636l227 -611c2 -6 3 -11 3 -16c0 -20 -19 -25 -26 -25c-12 0 -21 9 -27 23l-71 192h-274l-71 -192c-5 -12 -15 -23 -27 -23c-7 0 -26 5 -26 25c0 5 1 10 3 16l227 611h62zM284 560l-116 -309h234zM284 688c-55 0 -120 45 -120 131h53c0 -65 41 -77 67 -77
s67 12 67 77h53c0 -87 -67 -131 -120 -131z" />
    <glyph glyph-name="abreve" unicode="&#x103;" horiz-adv-x="554" 
d="M272 522c-55 0 -120 45 -120 131h53c0 -65 41 -77 67 -77s67 12 67 77h53c0 -87 -67 -131 -120 -131zM283 243c-121 0 -171 -10 -171 -125c0 -35 28 -66 55 -66h93c113 0 170 63 170 176v15h-147zM283 295h147v57c0 40 -11 57 -55 57h-141c-73 0 -122 -15 -122 -60
c0 -21 -5 -35 -27 -35c-15 0 -25 10 -25 35c0 81 74 112 167 112h155c80 0 100 -36 100 -126v-308c0 -18 -5 -34 -26 -34s-26 17 -26 35v35c-39 -43 -102 -63 -170 -63h-93c-61 0 -107 47 -107 123c0 144 85 172 223 172z" />
    <glyph glyph-name="Aogonek" unicode="&#x104;" horiz-adv-x="569" 
d="M284 560l-116 -309h234zM50 -16c-7 0 -26 5 -26 25c0 5 1 10 3 16l231 621h54l231 -621c2 -6 3 -11 3 -16c0 -10 -6 -16 -11 -21c-29 -27 -50 -75 -50 -89c0 -27 8 -54 42 -54c29 0 51 17 66 17c7 0 15 -3 15 -17c0 -40 -57 -50 -79 -50c-54 0 -96 41 -96 104
c0 31 31 81 58 114l-69 186h-274l-71 -192c-5 -12 -15 -23 -27 -23z" />
    <glyph glyph-name="aogonek" unicode="&#x105;" horiz-adv-x="554" 
d="M283 295h147v57c0 40 -11 57 -55 57h-141c-73 0 -122 -15 -122 -60c0 -21 -5 -35 -27 -35c-15 0 -25 10 -25 35c0 81 74 112 167 112h155c80 0 100 -36 100 -126v-308c0 -13 -2 -24 -13 -31c-35 -21 -57 -80 -57 -96c0 -27 8 -54 42 -54c29 0 51 17 66 17
c7 0 15 -3 15 -17c0 -40 -57 -50 -79 -50c-54 0 -96 41 -96 104c0 35 42 97 70 129v34c-39 -43 -102 -63 -170 -63h-93c-61 0 -107 47 -107 123c0 144 85 172 223 172zM283 243c-121 0 -171 -10 -171 -125c0 -35 28 -66 55 -66h93c113 0 170 63 170 176v15h-147z" />
    <glyph glyph-name="Cacute" unicode="&#x106;" horiz-adv-x="592" 
d="M436 0h-141c-139 0 -223 26 -223 180v276c0 154 84 180 217 180h147c90 0 100 -58 100 -112c0 -18 -5 -35 -26 -35c-10 0 -26 4 -26 33c0 48 -15 62 -55 62h-140c-115 0 -165 -11 -165 -128v-276c0 -117 50 -128 171 -128h134c44 0 55 18 55 62c0 29 16 33 26 33
c18 0 26 -12 26 -36c0 -53 -10 -111 -100 -111zM406 771l-70 -69c-8 -9 -16 -13 -24 -13c-14 0 -26 13 -26 24c0 10 6 18 13 26l69 68c8 9 17 13 25 13c16 0 25 -16 25 -25s-5 -16 -12 -24z" />
    <glyph glyph-name="cacute" unicode="&#x107;" horiz-adv-x="584" 
d="M426 0h-141c-139 0 -223 26 -223 176v109c0 150 84 176 223 176h141c90 0 100 -59 100 -112c0 -18 -5 -35 -26 -35c-10 0 -26 4 -26 33c0 48 -15 62 -55 62h-134c-121 0 -171 -10 -171 -125v-107c0 -115 50 -125 171 -125h134c44 0 55 18 55 62c0 29 16 33 26 33
c18 0 26 -12 26 -36c0 -53 -10 -111 -100 -111zM404 635l-96 -115c-9 -10 -17 -15 -25 -15c-10 0 -25 10 -25 25c0 9 3 16 9 23l96 115c9 10 17 15 25 15c11 0 25 -10 25 -26c0 -7 -3 -15 -9 -22z" />
    <glyph glyph-name="Ccircumflex" unicode="&#x108;" horiz-adv-x="592" 
d="M175 687l105 132h59l107 -132c3 -4 6 -12 6 -18c0 -7 -2 -23 -23 -23c-14 0 -19 10 -28 20l-91 96l-90 -96c-9 -10 -14 -20 -28 -20c-21 0 -23 16 -23 23c0 6 3 14 6 18zM436 0h-141c-139 0 -223 26 -223 180v276c0 154 84 180 217 180h147c90 0 100 -58 100 -112
c0 -18 -5 -35 -26 -35c-10 0 -26 4 -26 33c0 48 -15 62 -55 62h-140c-115 0 -165 -11 -165 -128v-276c0 -117 50 -128 171 -128h134c44 0 55 18 55 62c0 29 16 33 26 33c18 0 26 -12 26 -36c0 -53 -10 -111 -100 -111z" />
    <glyph glyph-name="ccircumflex" unicode="&#x109;" horiz-adv-x="584" 
d="M426 0h-141c-139 0 -223 26 -223 176v109c0 150 84 176 223 176h141c90 0 100 -59 100 -112c0 -18 -5 -35 -26 -35c-10 0 -26 4 -26 33c0 48 -15 62 -55 62h-134c-121 0 -171 -10 -171 -125v-107c0 -115 50 -125 171 -125h134c44 0 55 18 55 62c0 29 16 33 26 33
c18 0 26 -12 26 -36c0 -53 -10 -111 -100 -111zM153 558l105 132h59l107 -132c3 -4 6 -12 6 -18c0 -7 -2 -23 -23 -23c-14 0 -19 10 -28 20l-91 96l-90 -96c-9 -10 -14 -20 -28 -20c-21 0 -23 16 -23 23c0 6 3 14 6 18z" />
    <glyph glyph-name="Cdotaccent" unicode="&#x10a;" horiz-adv-x="592" 
d="M436 0h-141c-139 0 -223 26 -223 180v276c0 154 84 180 217 180h147c90 0 100 -58 100 -112c0 -18 -5 -35 -26 -35c-10 0 -26 4 -26 33c0 48 -15 62 -55 62h-140c-115 0 -165 -11 -165 -128v-276c0 -117 50 -128 171 -128h134c44 0 55 18 55 62c0 29 16 33 26 33
c18 0 26 -12 26 -36c0 -53 -10 -111 -100 -111zM291 783c19 0 51 -17 51 -41c0 -25 -32 -41 -51 -41c-20 0 -51 16 -51 41c0 24 31 41 51 41z" />
    <glyph glyph-name="cdotaccent" unicode="&#x10b;" horiz-adv-x="584" 
d="M426 0h-141c-139 0 -223 26 -223 176v109c0 150 84 176 223 176h141c90 0 100 -59 100 -112c0 -18 -5 -35 -26 -35c-10 0 -26 4 -26 33c0 48 -15 62 -55 62h-134c-121 0 -171 -10 -171 -125v-107c0 -115 50 -125 171 -125h134c44 0 55 18 55 62c0 29 16 33 26 33
c18 0 26 -12 26 -36c0 -53 -10 -111 -100 -111zM285 599c19 0 51 -17 51 -41c0 -25 -32 -41 -51 -41c-20 0 -51 16 -51 41c0 24 31 41 51 41z" />
    <glyph glyph-name="Ccaron" unicode="&#x10c;" horiz-adv-x="592" 
d="M436 0h-141c-139 0 -223 26 -223 180v276c0 154 84 180 217 180h147c90 0 100 -58 100 -112c0 -18 -5 -35 -26 -35c-10 0 -26 4 -26 33c0 48 -15 62 -55 62h-140c-115 0 -165 -11 -165 -128v-276c0 -117 50 -128 171 -128h134c44 0 55 18 55 62c0 29 16 33 26 33
c18 0 26 -12 26 -36c0 -53 -10 -111 -100 -111zM325 678h-56l-104 109c-4 4 -7 8 -7 15c0 8 5 20 23 20c7 0 14 -2 32 -17l84 -70l84 70c18 15 25 17 32 17c18 0 23 -12 23 -20c0 -7 -3 -11 -7 -15z" />
    <glyph glyph-name="ccaron" unicode="&#x10d;" horiz-adv-x="584" 
d="M324 522h-56l-104 109c-4 4 -7 8 -7 15c0 8 5 20 23 20c7 0 14 -2 32 -17l84 -70l84 70c18 15 25 17 32 17c18 0 23 -12 23 -20c0 -7 -3 -11 -7 -15zM426 0h-141c-139 0 -223 26 -223 176v109c0 150 84 176 223 176h141c90 0 100 -59 100 -112c0 -18 -5 -35 -26 -35
c-10 0 -26 4 -26 33c0 48 -15 62 -55 62h-134c-121 0 -171 -10 -171 -125v-107c0 -115 50 -125 171 -125h134c44 0 55 18 55 62c0 29 16 33 26 33c18 0 26 -12 26 -36c0 -53 -10 -111 -100 -111z" />
    <glyph glyph-name="Dcaron" unicode="&#x10e;" horiz-adv-x="620" 
d="M548 456v-276c0 -154 -84 -180 -222 -180h-218c-19 0 -24 16 -24 36v564c0 20 5 36 24 36h224c132 0 216 -26 216 -180zM496 180v276c0 117 -50 128 -164 128h-196v-532h190c120 0 170 11 170 128zM318 675h-56l-104 109c-4 4 -7 8 -7 15c0 8 5 20 23 20
c7 0 14 -2 32 -17l84 -70l84 70c18 15 25 17 32 17c18 0 23 -12 23 -20c0 -7 -3 -11 -7 -15z" />
    <glyph glyph-name="dcaron" unicode="&#x10f;" horiz-adv-x="611" 
d="M484 461v146c0 20 6 36 28 36c19 0 24 -16 24 -36v-580c0 -18 -5 -34 -26 -34c-19 0 -26 12 -26 35v35c-40 -43 -102 -63 -171 -63h-29c-138 0 -222 26 -222 176v109c0 150 84 176 222 176h200zM484 409h-200c-120 0 -170 -10 -170 -125v-107c0 -115 50 -125 170 -125h29
c114 0 171 62 171 176v181zM656 623c0 -5 -1 -12 -5 -19l-41 -83c-6 -14 -13 -24 -25 -24c-10 0 -22 5 -22 25c0 3 1 8 3 16l24 87c5 17 15 23 25 23c8 0 41 -5 41 -25z" />
    <glyph glyph-name="Dcroat" unicode="&#x110;" horiz-adv-x="620" 
d="M496 180v276c0 117 -50 128 -164 128h-196v-233h104c22 0 34 -10 34 -27c0 -16 -13 -26 -34 -26h-104v-246h190c120 0 170 11 170 128zM548 456v-276c0 -154 -84 -180 -222 -180h-218c-19 0 -24 16 -24 36v262c-23 0 -32 11 -32 28c0 10 5 25 32 25v249c0 20 5 36 24 36
h224c132 0 216 -26 216 -180z" />
    <glyph glyph-name="dcroat" unicode="&#x111;" horiz-adv-x="611" 
d="M484 409h-200c-120 0 -170 -10 -170 -125v-107c0 -115 50 -125 170 -125h29c114 0 171 62 171 176v181zM261 539c0 10 5 26 31 26h192v42c0 20 6 36 28 36c19 0 24 -16 24 -36v-42h1c21 0 34 -10 34 -28c0 -15 -14 -25 -34 -25h-1v-485c0 -18 -5 -34 -26 -34
c-19 0 -26 12 -26 35v35c-40 -43 -102 -63 -171 -63h-29c-138 0 -222 26 -222 176v109c0 150 84 176 222 176h200v51h-192c-23 0 -31 13 -31 27z" />
    <glyph glyph-name="Emacron" unicode="&#x112;" 
d="M156 733c0 10 5 26 31 26h245c21 0 34 -10 34 -28c0 -15 -14 -25 -34 -25h-245c-23 0 -31 13 -31 27zM136 332v-280h378c23 0 34 -9 34 -28s-12 -24 -34 -24h-406c-19 0 -24 15 -24 36v564c0 20 5 36 24 36h406c23 0 34 -9 34 -28s-12 -24 -34 -24h-378v-200h259
c20 0 36 -6 36 -28c0 -19 -14 -24 -36 -24h-259z" />
    <glyph glyph-name="emacron" unicode="&#x113;" horiz-adv-x="592" 
d="M145 549c0 10 5 26 31 26h245c21 0 34 -10 34 -28c0 -15 -14 -25 -34 -25h-245c-23 0 -31 13 -31 27zM536 285v-40h-422v-68c0 -115 50 -125 171 -125h134c44 0 55 18 55 62c0 29 16 33 26 33c18 0 26 -12 26 -36c0 -53 -10 -111 -100 -111h-141c-139 0 -223 26 -223 176
v109c0 150 84 176 223 176h29c138 0 222 -26 222 -176zM314 409h-29c-119 0 -169 -11 -171 -112h370c-2 101 -52 112 -170 112z" />
    <glyph glyph-name="Edotaccent" unicode="&#x116;" 
d="M311 788c19 0 51 -17 51 -41c0 -25 -32 -41 -51 -41c-20 0 -51 16 -51 41c0 24 31 41 51 41zM136 332v-280h378c23 0 34 -9 34 -28s-12 -24 -34 -24h-406c-19 0 -24 15 -24 36v564c0 20 5 36 24 36h406c23 0 34 -9 34 -28s-12 -24 -34 -24h-378v-200h259
c20 0 36 -6 36 -28c0 -19 -14 -24 -36 -24h-259z" />
    <glyph glyph-name="edotaccent" unicode="&#x117;" horiz-adv-x="592" 
d="M300 604c19 0 51 -17 51 -41c0 -25 -32 -41 -51 -41c-20 0 -51 16 -51 41c0 24 31 41 51 41zM536 285v-40h-422v-68c0 -115 50 -125 171 -125h134c44 0 55 18 55 62c0 29 16 33 26 33c18 0 26 -12 26 -36c0 -53 -10 -111 -100 -111h-141c-139 0 -223 26 -223 176v109
c0 150 84 176 223 176h29c138 0 222 -26 222 -176zM314 409h-29c-119 0 -169 -11 -171 -112h370c-2 101 -52 112 -170 112z" />
    <glyph glyph-name="Eogonek" unicode="&#x118;" horiz-adv-x="597" 
d="M136 332v-280h378c23 0 34 -9 34 -28s-12 -24 -34 -24h-167c-36 -23 -64 -84 -64 -101c0 -27 8 -54 42 -54c29 0 51 17 66 17c7 0 15 -3 15 -17c0 -40 -57 -50 -79 -50c-54 0 -96 41 -96 104c0 27 24 69 48 101h-171c-19 0 -24 15 -24 36v569c0 20 5 36 24 36h406
c23 0 34 -9 34 -28s-12 -24 -34 -24h-378v-205h259c20 0 36 -6 36 -28c0 -19 -14 -24 -36 -24h-259z" />
    <glyph glyph-name="eogonek" unicode="&#x119;" horiz-adv-x="592" 
d="M314 409h-29c-119 0 -169 -11 -171 -112h370c-2 101 -52 112 -170 112zM536 285v-40h-422v-68c0 -115 50 -125 171 -125h134c44 0 55 18 55 62c0 29 16 33 26 33c18 0 26 -12 26 -36c0 -53 -10 -111 -100 -111h-49c-36 -23 -64 -84 -64 -101c0 -27 8 -54 42 -54
c29 0 51 17 66 17c7 0 15 -3 15 -17c0 -40 -57 -50 -79 -50c-54 0 -96 41 -96 104c0 27 24 69 48 101h-24c-139 0 -223 26 -223 176v109c0 150 84 176 223 176h29c138 0 222 -26 222 -176z" />
    <glyph glyph-name="Ecaron" unicode="&#x11a;" 
d="M136 332v-280h378c23 0 34 -9 34 -28s-12 -24 -34 -24h-406c-19 0 -24 15 -24 36v564c0 20 5 36 24 36h406c23 0 34 -9 34 -28s-12 -24 -34 -24h-378v-200h259c20 0 36 -6 36 -28c0 -19 -14 -24 -36 -24h-259zM326 675h-56l-104 109c-4 4 -7 8 -7 15c0 8 5 20 23 20
c7 0 14 -2 32 -17l84 -70l84 70c18 15 25 17 32 17c18 0 23 -12 23 -20c0 -7 -3 -11 -7 -15z" />
    <glyph glyph-name="ecaron" unicode="&#x11b;" horiz-adv-x="592" 
d="M328 522h-56l-104 109c-4 4 -7 8 -7 15c0 8 5 20 23 20c7 0 14 -2 32 -17l84 -70l84 70c18 15 25 17 32 17c18 0 23 -12 23 -20c0 -7 -3 -11 -7 -15zM536 285v-40h-422v-68c0 -115 50 -125 171 -125h134c44 0 55 18 55 62c0 29 16 33 26 33c18 0 26 -12 26 -36
c0 -53 -10 -111 -100 -111h-141c-139 0 -223 26 -223 176v109c0 150 84 176 223 176h29c138 0 222 -26 222 -176zM314 409h-29c-119 0 -169 -11 -171 -112h370c-2 101 -52 112 -170 112z" />
    <glyph glyph-name="Gcircumflex" unicode="&#x11c;" horiz-adv-x="606" 
d="M484 246h-131c-26 0 -36 10 -36 25c0 22 14 27 36 27h183v-189c0 -52 -10 -109 -100 -109h-147c-133 0 -217 25 -217 177v282c0 152 84 177 223 177h141c90 0 100 -58 100 -111c0 -24 -8 -36 -26 -36c-16 0 -26 9 -26 34c0 43 -11 61 -55 61h-134
c-121 0 -171 -11 -171 -126v-280c0 -115 50 -126 165 -126h140c44 0 55 17 55 60v134zM168 687l105 132h59l107 -132c3 -4 6 -12 6 -18c0 -7 -2 -23 -23 -23c-14 0 -19 10 -28 20l-91 96l-90 -96c-9 -10 -14 -20 -28 -20c-21 0 -23 16 -23 23c0 6 3 14 6 18z" />
    <glyph glyph-name="gcircumflex" unicode="&#x11d;" horiz-adv-x="611" 
d="M536 -87c0 -83 -18 -118 -91 -118h-283c-90 0 -100 59 -100 112c0 18 5 35 26 35c18 0 26 -11 26 -33c0 -48 15 -62 55 -62h269c39 0 46 11 46 50v103h-200c-138 0 -222 26 -222 176v109c0 150 84 176 222 176h29c69 0 131 -20 171 -63v35c0 23 7 35 26 35
c21 0 26 -16 26 -34v-521zM484 52v181c0 114 -57 176 -171 176h-29c-120 0 -170 -10 -170 -125v-107c0 -115 50 -125 170 -125h200zM164 565l105 132h59l107 -132c3 -4 6 -12 6 -18c0 -7 -2 -23 -23 -23c-14 0 -19 10 -28 20l-91 96l-90 -96c-9 -10 -14 -20 -28 -20
c-21 0 -23 16 -23 23c0 6 3 14 6 18z" />
    <glyph glyph-name="Gbreve" unicode="&#x11e;" horiz-adv-x="606" 
d="M484 246h-131c-26 0 -36 10 -36 25c0 22 14 27 36 27h183v-189c0 -52 -10 -109 -100 -109h-147c-133 0 -217 25 -217 177v282c0 152 84 177 223 177h141c90 0 100 -58 100 -111c0 -24 -8 -36 -26 -36c-16 0 -26 9 -26 34c0 43 -11 61 -55 61h-134
c-121 0 -171 -11 -171 -126v-280c0 -115 50 -126 165 -126h140c44 0 55 17 55 60v134zM305 688c-55 0 -120 45 -120 131h53c0 -65 41 -77 67 -77s67 12 67 77h53c0 -87 -67 -131 -120 -131z" />
    <glyph glyph-name="gbreve" unicode="&#x11f;" horiz-adv-x="611" 
d="M283 529c-55 0 -120 45 -120 131h53c0 -65 41 -77 67 -77s67 12 67 77h53c0 -87 -67 -131 -120 -131zM536 -87c0 -83 -18 -118 -91 -118h-283c-90 0 -100 59 -100 112c0 18 5 35 26 35c18 0 26 -11 26 -33c0 -48 15 -62 55 -62h269c39 0 46 11 46 50v103h-200
c-138 0 -222 26 -222 176v109c0 150 84 176 222 176h29c69 0 131 -20 171 -63v35c0 23 7 35 26 35c21 0 26 -16 26 -34v-521zM484 52v181c0 114 -57 176 -171 176h-29c-120 0 -170 -10 -170 -125v-107c0 -115 50 -125 170 -125h200z" />
    <glyph glyph-name="Gdotaccent" unicode="&#x120;" horiz-adv-x="606" 
d="M484 246h-131c-26 0 -36 10 -36 25c0 22 14 27 36 27h183v-189c0 -52 -10 -109 -100 -109h-147c-133 0 -217 25 -217 177v282c0 152 84 177 223 177h141c90 0 100 -58 100 -111c0 -24 -8 -36 -26 -36c-16 0 -26 9 -26 34c0 43 -11 61 -55 61h-134
c-121 0 -171 -11 -171 -126v-280c0 -115 50 -126 165 -126h140c44 0 55 17 55 60v134zM289 783c19 0 51 -17 51 -41c0 -25 -32 -41 -51 -41c-20 0 -51 16 -51 41c0 24 31 41 51 41z" />
    <glyph glyph-name="gdotaccent" unicode="&#x121;" horiz-adv-x="611" 
d="M536 -87c0 -83 -18 -118 -91 -118h-283c-90 0 -100 59 -100 112c0 18 5 35 26 35c18 0 26 -11 26 -33c0 -48 15 -62 55 -62h269c39 0 46 11 46 50v103h-200c-138 0 -222 26 -222 176v109c0 150 84 176 222 176h29c69 0 131 -20 171 -63v35c0 23 7 35 26 35
c21 0 26 -16 26 -34v-521zM484 52v181c0 114 -57 176 -171 176h-29c-120 0 -170 -10 -170 -125v-107c0 -115 50 -125 170 -125h200zM299 606c19 0 51 -17 51 -41c0 -25 -32 -41 -51 -41c-20 0 -51 16 -51 41c0 24 31 41 51 41z" />
    <glyph glyph-name="Gcommaaccent" unicode="&#x122;" horiz-adv-x="606" 
d="M355 -79c0 -5 -1 -12 -5 -19l-41 -83c-6 -14 -13 -24 -25 -24c-10 0 -22 5 -22 25c0 3 1 8 3 16l24 87c5 17 15 23 25 23c8 0 41 -5 41 -25zM484 246h-131c-26 0 -36 10 -36 25c0 22 14 27 36 27h183v-189c0 -52 -10 -109 -100 -109h-147c-133 0 -217 25 -217 177v282
c0 152 84 177 223 177h141c90 0 100 -58 100 -111c0 -24 -8 -36 -26 -36c-16 0 -26 9 -26 34c0 43 -11 61 -55 61h-134c-121 0 -171 -11 -171 -126v-280c0 -115 50 -126 165 -126h140c44 0 55 17 55 60v134z" />
    <glyph glyph-name="gcommaaccent" unicode="&#x123;" horiz-adv-x="611" 
d="M272 554c0 5 1 12 5 19l41 83c6 14 13 24 25 24c10 0 22 -5 22 -25c0 -3 -1 -8 -3 -16l-24 -86c-5 -17 -15 -24 -25 -24c-8 0 -41 5 -41 25zM536 -87c0 -83 -18 -118 -91 -118h-283c-90 0 -100 59 -100 112c0 18 5 35 26 35c18 0 26 -11 26 -33c0 -48 15 -62 55 -62h269
c39 0 46 11 46 50v103h-200c-138 0 -222 26 -222 176v109c0 150 84 176 222 176h29c69 0 131 -20 171 -63v35c0 23 7 35 26 35c21 0 26 -16 26 -34v-521zM484 52v181c0 114 -57 176 -171 176h-29c-120 0 -170 -10 -170 -125v-107c0 -115 50 -125 170 -125h200z" />
    <glyph glyph-name="Hcircumflex" unicode="&#x124;" horiz-adv-x="632" 
d="M136 27c0 -22 -7 -34 -26 -34c-21 0 -26 16 -26 34v581c0 20 5 35 24 35c22 0 28 -16 28 -35v-239h360v239c0 18 5 35 25 35c22 0 27 -16 27 -35v-581c0 -19 -5 -34 -25 -34c-11 0 -27 4 -27 34v290h-360v-290zM183 687l105 132h59l107 -132c3 -4 6 -12 6 -18
c0 -7 -2 -23 -23 -23c-14 0 -19 10 -28 20l-91 96l-90 -96c-9 -10 -14 -20 -28 -20c-21 0 -23 16 -23 23c0 6 3 14 6 18z" />
    <glyph glyph-name="hcircumflex" unicode="&#x125;" horiz-adv-x="619" 
d="M298 409c-114 0 -171 -63 -171 -178v-204c0 -22 -7 -34 -26 -34c-21 0 -26 16 -26 34v580c0 20 5 36 24 36c22 0 28 -16 28 -36v-209c40 43 102 63 171 63h29c138 0 222 -26 222 -176v-258c0 -19 -5 -34 -25 -34c-11 0 -27 4 -27 34v257c0 115 -50 125 -170 125h-29z
M177 687l105 132h59l107 -132c3 -4 6 -12 6 -18c0 -7 -2 -23 -23 -23c-14 0 -19 10 -28 20l-91 96l-90 -96c-9 -10 -14 -20 -28 -20c-21 0 -23 16 -23 23c0 6 3 14 6 18z" />
    <glyph glyph-name="Hbar" unicode="&#x126;" horiz-adv-x="636" 
d="M54 508c-18 0 -26 8 -26 22c0 13 8 21 26 21h32v57c0 20 5 35 24 35c22 0 28 -16 28 -35v-57h360v57c0 18 5 35 25 35c22 0 27 -16 27 -35v-57h29c19 0 29 -8 29 -23c0 -12 -10 -20 -29 -20h-29v-481c0 -19 -5 -34 -25 -34c-11 0 -27 4 -27 34v290h-360v-290
c0 -22 -7 -34 -26 -34c-21 0 -26 16 -26 34v481h-32zM498 508h-360v-139h360v139z" />
    <glyph glyph-name="hbar" unicode="&#x127;" horiz-adv-x="619" 
d="M75 553v54c0 20 5 36 24 36c22 0 28 -16 28 -36v-54h210c23 0 38 -10 38 -28c0 -15 -15 -25 -38 -25h-210v-102c40 43 103 63 171 63h29c138 0 222 -26 222 -176v-258c0 -19 -5 -34 -25 -34c-11 0 -27 4 -27 34v257c0 115 -50 125 -170 125h-29
c-113 0 -171 -63 -171 -178v-204c0 -22 -7 -34 -26 -34c-21 0 -26 16 -26 34v473c-23 0 -38 10 -38 28c0 15 15 25 38 25z" />
    <glyph glyph-name="Itilde" unicode="&#x128;" horiz-adv-x="220" 
d="M164 763c2 0 4 1 8 4l31 28c7 5 13 9 22 9c12 0 26 -8 26 -23c0 -8 -4 -18 -14 -27l-47 -39c-5 -5 -11 -8 -19 -8c-5 0 -11 2 -12 2l-98 36c-1 1 -4 2 -6 2s-4 -1 -8 -4l-31 -28c-7 -5 -13 -9 -22 -9c-11 0 -25 9 -25 24c0 10 5 19 14 26l46 38c5 6 12 9 19 9
c4 0 11 -2 13 -2l98 -36c3 -2 5 -2 5 -2zM136 25c0 -16 -5 -32 -27 -32c-10 0 -25 5 -25 32v585c0 29 16 33 26 33s26 -4 26 -33v-585z" />
    <glyph glyph-name="itilde" unicode="&#x129;" horiz-adv-x="200" 
d="M154 591c2 0 4 1 8 4l31 28c7 5 13 9 22 9c12 0 26 -8 26 -23c0 -8 -4 -18 -14 -27l-47 -39c-5 -5 -11 -8 -19 -8c-5 0 -11 2 -12 2l-98 36c-1 1 -4 2 -6 2s-4 -1 -8 -4l-31 -28c-7 -5 -13 -9 -22 -9c-11 0 -25 9 -25 24c0 10 5 19 14 26l46 38c5 6 12 9 19 9
c4 0 11 -2 13 -2l98 -36c3 -2 5 -2 5 -2zM99 -12c-10 0 -25 5 -25 32v420c0 29 16 33 26 33s26 -4 26 -33v-420c0 -16 -5 -32 -27 -32z" />
    <glyph glyph-name="Imacron" unicode="&#x12a;" horiz-adv-x="220" 
d="M-45 733c0 10 5 26 31 26h245c21 0 34 -10 34 -28c0 -15 -14 -25 -34 -25h-245c-23 0 -31 13 -31 27zM136 25c0 -16 -5 -32 -27 -32c-10 0 -25 5 -25 32v585c0 29 16 33 26 33s26 -4 26 -33v-585z" />
    <glyph glyph-name="imacron" unicode="&#x12b;" horiz-adv-x="200" 
d="M-55 561c0 10 5 26 31 26h245c21 0 34 -10 34 -28c0 -15 -14 -25 -34 -25h-245c-23 0 -31 13 -31 27zM99 -12c-10 0 -25 5 -25 32v420c0 29 16 33 26 33s26 -4 26 -33v-420c0 -16 -5 -32 -27 -32z" />
    <glyph glyph-name="Iogonek" unicode="&#x12e;" horiz-adv-x="221" 
d="M78 -91c0 -27 8 -54 42 -54c29 0 51 17 66 17c7 0 15 -3 15 -17c0 -40 -57 -50 -79 -50c-54 0 -96 41 -96 104c0 31 32 83 59 116v585c0 29 16 33 26 33s26 -4 26 -33v-585c0 -11 -2 -20 -11 -28c-29 -25 -48 -74 -48 -88z" />
    <glyph glyph-name="iogonek" unicode="&#x12f;" horiz-adv-x="201" 
d="M101 642c19 0 51 -16 51 -41c0 -24 -32 -41 -51 -41c-20 0 -51 17 -51 41c0 25 31 41 51 41zM62 -101c0 -27 8 -54 42 -54c29 0 51 17 66 17c7 0 15 -3 15 -17c0 -40 -57 -50 -79 -50c-54 0 -96 41 -96 104c0 33 37 90 65 123v418c0 29 16 33 26 33s26 -4 26 -33v-420
c0 -9 1 -18 -7 -24c-32 -25 -58 -81 -58 -97z" />
    <glyph glyph-name="Idotaccent" unicode="&#x130;" horiz-adv-x="220" 
d="M136 25c0 -16 -5 -32 -27 -32c-10 0 -25 5 -25 32v585c0 29 16 33 26 33s26 -4 26 -33v-585zM105 783c19 0 51 -17 51 -41c0 -25 -32 -41 -51 -41c-20 0 -51 16 -51 41c0 24 31 41 51 41z" />
    <glyph glyph-name="dotlessi" unicode="&#x131;" horiz-adv-x="200" 
d="M99 -12c-10 0 -25 5 -25 32v420c0 29 16 33 26 33s26 -4 26 -33v-420c0 -16 -5 -32 -27 -32z" />
    <glyph glyph-name="Jcircumflex" unicode="&#x134;" horiz-adv-x="550" 
d="M251 44c116 0 166 11 166 126v441c0 28 16 32 26 32s26 -4 26 -33v-441c0 -152 -84 -177 -218 -177s-219 25 -219 180c0 21 10 33 28 33c15 0 25 -13 25 -33c0 -117 48 -128 166 -128zM293 688l105 132h59l107 -132c3 -4 6 -12 6 -18c0 -7 -2 -23 -23 -23
c-14 0 -19 10 -28 20l-91 96l-90 -96c-9 -10 -14 -20 -28 -20c-21 0 -23 16 -23 23c0 6 3 14 6 18z" />
    <glyph glyph-name="jcircumflex" unicode="&#x135;" horiz-adv-x="202" 
d="M127 0c0 -153 -85 -175 -213 -175c-19 0 -36 5 -36 27c0 19 13 25 36 25c111 0 161 10 161 123v432c0 20 5 36 27 36c18 0 25 -12 25 -36v-432zM-37 565l105 132h59l107 -132c3 -4 6 -12 6 -18c0 -7 -2 -23 -23 -23c-14 0 -19 10 -28 20l-91 96l-90 -96
c-9 -10 -14 -20 -28 -20c-21 0 -23 16 -23 23c0 6 3 14 6 18z" />
    <glyph glyph-name="Kcommaaccent" unicode="&#x136;" horiz-adv-x="518" 
d="M345 -25c0 -5 -1 -12 -5 -19l-41 -83c-6 -14 -13 -24 -25 -24c-10 0 -22 5 -22 25c0 3 1 8 3 16l24 87c5 17 15 23 25 23c8 0 41 -5 41 -25zM514 18c0 -15 -16 -25 -26 -25s-18 6 -25 15l-274 314l-53 -64v-233c0 -15 -5 -32 -27 -32c-10 0 -25 5 -25 32v585
c0 29 16 33 26 33s26 -4 26 -33v-280l261 298c7 10 15 15 25 15s25 -10 25 -24c0 -8 -4 -16 -10 -24l-213 -239l279 -315c7 -8 11 -15 11 -23z" />
    <glyph glyph-name="kcommaaccent" unicode="&#x137;" horiz-adv-x="454" 
d="M286 -25c0 -5 -1 -12 -5 -19l-41 -83c-6 -14 -13 -24 -25 -24c-10 0 -22 5 -22 25c0 3 1 8 3 16l24 87c5 17 15 23 25 23c8 0 41 -5 41 -25zM442 19c0 -11 -10 -25 -24 -25c-10 0 -19 7 -25 12l-237 229l-29 -29v-181c0 -15 -5 -32 -27 -32c-10 0 -25 5 -25 31v586
c0 29 16 33 26 33s26 -4 26 -33v-341l194 185c11 10 19 12 24 12c11 0 25 -10 25 -26c0 -9 -7 -18 -12 -23l-166 -152l239 -222c7 -8 11 -17 11 -24z" />
    <glyph glyph-name="kgreenlandic" unicode="&#x138;" horiz-adv-x="459" 
d="M428 19c0 -10 -9 -26 -24 -26c-9 0 -18 5 -23 9l-255 205v-183c0 -15 -5 -31 -27 -31c-10 0 -25 5 -25 31v412c0 28 16 32 26 32s26 -4 26 -32v-179l254 204c6 5 14 10 24 10c14 0 24 -16 24 -26s-6 -18 -15 -24l-240 -189l241 -190c8 -6 14 -14 14 -23z" />
    <glyph glyph-name="Lacute" unicode="&#x139;" horiz-adv-x="516" 
d="M108 0c-19 0 -24 15 -24 35v576c0 28 16 32 26 32s26 -4 26 -32v-559h323c24 0 33 -11 33 -27c0 -20 -17 -25 -33 -25h-351zM199 770l-70 -69c-8 -9 -16 -13 -24 -13c-14 0 -26 13 -26 24c0 10 6 18 13 26l69 68c8 9 17 13 25 13c16 0 25 -16 25 -25s-5 -16 -12 -24z" />
    <glyph glyph-name="lacute" unicode="&#x13a;" horiz-adv-x="271" 
d="M197 0h-7c-80 0 -100 37 -100 127v481c0 18 5 35 26 35c19 0 26 -12 26 -35v-498c0 -41 11 -58 55 -58c21 0 35 -5 35 -27c0 -15 -9 -25 -35 -25zM205 781l-70 -69c-8 -9 -16 -13 -24 -13c-14 0 -26 13 -26 24c0 10 6 18 13 26l69 68c8 9 17 13 25 13c16 0 25 -16 25 -25
s-5 -16 -12 -24z" />
    <glyph glyph-name="Lcommaaccent" unicode="&#x13b;" horiz-adv-x="516" 
d="M330 -79c0 -5 -1 -12 -5 -19l-41 -83c-6 -14 -13 -24 -25 -24c-10 0 -22 5 -22 25c0 3 1 8 3 16l24 87c5 17 15 23 25 23c8 0 41 -5 41 -25zM108 0c-19 0 -24 15 -24 35v576c0 28 16 32 26 32s26 -4 26 -32v-559h323c24 0 33 -11 33 -27c0 -20 -17 -25 -33 -25h-351z" />
    <glyph glyph-name="lcommaaccent" unicode="&#x13c;" horiz-adv-x="271" 
d="M186 -79c0 -5 -1 -12 -5 -19l-41 -83c-6 -14 -13 -24 -25 -24c-10 0 -22 5 -22 25c0 3 1 8 3 16l24 87c5 17 15 23 25 23c8 0 41 -5 41 -25zM197 0h-7c-80 0 -100 37 -100 127v481c0 18 5 35 26 35c19 0 26 -12 26 -35v-498c0 -41 11 -58 55 -58c21 0 35 -5 35 -27
c0 -15 -9 -25 -35 -25z" />
    <glyph glyph-name="Lcaron" unicode="&#x13d;" horiz-adv-x="516" 
d="M108 0c-19 0 -24 15 -24 35v576c0 28 16 32 26 32s26 -4 26 -32v-559h323c24 0 33 -11 33 -27c0 -20 -17 -25 -33 -25h-351zM277 625c0 -5 -1 -12 -5 -19l-41 -83c-6 -14 -13 -24 -25 -24c-10 0 -22 5 -22 25c0 3 1 8 3 16l24 87c5 17 15 23 25 23c8 0 41 -5 41 -25z" />
    <glyph glyph-name="lcaron" unicode="&#x13e;" horiz-adv-x="271" 
d="M197 0h-7c-80 0 -100 37 -100 127v481c0 18 5 35 26 35c19 0 26 -12 26 -35v-498c0 -41 11 -58 55 -58c21 0 35 -5 35 -27c0 -15 -9 -25 -35 -25zM290 623c0 -5 -1 -12 -5 -19l-41 -83c-6 -14 -13 -24 -25 -24c-10 0 -22 5 -22 25c0 3 1 8 3 16l24 87c5 17 15 23 25 23
c8 0 41 -5 41 -25z" />
    <glyph glyph-name="Lslash" unicode="&#x141;" horiz-adv-x="525" 
d="M117 0c-19 0 -24 15 -24 35v272l-53 -26c-5 -2 -10 -3 -15 -3c-21 0 -26 19 -26 28c0 11 10 18 22 24l72 36v245c0 28 16 32 26 32s26 -4 26 -32v-219l46 23c5 1 10 3 17 3c16 0 27 -12 27 -26c0 -16 -19 -24 -25 -27l-65 -32v-281h323c24 0 33 -11 33 -27
c0 -20 -17 -25 -33 -25h-351z" />
    <glyph glyph-name="lslash" unicode="&#x142;" horiz-adv-x="317" 
d="M237 0h-7c-80 0 -100 37 -100 127v182l-56 -28c-5 -2 -10 -3 -15 -3c-21 0 -26 19 -26 28c0 11 10 18 22 24l75 38v240c0 18 5 35 26 35c19 0 26 -12 26 -35v-214l43 21c5 1 10 3 17 3c16 0 27 -12 27 -26c0 -16 -19 -24 -25 -27l-62 -31v-224c0 -41 11 -58 55 -58
c21 0 35 -5 35 -27c0 -15 -9 -25 -35 -25z" />
    <glyph glyph-name="Nacute" unicode="&#x143;" horiz-adv-x="632" 
d="M523 -7c-8 0 -16 2 -20 7l-367 543v-517c0 -22 -7 -33 -26 -33c-21 0 -26 16 -26 34v581c0 20 5 35 24 35c12 0 21 -5 30 -19l358 -528v511c0 19 5 36 25 36c22 0 27 -16 27 -35v-581c0 -19 -5 -34 -25 -34zM397 761l-96 -115c-9 -10 -17 -15 -25 -15
c-10 0 -25 10 -25 25c0 9 3 16 9 23l96 115c9 10 17 15 25 15c11 0 25 -10 25 -26c0 -7 -3 -15 -9 -22z" />
    <glyph glyph-name="nacute" unicode="&#x144;" horiz-adv-x="618" 
d="M297 409c-114 0 -171 -63 -171 -178v-204c0 -22 -7 -34 -26 -34c-21 0 -26 16 -26 34v406c0 20 5 35 24 35c22 0 28 -16 28 -36v-34c40 43 102 63 171 63h29c138 0 222 -26 222 -176v-258c0 -19 -5 -34 -25 -34c-11 0 -27 4 -27 34v257c0 115 -50 125 -170 125h-29z
M396 635l-96 -115c-9 -10 -17 -15 -25 -15c-10 0 -25 10 -25 25c0 9 3 16 9 23l96 115c9 10 17 15 25 15c11 0 25 -10 25 -26c0 -7 -3 -15 -9 -22z" />
    <glyph glyph-name="Ncommaaccent" unicode="&#x145;" horiz-adv-x="632" 
d="M363 -25c0 -5 -1 -12 -5 -19l-41 -83c-6 -14 -13 -24 -25 -24c-10 0 -22 5 -22 25c0 3 1 8 3 16l24 87c5 17 15 23 25 23c8 0 41 -5 41 -25zM523 -7c-8 0 -16 2 -20 7l-367 543v-517c0 -22 -7 -33 -26 -33c-21 0 -26 16 -26 34v581c0 20 5 35 24 35c12 0 21 -5 30 -19
l358 -528v511c0 19 5 36 25 36c22 0 27 -16 27 -35v-581c0 -19 -5 -34 -25 -34z" />
    <glyph glyph-name="ncommaaccent" unicode="&#x146;" horiz-adv-x="617" 
d="M358 -25c0 -5 -1 -12 -5 -19l-41 -83c-6 -14 -13 -24 -25 -24c-10 0 -22 5 -22 25c0 3 1 8 3 16l24 87c5 17 15 23 25 23c8 0 41 -5 41 -25zM297 409c-114 0 -171 -63 -171 -178v-204c0 -22 -7 -34 -26 -34c-21 0 -26 16 -26 34v406c0 20 5 35 24 35c22 0 28 -16 28 -36
v-34c40 43 102 63 171 63h29c138 0 222 -26 222 -176v-258c0 -19 -5 -34 -25 -34c-11 0 -27 4 -27 34v257c0 115 -50 125 -170 125h-29z" />
    <glyph glyph-name="Ncaron" unicode="&#x147;" horiz-adv-x="632" 
d="M523 -7c-8 0 -16 2 -20 7l-367 543v-517c0 -22 -7 -33 -26 -33c-21 0 -26 16 -26 34v581c0 20 5 35 24 35c12 0 21 -5 30 -19l358 -528v511c0 19 5 36 25 36c22 0 27 -16 27 -35v-581c0 -19 -5 -34 -25 -34zM337 648h-56l-104 109c-4 4 -7 8 -7 15c0 8 5 20 23 20
c7 0 14 -2 32 -17l84 -70l84 70c18 15 25 17 32 17c18 0 23 -12 23 -20c0 -7 -3 -11 -7 -15z" />
    <glyph glyph-name="ncaron" unicode="&#x148;" horiz-adv-x="618" 
d="M339 529h-56l-104 109c-4 4 -7 8 -7 15c0 8 5 20 23 20c7 0 14 -2 32 -17l84 -70l84 70c18 15 25 17 32 17c18 0 23 -12 23 -20c0 -7 -3 -11 -7 -15zM297 409c-114 0 -171 -63 -171 -178v-204c0 -22 -7 -34 -26 -34c-21 0 -26 16 -26 34v406c0 20 5 35 24 35
c22 0 28 -16 28 -36v-34c40 43 102 63 171 63h29c138 0 222 -26 222 -176v-258c0 -19 -5 -34 -25 -34c-11 0 -27 4 -27 34v257c0 115 -50 125 -170 125h-29z" />
    <glyph glyph-name="Eng" unicode="&#x14a;" horiz-adv-x="633" 
d="M496 96v511c0 19 5 36 25 36c22 0 27 -16 27 -35v-608c0 -153 -85 -175 -213 -175c-19 0 -36 5 -36 27c0 19 13 25 36 25c111 0 161 10 161 123v10l-360 533v-517c0 -22 -7 -33 -26 -33c-21 0 -26 16 -26 34v581c0 20 5 35 24 35c12 0 21 -5 30 -19z" />
    <glyph glyph-name="eng" unicode="&#x14b;" horiz-adv-x="619" 
d="M297 409c-114 0 -171 -63 -171 -178v-204c0 -22 -7 -34 -26 -34c-21 0 -26 16 -26 34v406c0 20 5 35 24 35c22 0 28 -16 28 -36v-34c40 43 102 63 171 63h29c138 0 222 -26 222 -176v-285c0 -153 -85 -175 -213 -175c-19 0 -36 5 -36 27c0 19 13 25 36 25
c111 0 161 10 161 123v284c0 115 -50 125 -170 125h-29z" />
    <glyph glyph-name="Omacron" unicode="&#x14c;" horiz-adv-x="594" 
d="M142 733c0 10 5 26 31 26h245c21 0 34 -10 34 -28c0 -15 -14 -25 -34 -25h-245c-23 0 -31 13 -31 27zM297 -9c-133 0 -232 86 -232 237v180c0 151 99 237 232 237c132 0 232 -86 232 -237v-180c0 -151 -100 -237 -232 -237zM297 593c-115 0 -180 -70 -180 -186v-178
c0 -117 65 -186 180 -186s180 69 180 186v178c0 116 -65 186 -180 186z" />
    <glyph glyph-name="omacron" unicode="&#x14d;" 
d="M145 549c0 10 5 26 31 26h245c21 0 34 -10 34 -28c0 -15 -14 -25 -34 -25h-245c-23 0 -31 13 -31 27zM314 0h-29c-139 0 -223 26 -223 176v109c0 150 84 176 223 176h29c138 0 222 -26 222 -176v-109c0 -150 -84 -176 -222 -176zM285 52h29c120 0 170 10 170 125v107
c0 115 -50 125 -170 125h-29c-121 0 -171 -10 -171 -125v-107c0 -115 50 -125 171 -125z" />
    <glyph glyph-name="Ohungarumlaut" unicode="&#x150;" horiz-adv-x="594" 
d="M297 -9c-133 0 -232 86 -232 237v180c0 151 99 237 232 237c132 0 232 -86 232 -237v-180c0 -151 -100 -237 -232 -237zM297 593c-115 0 -180 -70 -180 -186v-178c0 -117 65 -186 180 -186s180 69 180 186v178c0 116 -65 186 -180 186zM338 770l-70 -69
c-8 -9 -16 -13 -24 -13c-14 0 -26 13 -26 24c0 10 6 18 13 26l69 68c8 9 17 13 25 13c16 0 25 -16 25 -25s-5 -16 -12 -24zM438 770l-70 -69c-8 -9 -16 -13 -24 -13c-14 0 -26 13 -26 24c0 10 6 18 13 26l69 68c8 9 17 13 25 13c16 0 25 -16 25 -25s-5 -16 -12 -24z" />
    <glyph glyph-name="ohungarumlaut" unicode="&#x151;" 
d="M314 0h-29c-139 0 -223 26 -223 176v109c0 150 84 176 223 176h29c138 0 222 -26 222 -176v-109c0 -150 -84 -176 -222 -176zM285 52h29c120 0 170 10 170 125v107c0 115 -50 125 -170 125h-29c-121 0 -171 -10 -171 -125v-107c0 -115 50 -125 171 -125zM345 647
l-96 -115c-9 -10 -17 -15 -25 -15c-10 0 -25 10 -25 25c0 9 3 16 9 23l96 115c9 10 17 15 25 15c11 0 25 -10 25 -26c0 -7 -3 -15 -9 -22zM465 647l-96 -115c-9 -10 -17 -15 -25 -15c-10 0 -25 10 -25 25c0 9 3 16 9 23l96 115c9 10 17 15 25 15c11 0 25 -10 25 -26
c0 -7 -3 -15 -9 -22z" />
    <glyph glyph-name="OE" unicode="&#x152;" horiz-adv-x="726" 
d="M382 620c3 11 10 16 22 16h243c21 0 35 -5 35 -24s-12 -27 -35 -27h-214v-201h95c25 0 36 -9 36 -28s-13 -24 -36 -24h-95v-280h214c20 0 35 -6 35 -28c0 -19 -14 -24 -35 -24h-239c-14 0 -22 8 -24 15c-31 -16 -66 -24 -108 -24c-93 0 -212 86 -212 237v180
c0 151 119 237 210 237c41 0 77 -8 108 -25zM276 43c47 0 80 11 105 33v484c-24 22 -60 33 -107 33c-73 0 -159 -69 -159 -186v-178c0 -118 86 -186 161 -186z" />
    <glyph glyph-name="oe" unicode="&#x153;" horiz-adv-x="747" 
d="M524 409c-68 0 -112 -10 -113 -112h224c-1 102 -44 112 -111 112zM234 409c-108 0 -120 -46 -120 -125v-107c0 -79 12 -125 120 -125c111 0 125 46 125 125v107c0 79 -14 125 -125 125zM234 0c-128 0 -172 57 -172 176v109c0 118 44 176 172 176c79 0 121 -22 150 -65
c38 64 108 65 140 65c87 0 163 -26 163 -176v-40h-276v-68c0 -116 78 -125 132 -125c49 0 92 12 92 62c0 17 5 33 25 33c22 0 27 -16 27 -36c0 -100 -79 -111 -144 -111c-85 0 -132 24 -157 68c-27 -44 -68 -68 -152 -68z" />
    <glyph glyph-name="Racute" unicode="&#x154;" horiz-adv-x="569" 
d="M288 374c117 0 166 15 166 102c0 90 -53 103 -166 103h-152v-205h152zM389 332c73 -71 125 -294 125 -307c0 -19 -11 -32 -27 -32c-17 0 -25 17 -25 32c0 13 -45 225 -138 297h-188v-297c0 -16 -5 -32 -27 -32c-10 0 -25 5 -25 32v575c0 20 5 36 24 36h180
c133 0 218 -29 218 -155c0 -83 -43 -134 -117 -149zM323 770l-70 -69c-8 -9 -16 -13 -24 -13c-14 0 -26 13 -26 24c0 10 6 18 13 26l69 68c8 9 17 13 25 13c16 0 25 -16 25 -25s-5 -16 -12 -24z" />
    <glyph glyph-name="racute" unicode="&#x155;" horiz-adv-x="383" 
d="M287 409c-104 0 -161 -63 -161 -178v-204c0 -22 -7 -34 -26 -34c-21 0 -26 16 -26 34v406c0 20 5 35 24 35c22 0 28 -16 28 -36v-34c40 43 99 63 161 63h46c22 0 35 -7 35 -26c0 -10 -4 -26 -35 -26h-46zM299 635l-96 -115c-9 -10 -17 -15 -25 -15c-10 0 -25 10 -25 25
c0 9 3 16 9 23l96 115c9 10 17 15 25 15c11 0 25 -10 25 -26c0 -7 -3 -15 -9 -22z" />
    <glyph glyph-name="Rcommaaccent" unicode="&#x156;" horiz-adv-x="569" 
d="M345 -25c0 -5 -1 -12 -5 -19l-41 -83c-6 -14 -13 -24 -25 -24c-10 0 -22 5 -22 25c0 3 1 8 3 16l24 87c5 17 15 23 25 23c8 0 41 -5 41 -25zM288 374c117 0 166 15 166 102c0 90 -53 103 -166 103h-152v-205h152zM389 332c73 -71 125 -294 125 -307
c0 -19 -11 -32 -27 -32c-17 0 -25 17 -25 32c0 13 -45 225 -138 297h-188v-297c0 -16 -5 -32 -27 -32c-10 0 -25 5 -25 32v575c0 20 5 36 24 36h180c133 0 218 -29 218 -155c0 -83 -43 -134 -117 -149z" />
    <glyph glyph-name="rcommaaccent" unicode="&#x157;" horiz-adv-x="383" 
d="M147 -79c0 -5 -1 -12 -5 -19l-41 -83c-6 -14 -13 -24 -25 -24c-10 0 -22 5 -22 25c0 3 1 8 3 16l24 87c5 17 15 23 25 23c8 0 41 -5 41 -25zM287 409c-104 0 -161 -63 -161 -178v-204c0 -22 -7 -34 -26 -34c-21 0 -26 16 -26 34v406c0 20 5 35 24 35c22 0 28 -16 28 -36
v-34c40 43 99 63 161 63h46c22 0 35 -7 35 -26c0 -10 -4 -26 -35 -26h-46z" />
    <glyph glyph-name="Rcaron" unicode="&#x158;" horiz-adv-x="569" 
d="M288 374c117 0 166 15 166 102c0 90 -53 103 -166 103h-152v-205h152zM389 332c73 -71 125 -294 125 -307c0 -19 -11 -32 -27 -32c-17 0 -25 17 -25 32c0 13 -45 225 -138 297h-188v-297c0 -16 -5 -32 -27 -32c-10 0 -25 5 -25 32v575c0 20 5 36 24 36h180
c133 0 218 -29 218 -155c0 -83 -43 -134 -117 -149zM298 675h-56l-104 109c-4 4 -7 8 -7 15c0 8 5 20 23 20c7 0 14 -2 32 -17l84 -70l84 70c18 15 25 17 32 17c18 0 23 -12 23 -20c0 -7 -3 -11 -7 -15z" />
    <glyph glyph-name="rcaron" unicode="&#x159;" horiz-adv-x="383" 
d="M249 529h-56l-104 109c-4 4 -7 8 -7 15c0 8 5 20 23 20c7 0 14 -2 32 -17l84 -70l84 70c18 15 25 17 32 17c18 0 23 -12 23 -20c0 -7 -3 -11 -7 -15zM287 409c-104 0 -161 -63 -161 -178v-204c0 -22 -7 -34 -26 -34c-21 0 -26 16 -26 34v406c0 20 5 35 24 35
c22 0 28 -16 28 -36v-34c40 43 99 63 161 63h46c22 0 35 -7 35 -26c0 -10 -4 -26 -35 -26h-46z" />
    <glyph glyph-name="Sacute" unicode="&#x15a;" horiz-adv-x="599" 
d="M113 481c0 -55 28 -95 60 -102l237 -51c97 -21 127 -98 127 -172c0 -75 -37 -164 -170 -164h-83c-138 0 -223 25 -223 180c0 21 10 33 28 33c15 0 25 -13 25 -33c0 -117 48 -128 170 -128h102c80 0 99 73 99 113c0 72 -37 110 -60 115l-235 52c-95 21 -129 69 -129 158
c0 75 38 162 177 162h76c137 0 223 -23 223 -178c0 -21 -10 -33 -27 -33c-16 0 -26 13 -26 33c0 117 -48 126 -170 126h-98c-80 0 -103 -68 -103 -111zM355 770l-70 -69c-8 -9 -16 -13 -24 -13c-14 0 -26 13 -26 24c0 10 6 18 13 26l69 68c8 9 17 13 25 13
c16 0 25 -16 25 -25s-5 -16 -12 -24z" />
    <glyph glyph-name="sacute" unicode="&#x15b;" horiz-adv-x="586" 
d="M160 0c-90 0 -100 58 -100 111c0 24 8 36 26 36s26 -11 26 -33c0 -44 11 -62 55 -62h248c43 0 59 31 59 74c0 50 -24 84 -59 84h-226c-97 0 -129 58 -129 130c0 74 31 121 139 121h225c90 0 100 -59 100 -112c0 -18 -5 -35 -26 -35c-10 0 -26 4 -26 33
c0 48 -15 62 -55 62h-246c-35 0 -59 -18 -59 -69c0 -52 26 -78 59 -78h227c102 0 128 -70 128 -136c0 -77 -33 -126 -138 -126h-228zM402 635l-96 -115c-9 -10 -17 -15 -25 -15c-10 0 -25 10 -25 25c0 9 3 16 9 23l96 115c9 10 17 15 25 15c11 0 25 -10 25 -26
c0 -7 -3 -15 -9 -22z" />
    <glyph glyph-name="Scircumflex" unicode="&#x15c;" horiz-adv-x="599" 
d="M113 481c0 -55 28 -95 60 -102l237 -51c97 -21 127 -98 127 -172c0 -75 -37 -164 -170 -164h-83c-138 0 -223 25 -223 180c0 21 10 33 28 33c15 0 25 -13 25 -33c0 -117 48 -128 170 -128h102c80 0 99 73 99 113c0 72 -37 110 -60 115l-235 52c-95 21 -129 69 -129 158
c0 75 38 162 177 162h76c137 0 223 -23 223 -178c0 -21 -10 -33 -27 -33c-16 0 -26 13 -26 33c0 117 -48 126 -170 126h-98c-80 0 -103 -68 -103 -111zM162 687l105 132h59l107 -132c3 -4 6 -12 6 -18c0 -7 -2 -23 -23 -23c-14 0 -19 10 -28 20l-91 96l-90 -96
c-9 -10 -14 -20 -28 -20c-21 0 -23 16 -23 23c0 6 3 14 6 18z" />
    <glyph glyph-name="scircumflex" unicode="&#x15d;" horiz-adv-x="586" 
d="M160 0c-90 0 -100 58 -100 111c0 24 8 36 26 36s26 -11 26 -33c0 -44 11 -62 55 -62h248c43 0 59 31 59 74c0 50 -24 84 -59 84h-226c-97 0 -129 58 -129 130c0 74 31 121 139 121h225c90 0 100 -59 100 -112c0 -18 -5 -35 -26 -35c-10 0 -26 4 -26 33
c0 48 -15 62 -55 62h-246c-35 0 -59 -18 -59 -69c0 -52 26 -78 59 -78h227c102 0 128 -70 128 -136c0 -77 -33 -126 -138 -126h-228zM161 558l105 132h59l107 -132c3 -4 6 -12 6 -18c0 -7 -2 -23 -23 -23c-14 0 -19 10 -28 20l-91 96l-90 -96c-9 -10 -14 -20 -28 -20
c-21 0 -23 16 -23 23c0 6 3 14 6 18z" />
    <glyph glyph-name="Scedilla" unicode="&#x15e;" horiz-adv-x="599" 
d="M113 481c0 -55 28 -95 60 -102l237 -51c97 -21 127 -98 127 -172c0 -75 -37 -164 -170 -164h-62c14 -31 65 -35 65 -86c0 -50 -44 -81 -96 -81c-22 0 -79 10 -79 50c0 11 7 18 15 18c15 0 40 -18 66 -18c32 0 42 8 42 26c0 28 -57 38 -67 92c-118 4 -190 37 -190 179
c0 21 10 33 28 33c15 0 25 -13 25 -33c0 -117 48 -128 170 -128h102c80 0 99 73 99 113c0 72 -37 110 -60 115l-235 52c-95 21 -129 69 -129 158c0 75 38 162 177 162h76c137 0 223 -23 223 -178c0 -21 -10 -33 -27 -33c-16 0 -26 13 -26 33c0 117 -48 126 -170 126h-98
c-80 0 -103 -68 -103 -111z" />
    <glyph glyph-name="scedilla" unicode="&#x15f;" horiz-adv-x="586" 
d="M160 0c-90 0 -100 58 -100 111c0 24 8 36 26 36s26 -11 26 -33c0 -44 11 -62 55 -62h248c43 0 59 31 59 74c0 50 -24 84 -59 84h-226c-97 0 -129 58 -129 130c0 74 31 121 139 121h225c90 0 100 -59 100 -112c0 -18 -5 -35 -26 -35c-10 0 -26 4 -26 33
c0 48 -15 62 -55 62h-246c-35 0 -59 -18 -59 -69c0 -52 26 -78 59 -78h227c102 0 128 -70 128 -136c0 -77 -33 -126 -138 -126h-93c9 -39 68 -38 68 -94c0 -50 -44 -81 -96 -81c-22 0 -79 10 -79 50c0 11 7 18 15 18c15 0 40 -18 66 -18c32 0 42 8 42 26c0 29 -63 38 -69 99
h-82z" />
    <glyph glyph-name="Scaron" unicode="&#x160;" horiz-adv-x="599" 
d="M113 481c0 -55 28 -95 60 -102l237 -51c97 -21 127 -98 127 -172c0 -75 -37 -164 -170 -164h-83c-138 0 -223 25 -223 180c0 21 10 33 28 33c15 0 25 -13 25 -33c0 -117 48 -128 170 -128h102c80 0 99 73 99 113c0 72 -37 110 -60 115l-235 52c-95 21 -129 69 -129 158
c0 75 38 162 177 162h76c137 0 223 -23 223 -178c0 -21 -10 -33 -27 -33c-16 0 -26 13 -26 33c0 117 -48 126 -170 126h-98c-80 0 -103 -68 -103 -111zM324 675h-56l-104 109c-4 4 -7 8 -7 15c0 8 5 20 23 20c7 0 14 -2 32 -17l84 -70l84 70c18 15 25 17 32 17
c18 0 23 -12 23 -20c0 -7 -3 -11 -7 -15z" />
    <glyph glyph-name="scaron" unicode="&#x161;" horiz-adv-x="586" 
d="M314 522h-56l-104 109c-4 4 -7 8 -7 15c0 8 5 20 23 20c7 0 14 -2 32 -17l84 -70l84 70c18 15 25 17 32 17c18 0 23 -12 23 -20c0 -7 -3 -11 -7 -15zM160 0c-90 0 -100 58 -100 111c0 24 8 36 26 36s26 -11 26 -33c0 -44 11 -62 55 -62h248c43 0 59 31 59 74
c0 50 -24 84 -59 84h-226c-97 0 -129 58 -129 130c0 74 31 121 139 121h225c90 0 100 -59 100 -112c0 -18 -5 -35 -26 -35c-10 0 -26 4 -26 33c0 48 -15 62 -55 62h-246c-35 0 -59 -18 -59 -69c0 -52 26 -78 59 -78h227c102 0 128 -70 128 -136c0 -77 -33 -126 -138 -126
h-228z" />
    <glyph glyph-name="Tcommaaccent" unicode="&#x162;" horiz-adv-x="481" 
d="M269 10c0 -49 66 -44 66 -104c0 -50 -44 -81 -96 -81c-22 0 -79 10 -79 50c0 11 7 18 15 18c15 0 40 -18 66 -18c32 0 42 8 42 26c0 31 -69 39 -69 109v574h-154c-29 0 -33 16 -33 26s4 26 33 26h361c24 0 33 -11 33 -27c0 -20 -17 -25 -33 -25h-152v-574z" />
    <glyph glyph-name="tcommaaccent" unicode="&#x163;" horiz-adv-x="343" 
d="M129 177c0 -115 50 -125 161 -125c20 0 35 -5 35 -24c0 -22 -15 -28 -35 -28c-21 0 -41 1 -59 3c7 -41 68 -40 68 -97c0 -50 -44 -81 -96 -81c-22 0 -79 10 -79 50c0 11 7 18 15 18c15 0 40 -18 66 -18c32 0 42 8 42 26c0 31 -69 39 -69 109v2c-63 19 -101 64 -101 164
v234c-18 1 -31 7 -31 27c0 16 11 23 31 24v104c0 20 5 36 24 36c22 0 28 -16 28 -36v-104h138c20 0 36 -6 36 -28c0 -19 -16 -24 -36 -24h-138v-232z" />
    <glyph glyph-name="Tcaron" unicode="&#x164;" horiz-adv-x="481" 
d="M421 636c24 0 33 -11 33 -27c0 -20 -17 -25 -33 -25h-152v-559c0 -27 -18 -32 -29 -32s-26 5 -26 32v559h-154c-29 0 -33 16 -33 26s4 26 33 26h361zM269 678h-56l-104 109c-4 4 -7 8 -7 15c0 8 5 20 23 20c7 0 14 -2 32 -17l84 -70l84 70c18 15 25 17 32 17
c18 0 23 -12 23 -20c0 -7 -3 -11 -7 -15z" />
    <glyph glyph-name="tcaron" unicode="&#x165;" horiz-adv-x="344" 
d="M130 177c0 -115 50 -125 161 -125c20 0 35 -5 35 -24c0 -22 -15 -28 -35 -28c-129 0 -213 27 -213 176v234c-18 1 -31 7 -31 27c0 16 11 23 31 24v104c0 20 5 36 24 36c22 0 28 -16 28 -36v-104h138c20 0 36 -6 36 -28c0 -19 -16 -24 -36 -24h-138v-232zM270 611
c0 -5 -1 -12 -5 -19l-41 -83c-6 -14 -13 -24 -25 -24c-10 0 -22 5 -22 25c0 3 1 8 3 16l24 87c5 17 15 23 25 23c8 0 41 -5 41 -25z" />
    <glyph glyph-name="Tbar" unicode="&#x166;" horiz-adv-x="481" 
d="M421 636c24 0 33 -11 33 -27c0 -20 -17 -25 -33 -25h-152v-218h92c21 0 34 -10 34 -28c0 -15 -14 -25 -34 -25h-92v-288c0 -27 -18 -32 -29 -32s-26 5 -26 32v288h-98c-23 0 -31 13 -31 27c0 10 5 26 31 26h98v218h-154c-29 0 -33 16 -33 26s4 26 33 26h361z" />
    <glyph glyph-name="tbar" unicode="&#x167;" horiz-adv-x="349" 
d="M130 177c0 -115 50 -125 161 -125c20 0 35 -5 35 -24c0 -22 -15 -28 -35 -28c-129 0 -213 27 -213 176v94c-23 0 -31 13 -31 27c0 10 5 26 31 26v87c-18 1 -31 7 -31 27c0 16 11 23 31 24v104c0 20 5 36 24 36c22 0 28 -16 28 -36v-104h138c20 0 36 -6 36 -28
c0 -19 -16 -24 -36 -24h-138v-86h162c21 0 34 -10 34 -28c0 -15 -14 -25 -34 -25h-162v-93z" />
    <glyph glyph-name="Utilde" unicode="&#x168;" horiz-adv-x="620" 
d="M365 763c2 0 4 1 8 4l31 28c7 5 13 9 22 9c12 0 26 -8 26 -23c0 -8 -4 -18 -14 -27l-47 -39c-5 -5 -11 -8 -19 -8c-5 0 -11 2 -12 2l-98 36c-1 1 -4 2 -6 2s-4 -1 -8 -4l-31 -28c-7 -5 -13 -9 -22 -9c-11 0 -25 9 -25 24c0 10 5 19 14 26l46 38c5 6 12 9 19 9
c4 0 11 -2 13 -2l98 -36c3 -2 5 -2 5 -2zM490 611c0 27 16 32 27 32c20 0 25 -17 25 -33v-382c0 -151 -100 -237 -232 -237c-133 0 -232 86 -232 237v382c0 29 16 33 26 33s26 -4 26 -32v-382c0 -117 65 -186 180 -186s180 69 180 186v382z" />
    <glyph glyph-name="utilde" unicode="&#x169;" horiz-adv-x="618" 
d="M360 586c2 0 4 1 8 4l31 28c7 5 13 9 22 9c12 0 26 -8 26 -23c0 -8 -4 -18 -14 -27l-47 -39c-5 -5 -11 -8 -19 -8c-5 0 -11 2 -12 2l-98 36c-1 1 -4 2 -6 2s-4 -1 -8 -4l-31 -28c-7 -5 -13 -9 -22 -9c-11 0 -25 9 -25 24c0 10 5 19 14 26l46 38c5 6 12 9 19 9
c4 0 11 -2 13 -2l98 -36c3 -2 5 -2 5 -2zM321 52c114 0 171 63 171 178v204c0 22 7 34 26 34c21 0 26 -16 26 -34v-406c0 -20 -5 -35 -24 -35c-22 0 -28 16 -28 36v34c-40 -43 -102 -63 -171 -63h-29c-138 0 -222 26 -222 176v258c0 19 5 34 25 34c11 0 27 -4 27 -34v-257
c0 -115 50 -125 170 -125h29z" />
    <glyph glyph-name="Umacron" unicode="&#x16a;" horiz-adv-x="620" 
d="M156 733c0 10 5 26 31 26h245c21 0 34 -10 34 -28c0 -15 -14 -25 -34 -25h-245c-23 0 -31 13 -31 27zM490 611c0 27 16 32 27 32c20 0 25 -17 25 -33v-382c0 -151 -100 -237 -232 -237c-133 0 -232 86 -232 237v382c0 29 16 33 26 33s26 -4 26 -32v-382
c0 -117 65 -186 180 -186s180 69 180 186v382z" />
    <glyph glyph-name="umacron" unicode="&#x16b;" horiz-adv-x="618" 
d="M151 556c0 10 5 26 31 26h245c21 0 34 -10 34 -28c0 -15 -14 -25 -34 -25h-245c-23 0 -31 13 -31 27zM321 52c114 0 171 63 171 178v204c0 22 7 34 26 34c21 0 26 -16 26 -34v-406c0 -20 -5 -35 -24 -35c-22 0 -28 16 -28 36v34c-40 -43 -102 -63 -171 -63h-29
c-138 0 -222 26 -222 176v258c0 19 5 34 25 34c11 0 27 -4 27 -34v-257c0 -115 50 -125 170 -125h29z" />
    <glyph glyph-name="Ubreve" unicode="&#x16c;" horiz-adv-x="620" 
d="M490 611c0 27 16 32 27 32c20 0 25 -17 25 -33v-382c0 -151 -100 -237 -232 -237c-133 0 -232 86 -232 237v382c0 29 16 33 26 33s26 -4 26 -32v-382c0 -117 65 -186 180 -186s180 69 180 186v382zM313 636c-55 0 -120 45 -120 131h53c0 -65 41 -77 67 -77s67 12 67 77
h53c0 -87 -67 -131 -120 -131z" />
    <glyph glyph-name="ubreve" unicode="&#x16d;" horiz-adv-x="618" 
d="M306 529c-55 0 -120 45 -120 131h53c0 -65 41 -77 67 -77s67 12 67 77h53c0 -87 -67 -131 -120 -131zM321 52c114 0 171 63 171 178v204c0 22 7 34 26 34c21 0 26 -16 26 -34v-406c0 -20 -5 -35 -24 -35c-22 0 -28 16 -28 36v34c-40 -43 -102 -63 -171 -63h-29
c-138 0 -222 26 -222 176v258c0 19 5 34 25 34c11 0 27 -4 27 -34v-257c0 -115 50 -125 170 -125h29z" />
    <glyph glyph-name="Uring" unicode="&#x16e;" horiz-adv-x="620" 
d="M490 611c0 27 16 32 27 32c20 0 25 -17 25 -33v-382c0 -151 -100 -237 -232 -237c-133 0 -232 86 -232 237v382c0 29 16 33 26 33s26 -4 26 -32v-382c0 -117 65 -186 180 -186s180 69 180 186v382zM272 716c0 -24 20 -44 44 -44c23 0 44 20 44 44s-22 44 -44 44
c-24 0 -44 -21 -44 -44zM316 797c45 0 81 -36 81 -81s-36 -81 -81 -81s-81 36 -81 81s36 81 81 81z" />
    <glyph glyph-name="uring" unicode="&#x16f;" horiz-adv-x="618" 
d="M321 52c114 0 171 63 171 178v204c0 22 7 34 26 34c21 0 26 -16 26 -34v-406c0 -20 -5 -35 -24 -35c-22 0 -28 16 -28 36v34c-40 -43 -102 -63 -171 -63h-29c-138 0 -222 26 -222 176v258c0 19 5 34 25 34c11 0 27 -4 27 -34v-257c0 -115 50 -125 170 -125h29zM258 598
c0 -24 20 -44 44 -44c23 0 44 20 44 44s-22 44 -44 44c-24 0 -44 -21 -44 -44zM302 679c45 0 81 -36 81 -81s-36 -81 -81 -81s-81 36 -81 81s36 81 81 81z" />
    <glyph glyph-name="Uhungarumlaut" unicode="&#x170;" horiz-adv-x="620" 
d="M490 611c0 27 16 32 27 32c20 0 25 -17 25 -33v-382c0 -151 -100 -237 -232 -237c-133 0 -232 86 -232 237v382c0 29 16 33 26 33s26 -4 26 -32v-382c0 -117 65 -186 180 -186s180 69 180 186v382zM354 761l-96 -115c-9 -10 -17 -15 -25 -15c-10 0 -25 10 -25 25
c0 9 3 16 9 23l96 115c9 10 17 15 25 15c11 0 25 -10 25 -26c0 -7 -3 -15 -9 -22zM474 761l-96 -115c-9 -10 -17 -15 -25 -15c-10 0 -25 10 -25 25c0 9 3 16 9 23l96 115c9 10 17 15 25 15c11 0 25 -10 25 -26c0 -7 -3 -15 -9 -22z" />
    <glyph glyph-name="uhungarumlaut" unicode="&#x171;" horiz-adv-x="618" 
d="M321 52c114 0 171 63 171 178v204c0 22 7 34 26 34c21 0 26 -16 26 -34v-406c0 -20 -5 -35 -24 -35c-22 0 -28 16 -28 36v34c-40 -43 -102 -63 -171 -63h-29c-138 0 -222 26 -222 176v258c0 19 5 34 25 34c11 0 27 -4 27 -34v-257c0 -115 50 -125 170 -125h29zM344 654
l-96 -115c-9 -10 -17 -15 -25 -15c-10 0 -25 10 -25 25c0 9 3 16 9 23l96 115c9 10 17 15 25 15c11 0 25 -10 25 -26c0 -7 -3 -15 -9 -22zM464 654l-96 -115c-9 -10 -17 -15 -25 -15c-10 0 -25 10 -25 25c0 9 3 16 9 23l96 115c9 10 17 15 25 15c11 0 25 -10 25 -26
c0 -7 -3 -15 -9 -22z" />
    <glyph glyph-name="Uogonek" unicode="&#x172;" horiz-adv-x="622" 
d="M325 -155c29 0 51 17 66 17c7 0 15 -3 15 -17c0 -40 -57 -50 -79 -50c-54 0 -96 41 -96 104c0 25 21 63 43 94c-114 15 -195 98 -195 235v382c0 29 16 33 26 33s26 -4 26 -32v-382c0 -117 65 -186 180 -186s180 69 180 186v382c0 27 16 32 27 32c20 0 25 -17 25 -33v-382
c0 -141 -87 -225 -206 -236c-31 -27 -54 -78 -54 -93c0 -27 8 -54 42 -54z" />
    <glyph glyph-name="uogonek" unicode="&#x173;" horiz-adv-x="618" 
d="M513 -155c29 0 51 17 66 17c7 0 15 -3 15 -17c0 -40 -57 -50 -79 -50c-54 0 -96 41 -96 104c0 37 45 102 73 132v32c-40 -43 -102 -63 -171 -63h-29c-138 0 -222 26 -222 176v258c0 19 5 34 25 34c11 0 27 -4 27 -34v-257c0 -115 50 -125 170 -125h29
c114 0 171 63 171 178v204c0 22 7 34 26 34c21 0 26 -16 26 -34v-406c0 -17 -4 -31 -17 -34c-32 -26 -56 -80 -56 -95c0 -27 8 -54 42 -54z" />
    <glyph glyph-name="Wcircumflex" unicode="&#x174;" horiz-adv-x="915" 
d="M322 687l105 132h59l107 -132c3 -4 6 -12 6 -18c0 -7 -2 -23 -23 -23c-14 0 -19 10 -28 20l-91 96l-90 -96c-9 -10 -14 -20 -28 -20c-21 0 -23 16 -23 23c0 6 3 14 6 18zM664 72l172 555c6 17 16 22 28 22c13 0 24 -5 24 -19c0 -6 0 -6 -4 -18l-192 -612h-58l-177 553
l-176 -553h-57l-193 616c-4 12 -4 12 -4 18c0 14 11 19 24 19c12 0 22 -5 28 -22l174 -559l175 554c7 21 22 26 29 26c18 0 27 -13 31 -26z" />
    <glyph glyph-name="wcircumflex" unicode="&#x175;" horiz-adv-x="792" 
d="M261 575l105 132h59l107 -132c3 -4 6 -12 6 -18c0 -7 -2 -23 -23 -23c-14 0 -19 10 -28 20l-91 96l-90 -96c-9 -10 -14 -20 -28 -20c-21 0 -23 16 -23 23c0 6 3 14 6 18zM758 436l-155 -436h-79l-127 374l-137 -374h-79l-146 436c-4 12 -4 12 -4 18c0 14 11 19 24 19
c12 0 22 -5 28 -22l140 -403l146 398c6 15 12 21 29 21s22 -6 27 -21l140 -398l145 403c6 16 16 22 28 22c13 0 24 -5 24 -19c0 -6 0 -6 -4 -18z" />
    <glyph glyph-name="Ycircumflex" unicode="&#x176;" horiz-adv-x="521" 
d="M124 687l105 132h59l107 -132c3 -4 6 -12 6 -18c0 -7 -2 -23 -23 -23c-14 0 -19 10 -28 20l-91 96l-90 -96c-9 -10 -14 -20 -28 -20c-21 0 -23 16 -23 23c0 6 3 14 6 18zM234 308l-209 289c-4 6 -8 13 -8 21c0 16 15 25 25 25s18 -9 25 -18l193 -267l192 267
c11 15 21 18 26 18c10 0 25 -10 25 -25c0 -8 -4 -15 -8 -21l-208 -289v-284c0 -15 -5 -31 -27 -31c-10 0 -26 5 -26 31v284z" />
    <glyph glyph-name="ycircumflex" unicode="&#x177;" horiz-adv-x="619" 
d="M171 570l105 132h59l107 -132c3 -4 6 -12 6 -18c0 -7 -2 -23 -23 -23c-14 0 -19 10 -28 20l-91 96l-90 -96c-9 -10 -14 -20 -28 -20c-21 0 -23 16 -23 23c0 6 3 14 6 18zM544 -87c0 -83 -18 -118 -91 -118h-283c-90 0 -100 59 -100 112c0 18 5 35 26 35
c18 0 26 -11 26 -33c0 -48 15 -62 55 -62h269c39 0 46 11 46 50v166c-40 -43 -102 -63 -171 -63h-29c-138 0 -222 26 -222 176v258c0 19 5 34 25 34c11 0 27 -4 27 -34v-257c0 -115 50 -125 170 -125h29c114 0 171 63 171 178v204c0 22 7 34 26 34c21 0 26 -16 26 -34v-521z
" />
    <glyph glyph-name="Ydieresis" unicode="&#x178;" horiz-adv-x="521" 
d="M234 308l-209 289c-4 6 -8 13 -8 21c0 16 15 25 25 25s18 -9 25 -18l193 -267l192 267c11 15 21 18 26 18c10 0 25 -10 25 -25c0 -8 -4 -15 -8 -21l-208 -289v-284c0 -15 -5 -31 -27 -31c-10 0 -26 5 -26 31v284zM188 784c19 0 51 -17 51 -41c0 -25 -32 -41 -51 -41
c-20 0 -51 16 -51 41c0 24 31 41 51 41zM334 784c19 0 51 -17 51 -41c0 -25 -32 -41 -51 -41c-20 0 -51 16 -51 41c0 24 31 41 51 41z" />
    <glyph glyph-name="Zacute" unicode="&#x179;" horiz-adv-x="555" 
d="M46 0v51l401 543h-366c-22 0 -36 5 -36 26c0 18 12 26 36 26h428v-53l-399 -541h364c21 0 35 -5 35 -27c0 -15 -9 -25 -35 -25h-428zM357 770l-70 -69c-8 -9 -16 -13 -24 -13c-14 0 -26 13 -26 24c0 10 6 18 13 26l69 68c8 9 17 13 25 13c16 0 25 -16 25 -25
s-5 -16 -12 -24z" />
    <glyph glyph-name="zacute" unicode="&#x17a;" horiz-adv-x="552" 
d="M126 52h267c53 0 56 31 56 77c0 20 5 36 26 36c16 0 26 -10 26 -36c0 -90 -20 -129 -100 -129h-342v64l357 345h-250c-51 0 -55 -30 -55 -77c0 -22 -5 -36 -27 -36c-20 0 -25 17 -25 36c0 92 20 129 100 129h321v-67zM401 635l-96 -115c-9 -10 -17 -15 -25 -15
c-10 0 -25 10 -25 25c0 9 3 16 9 23l96 115c9 10 17 15 25 15c11 0 25 -10 25 -26c0 -7 -3 -15 -9 -22z" />
    <glyph glyph-name="Zdotaccent" unicode="&#x17b;" horiz-adv-x="555" 
d="M46 0v51l401 543h-366c-22 0 -36 5 -36 26c0 18 12 26 36 26h428v-53l-399 -541h364c21 0 35 -5 35 -27c0 -15 -9 -25 -35 -25h-428zM267 783c19 0 51 -17 51 -41c0 -25 -32 -41 -51 -41c-20 0 -51 16 -51 41c0 24 31 41 51 41z" />
    <glyph glyph-name="zdotaccent" unicode="&#x17c;" horiz-adv-x="552" 
d="M126 52h267c53 0 56 31 56 77c0 20 5 36 26 36c16 0 26 -10 26 -36c0 -90 -20 -129 -100 -129h-342v64l357 345h-250c-51 0 -55 -30 -55 -77c0 -22 -5 -36 -27 -36c-20 0 -25 17 -25 36c0 92 20 129 100 129h321v-67zM273 599c19 0 51 -17 51 -41c0 -25 -32 -41 -51 -41
c-20 0 -51 16 -51 41c0 24 31 41 51 41z" />
    <glyph glyph-name="Zcaron" unicode="&#x17d;" horiz-adv-x="555" 
d="M46 0v51l401 543h-366c-22 0 -36 5 -36 26c0 18 12 26 36 26h428v-53l-399 -541h364c21 0 35 -5 35 -27c0 -15 -9 -25 -35 -25h-428zM309 675h-56l-104 109c-4 4 -7 8 -7 15c0 8 5 20 23 20c7 0 14 -2 32 -17l84 -70l84 70c18 15 25 17 32 17c18 0 23 -12 23 -20
c0 -7 -3 -11 -7 -15z" />
    <glyph glyph-name="zcaron" unicode="&#x17e;" horiz-adv-x="552" 
d="M293 522h-56l-104 109c-4 4 -7 8 -7 15c0 8 5 20 23 20c7 0 14 -2 32 -17l84 -70l84 70c18 15 25 17 32 17c18 0 23 -12 23 -20c0 -7 -3 -11 -7 -15zM126 52h267c53 0 56 31 56 77c0 20 5 36 26 36c16 0 26 -10 26 -36c0 -90 -20 -129 -100 -129h-342v64l357 345h-250
c-51 0 -55 -30 -55 -77c0 -22 -5 -36 -27 -36c-20 0 -25 17 -25 36c0 92 20 129 100 129h321v-67z" />
    <glyph glyph-name="florin" unicode="&#x192;" horiz-adv-x="333" 
d="M136 46c0 -131 -49 -151 -149 -151c-20 0 -36 5 -36 27c0 20 17 25 36 25c87 0 93 8 93 126v337c-17 1 -31 7 -31 26c0 17 11 24 31 25c2 152 93 175 223 175c23 0 36 -8 36 -28c0 -19 -17 -24 -36 -24c-112 0 -165 -10 -167 -123h144c20 0 36 -6 36 -28
c0 -19 -16 -24 -36 -24h-144v-363z" />
    <glyph glyph-name="Ohorn" unicode="&#x1a0;" horiz-adv-x="630" 
d="M297 593c-115 0 -180 -70 -180 -186v-178c0 -117 65 -186 180 -186s180 69 180 186v178c0 116 -65 186 -180 186zM297 -9c-133 0 -232 86 -232 237v180c0 151 99 237 232 237c81 0 151 -33 192 -93c67 0 95 12 95 48c0 12 -8 23 -23 35c-12 9 -15 19 -15 26
c0 16 16 25 25 25s17 -5 23 -11c26 -22 44 -51 44 -79c0 -66 -56 -89 -124 -94c10 -28 15 -59 15 -94v-180c0 -151 -100 -237 -232 -237z" />
    <glyph glyph-name="ohorn" unicode="&#x1a1;" horiz-adv-x="651" 
d="M285 52h29c120 0 170 10 170 125v107c0 115 -50 125 -170 125h-29c-121 0 -171 -10 -171 -125v-107c0 -115 50 -125 171 -125zM314 0h-29c-139 0 -223 26 -223 176v109c0 150 84 176 223 176h29c109 0 184 -17 211 -98c56 2 80 15 80 48c0 12 -8 23 -23 35
c-12 9 -15 19 -15 26c0 16 16 25 25 25s17 -5 23 -11c26 -22 44 -51 44 -79c0 -66 -56 -89 -124 -94c1 -9 1 -18 1 -28v-109c0 -150 -84 -176 -222 -176z" />
    <glyph glyph-name="Uhorn" unicode="&#x1af;" horiz-adv-x="651" 
d="M490 611c0 27 16 32 27 32c20 0 25 -17 25 -33v-62c47 4 67 17 67 47c0 12 -8 23 -23 35c-12 9 -15 19 -15 26c0 16 16 25 25 25s17 -5 23 -11c26 -22 44 -51 44 -79c0 -65 -54 -89 -121 -94v-269c0 -151 -100 -237 -232 -237c-133 0 -232 86 -232 237v382
c0 29 16 33 26 33s26 -4 26 -32v-382c0 -117 65 -186 180 -186s180 69 180 186v382z" />
    <glyph glyph-name="uhorn" unicode="&#x1b0;" horiz-adv-x="657" 
d="M321 52c114 0 171 63 171 178v204c0 22 7 34 26 34c21 0 26 -16 26 -34v-63c49 3 70 16 70 47c0 12 -8 23 -23 35c-12 9 -15 19 -15 26c0 16 16 25 25 25s17 -5 23 -11c26 -22 44 -51 44 -79c0 -66 -56 -89 -124 -94v-292c0 -20 -5 -35 -24 -35c-22 0 -28 16 -28 36v34
c-40 -43 -102 -63 -171 -63h-29c-138 0 -222 26 -222 176v258c0 19 5 34 25 34c11 0 27 -4 27 -34v-257c0 -115 50 -125 170 -125h29z" />
    <glyph glyph-name="Scommaaccent" unicode="&#x218;" horiz-adv-x="600" 
d="M333 -79c0 -5 -1 -12 -5 -19l-41 -83c-6 -14 -13 -24 -25 -24c-10 0 -22 5 -22 25c0 3 1 8 3 16l24 87c5 17 15 23 25 23c8 0 41 -5 41 -25zM114 481c0 -55 28 -95 60 -102l237 -51c97 -21 127 -98 127 -172c0 -75 -37 -164 -170 -164h-83c-138 0 -223 25 -223 180
c0 21 10 33 28 33c15 0 25 -13 25 -33c0 -117 48 -128 170 -128h102c80 0 99 73 99 113c0 72 -37 110 -60 115l-235 52c-95 21 -129 69 -129 158c0 75 38 162 177 162h76c137 0 223 -23 223 -178c0 -21 -10 -33 -27 -33c-16 0 -26 13 -26 33c0 117 -48 126 -170 126h-98
c-80 0 -103 -68 -103 -111z" />
    <glyph glyph-name="scommaaccent" unicode="&#x219;" horiz-adv-x="586" 
d="M335 -79c0 -5 -1 -12 -5 -19l-41 -83c-6 -14 -13 -24 -25 -24c-10 0 -22 5 -22 25c0 3 1 8 3 16l24 87c5 17 15 23 25 23c8 0 41 -5 41 -25zM160 0c-90 0 -100 58 -100 111c0 24 8 36 26 36s26 -11 26 -33c0 -44 11 -62 55 -62h248c43 0 59 31 59 74c0 50 -24 84 -59 84
h-226c-97 0 -129 58 -129 130c0 74 31 121 139 121h225c90 0 100 -59 100 -112c0 -18 -5 -35 -26 -35c-10 0 -26 4 -26 33c0 48 -15 62 -55 62h-246c-35 0 -59 -18 -59 -69c0 -52 26 -78 59 -78h227c102 0 128 -70 128 -136c0 -77 -33 -126 -138 -126h-228z" />
    <glyph glyph-name="uni021A" unicode="&#x21a;" horiz-adv-x="481" 
d="M287 -79c0 -5 -1 -12 -5 -19l-41 -83c-6 -14 -13 -24 -25 -24c-10 0 -22 5 -22 25c0 3 1 8 3 16l24 87c5 17 15 23 25 23c8 0 41 -5 41 -25zM421 636c24 0 33 -11 33 -27c0 -20 -17 -25 -33 -25h-152v-559c0 -27 -18 -32 -29 -32s-26 5 -26 32v559h-154
c-29 0 -33 16 -33 26s4 26 33 26h361z" />
    <glyph glyph-name="uni021B" unicode="&#x21b;" horiz-adv-x="344" 
d="M223 -79c0 -5 -1 -12 -5 -19l-41 -83c-6 -14 -13 -24 -25 -24c-10 0 -22 5 -22 25c0 3 1 8 3 16l24 87c5 17 15 23 25 23c8 0 41 -5 41 -25zM130 177c0 -115 50 -125 161 -125c20 0 35 -5 35 -24c0 -22 -15 -28 -35 -28c-129 0 -213 27 -213 176v234c-18 1 -31 7 -31 27
c0 16 11 23 31 24v104c0 20 5 36 24 36c22 0 28 -16 28 -36v-104h138c20 0 36 -6 36 -28c0 -19 -16 -24 -36 -24h-138v-232z" />
    <glyph glyph-name="uni0237" unicode="&#x237;" horiz-adv-x="202" 
d="M127 0c0 -153 -85 -175 -213 -175c-19 0 -36 5 -36 27c0 19 13 25 36 25c111 0 161 10 161 123v432c0 20 5 36 27 36c18 0 25 -12 25 -36v-432z" />
    <glyph glyph-name="circumflex" unicode="&#x2c6;" horiz-adv-x="402" 
d="M66 546l105 132h59l107 -132c3 -4 6 -12 6 -18c0 -7 -2 -23 -23 -23c-14 0 -19 10 -28 20l-91 96l-90 -96c-9 -10 -14 -20 -28 -20c-21 0 -23 16 -23 23c0 6 3 14 6 18z" />
    <glyph glyph-name="caron" unicode="&#x2c7;" horiz-adv-x="373" 
d="M217 522h-56l-104 109c-4 4 -7 8 -7 15c0 8 5 20 23 20c7 0 14 -2 32 -17l84 -70l84 70c18 15 25 17 32 17c18 0 23 -12 23 -20c0 -7 -3 -11 -7 -15z" />
    <glyph glyph-name="breve" unicode="&#x2d8;" horiz-adv-x="426" 
d="M213 601c-55 0 -120 45 -120 131h53c0 -65 41 -77 67 -77s67 12 67 77h53c0 -87 -67 -131 -120 -131z" />
    <glyph glyph-name="dotaccent" unicode="&#x2d9;" horiz-adv-x="221" 
d="M111 671c19 0 51 -17 51 -41c0 -25 -32 -41 -51 -41c-20 0 -51 16 -51 41c0 24 31 41 51 41z" />
    <glyph glyph-name="ring" unicode="&#x2da;" horiz-adv-x="282" 
d="M97 598c0 -24 20 -44 44 -44c23 0 44 20 44 44s-22 44 -44 44c-24 0 -44 -21 -44 -44zM141 679c45 0 81 -36 81 -81s-36 -81 -81 -81s-81 36 -81 81s36 81 81 81z" />
    <glyph glyph-name="ogonek" unicode="&#x2db;" horiz-adv-x="234" 
d="M134 -151c29 0 51 17 66 17c7 0 15 -3 15 -17c0 -40 -57 -50 -79 -50c-54 0 -96 41 -96 104c0 40 53 113 80 139l38 -37c-37 -22 -66 -85 -66 -102c0 -27 8 -54 42 -54z" />
    <glyph glyph-name="tilde" unicode="&#x2dc;" horiz-adv-x="401" 
d="M255 234c2 0 4 1 8 4l31 28c7 5 13 9 22 9c12 0 26 -8 26 -23c0 -8 -4 -18 -14 -27l-47 -39c-5 -5 -11 -8 -19 -8c-5 0 -11 2 -12 2l-98 36c-1 1 -4 2 -6 2s-4 -1 -8 -4l-31 -28c-7 -5 -13 -9 -22 -9c-11 0 -25 9 -25 24c0 10 5 19 14 26l46 38c5 6 12 9 19 9
c4 0 11 -2 13 -2l98 -36c3 -2 5 -2 5 -2z" />
    <glyph glyph-name="hungarumlaut" unicode="&#x2dd;" horiz-adv-x="333" 
d="M175 635l-96 -115c-9 -10 -17 -15 -25 -15c-10 0 -25 10 -25 25c0 9 3 16 9 23l96 115c9 10 17 15 25 15c11 0 25 -10 25 -26c0 -7 -3 -15 -9 -22zM295 635l-96 -115c-9 -10 -17 -15 -25 -15c-10 0 -25 10 -25 25c0 9 3 16 9 23l96 115c9 10 17 15 25 15
c11 0 25 -10 25 -26c0 -7 -3 -15 -9 -22z" />
    <glyph glyph-name="gravecomb" unicode="&#x300;" horiz-adv-x="0" 
d="M-349 636c8 0 16 -4 24 -13l70 -69c7 -8 12 -15 12 -25s-10 -24 -25 -24c-8 0 -17 4 -25 13l-69 68c-8 9 -13 16 -13 25c0 10 12 25 26 25z" />
    <glyph glyph-name="acutecomb" unicode="&#x301;" horiz-adv-x="0" 
d="M-255 587l-70 -69c-8 -9 -16 -13 -24 -13c-14 0 -26 13 -26 24c0 10 6 18 13 26l69 68c8 9 17 13 25 13c16 0 25 -16 25 -25s-5 -16 -12 -24z" />
    <glyph glyph-name="uni0302" unicode="&#x302;" horiz-adv-x="0" 
d="M-437 546l105 132h59l107 -132c3 -4 6 -12 6 -18c0 -7 -2 -23 -23 -23c-14 0 -19 10 -28 20l-91 96l-90 -96c-9 -10 -14 -20 -28 -20c-21 0 -23 16 -23 23c0 6 3 14 6 18z" />
    <glyph glyph-name="tildecomb" unicode="&#x303;" horiz-adv-x="0" 
d="M-241 546c2 0 4 1 8 4l31 28c7 5 13 9 22 9c12 0 26 -8 26 -23c0 -8 -4 -18 -14 -27l-47 -39c-5 -5 -11 -8 -19 -8c-5 0 -11 2 -12 2l-98 36c-1 1 -4 2 -6 2s-4 -1 -8 -4l-31 -28c-7 -5 -13 -9 -22 -9c-11 0 -25 9 -25 24c0 10 5 19 14 26l46 38c5 6 12 9 19 9
c4 0 11 -2 13 -2l98 -36c3 -2 5 -2 5 -2z" />
    <glyph glyph-name="uni0304" unicode="&#x304;" horiz-adv-x="0" 
d="M-456 539c0 10 5 26 31 26h245c21 0 34 -10 34 -28c0 -15 -14 -25 -34 -25h-245c-23 0 -31 13 -31 27z" />
    <glyph glyph-name="uni0306" unicode="&#x306;" horiz-adv-x="0" 
d="M-305 499c-55 0 -120 45 -120 131h53c0 -65 41 -77 67 -77s67 12 67 77h53c0 -87 -67 -131 -120 -131z" />
    <glyph glyph-name="uni0307" unicode="&#x307;" horiz-adv-x="0" 
d="M-307 599c19 0 51 -16 51 -41c0 -24 -32 -41 -51 -41c-20 0 -51 17 -51 41c0 25 31 41 51 41z" />
    <glyph glyph-name="uni0308" unicode="&#x308;" horiz-adv-x="0" 
d="M-381 587c19 0 51 -17 51 -41c0 -25 -32 -41 -51 -41c-20 0 -51 16 -51 41c0 24 31 41 51 41zM-235 587c19 0 51 -17 51 -41c0 -25 -32 -41 -51 -41c-20 0 -51 16 -51 41c0 24 31 41 51 41z" />
    <glyph glyph-name="hookabovecomb" unicode="&#x309;" horiz-adv-x="0" 
d="M-308 592c0 -17 -17 -18 -21 -18c-15 0 -21 10 -21 18c0 41 41 58 69 58c39 0 63 -29 63 -68c0 -54 -54 -45 -54 -73c0 -17 -14 -19 -20 -19c-15 0 -24 10 -24 19c0 58 54 46 54 78c0 15 -14 21 -21 21c-22 0 -25 -11 -25 -16z" />
    <glyph glyph-name="uni030A" unicode="&#x30a;" horiz-adv-x="0" 
d="M-351 586c0 -24 20 -44 44 -44c23 0 44 20 44 44s-22 44 -44 44c-24 0 -44 -21 -44 -44zM-307 667c45 0 81 -36 81 -81s-36 -81 -81 -81s-81 36 -81 81s36 81 81 81z" />
    <glyph glyph-name="uni030B" unicode="&#x30b;" horiz-adv-x="0" 
d="M-295 587l-70 -69c-8 -9 -16 -13 -24 -13c-14 0 -26 13 -26 24c0 10 6 18 13 26l69 68c8 9 17 13 25 13c16 0 25 -16 25 -25s-5 -16 -12 -24zM-195 587l-70 -69c-8 -9 -16 -13 -24 -13c-14 0 -26 13 -26 24c0 10 6 18 13 26l69 68c8 9 17 13 25 13c16 0 25 -16 25 -25
s-5 -16 -12 -24z" />
    <glyph glyph-name="uni030C" unicode="&#x30c;" horiz-adv-x="0" 
d="M-271 522h-56l-104 109c-4 4 -7 8 -7 15c0 8 5 20 23 20c7 0 14 -2 32 -17l84 -70l84 70c18 15 25 17 32 17c18 0 23 -12 23 -20c0 -7 -3 -11 -7 -15z" />
    <glyph glyph-name="uni0311" unicode="&#x311;" horiz-adv-x="0" 
d="M-305 630c55 0 120 -45 120 -131h-53c0 65 -41 77 -67 77s-67 -12 -67 -77h-53c0 87 67 131 120 131z" />
    <glyph glyph-name="commaturnedabovecmb" unicode="&#x312;" horiz-adv-x="0" 
d="M-267 546c0 5 1 12 5 19l41 83c6 14 13 24 25 24c10 0 22 -5 22 -25c0 -3 -1 -8 -3 -16l-24 -86c-5 -17 -15 -24 -25 -24c-8 0 -41 5 -41 25z" />
    <glyph glyph-name="uni0313" unicode="&#x313;" horiz-adv-x="0" 
d="M-300 622c0 31 31 49 51 49c24 0 51 -22 51 -49c0 -44 -47 -126 -71 -126c-10 0 -17 7 -17 20c0 20 21 36 21 63c-21 6 -35 30 -35 43z" />
    <glyph glyph-name="uni031B" unicode="&#x31b;" horiz-adv-x="99" 
d="M-62 552c68 0 97 12 97 48c0 12 -8 23 -23 35c-12 9 -15 19 -15 26c0 16 16 25 25 25s17 -5 23 -11c26 -22 44 -51 44 -79c0 -74 -71 -95 -151 -95v51z" />
    <glyph glyph-name="dotbelowcomb" unicode="&#x323;" horiz-adv-x="0" 
d="M-307 -57c19 0 51 -16 51 -41c0 -24 -32 -41 -51 -41c-20 0 -51 17 -51 41c0 25 31 41 51 41z" />
    <glyph glyph-name="uni0326" unicode="&#x326;" horiz-adv-x="0" 
d="M-270 -73c0 -5 -1 -12 -5 -19l-41 -83c-6 -14 -13 -24 -25 -24c-10 0 -22 5 -22 25c0 3 1 8 3 16l24 87c5 17 15 23 25 23c8 0 41 -5 41 -25z" />
    <glyph glyph-name="uni0327" unicode="&#x327;" horiz-adv-x="0" 
d="M-274 10c0 -49 69 -44 69 -104c0 -50 -44 -81 -96 -81c-22 0 -79 10 -79 50c0 11 7 18 15 18c15 0 40 -18 66 -18c32 0 42 8 42 26c0 31 -69 39 -69 109h52z" />
    <glyph glyph-name="uni0328" unicode="&#x328;" horiz-adv-x="0" 
d="M-190 -151c29 0 51 17 66 17c7 0 15 -3 15 -17c0 -40 -57 -50 -79 -50c-54 0 -96 41 -96 104c0 40 53 113 80 139l38 -37c-37 -22 -66 -85 -66 -102c0 -27 8 -54 42 -54z" />
    <glyph glyph-name="uni0334" unicode="&#x334;" horiz-adv-x="401" 
d="M-150 275c14 0 34 -7 34 -23c0 -27 -73 -74 -108 -74c-48 0 -127 40 -159 40c-38 0 -53 -41 -84 -41c-12 0 -32 7 -32 24c0 27 72 73 106 73c48 0 128 -40 160 -40c38 0 52 41 83 41z" />
    <glyph glyph-name="uni0335" unicode="&#x335;" horiz-adv-x="0" 
d="M-456 239c0 10 5 26 31 26h245c21 0 34 -10 34 -28c0 -15 -14 -25 -34 -25h-245c-23 0 -31 13 -31 27z" />
    <glyph glyph-name="uni0337" unicode="&#x337;" horiz-adv-x="0" 
d="M-183 282c0 -16 -19 -24 -25 -27l-170 -84c-5 -2 -10 -3 -15 -3c-21 0 -26 19 -26 28c0 11 10 18 22 24l170 85c5 1 10 3 17 3c16 0 27 -12 27 -26z" />
    <glyph glyph-name="uni037A" unicode="&#x37a;" horiz-adv-x="266" 
d="M192 -179h-7c-80 0 -100 37 -100 129v39c0 16 5 30 26 30c19 0 26 -10 26 -30v-57c0 -42 11 -59 55 -59c21 0 35 -5 35 -27c0 -15 -9 -25 -35 -25z" />
    <glyph glyph-name="questiongreek" unicode="&#x37e;" horiz-adv-x="251" 
d="M173 92c0 -5 -1 -12 -5 -19l-41 -83c-6 -14 -13 -24 -25 -24c-10 0 -22 5 -22 25c0 3 1 8 3 16l24 87c5 17 15 23 25 23c8 0 41 -5 41 -25zM124 474c19 0 51 -17 51 -41c0 -25 -32 -41 -51 -41c-20 0 -51 16 -51 41c0 24 31 41 51 41z" />
    <glyph glyph-name="tonos" unicode="&#x384;" horiz-adv-x="249" 
d="M149 648c11 0 25 -5 25 -27c0 -2 0 -7 -1 -11l-45 -157c-4 -21 -13 -35 -25 -35c-15 0 -28 14 -28 36c0 4 1 9 2 12l44 157c4 12 11 25 28 25z" />
    <glyph glyph-name="dieresistonos" unicode="&#x385;" horiz-adv-x="383" 
d="M99 587c19 0 51 -17 51 -41c0 -25 -32 -41 -51 -41c-20 0 -51 16 -51 41c0 24 31 41 51 41zM245 587c19 0 51 -17 51 -41c0 -25 -32 -41 -51 -41c-20 0 -51 16 -51 41c0 24 31 41 51 41zM227 814c11 0 25 -5 25 -27c0 -2 0 -7 -1 -11l-45 -157c-4 -21 -13 -35 -25 -35
c-15 0 -28 14 -28 36c0 4 1 9 2 12l44 157c4 12 11 25 28 25z" />
    <glyph glyph-name="Alphatonos" unicode="&#x386;" horiz-adv-x="576" 
d="M322 636l227 -611c2 -6 3 -11 3 -16c0 -20 -19 -25 -26 -25c-12 0 -21 9 -27 23l-71 192h-274l-71 -192c-5 -12 -15 -23 -27 -23c-7 0 -26 5 -26 25c0 5 1 10 3 16l227 611h62zM290 560l-116 -309h234zM185 750c11 0 25 -5 25 -27c0 -2 0 -7 -1 -11l-45 -157
c-4 -21 -13 -35 -25 -35c-15 0 -28 14 -28 36c0 4 1 9 2 12l44 157c4 12 11 25 28 25z" />
    <glyph glyph-name="anoteleia" unicode="&#x387;" horiz-adv-x="242" 
d="M121 428c19 0 51 -17 51 -41c0 -25 -32 -41 -51 -41c-20 0 -51 16 -51 41c0 24 31 41 51 41z" />
    <glyph glyph-name="Epsilontonos" unicode="&#x388;" horiz-adv-x="641" 
d="M179 332v-280h378c23 0 34 -9 34 -28s-12 -24 -34 -24h-406c-19 0 -24 15 -24 36v564c0 20 5 36 24 36h406c23 0 34 -9 34 -28s-12 -24 -34 -24h-378v-200h259c20 0 36 -6 36 -28c0 -19 -14 -24 -36 -24h-259zM93 750c11 0 25 -5 25 -27c0 -2 0 -7 -1 -11l-45 -157
c-4 -21 -13 -35 -25 -35c-15 0 -28 14 -28 36c0 4 1 9 2 12l44 157c4 12 11 25 28 25z" />
    <glyph glyph-name="Etatonos" unicode="&#x389;" horiz-adv-x="678" 
d="M182 27c0 -22 -7 -34 -26 -34c-21 0 -26 16 -26 34v581c0 20 5 35 24 35c22 0 28 -16 28 -35v-239h360v239c0 18 5 35 25 35c22 0 27 -16 27 -35v-581c0 -19 -5 -34 -25 -34c-11 0 -27 4 -27 34v290h-360v-290zM92 746c11 0 25 -5 25 -27c0 -2 0 -7 -1 -11l-45 -157
c-4 -21 -13 -35 -25 -35c-15 0 -28 14 -28 36c0 4 1 9 2 12l44 157c4 12 11 25 28 25z" />
    <glyph glyph-name="Iotatonos" unicode="&#x38a;" horiz-adv-x="269" 
d="M185 25c0 -16 -5 -32 -27 -32c-10 0 -25 5 -25 32v585c0 29 16 33 26 33s26 -4 26 -33v-585zM91 750c11 0 25 -5 25 -27c0 -2 0 -7 -1 -11l-45 -157c-4 -21 -13 -35 -25 -35c-15 0 -28 14 -28 36c0 4 1 9 2 12l44 157c4 12 11 25 28 25z" />
    <glyph glyph-name="Omicrontonos" unicode="&#x38c;" horiz-adv-x="624" 
d="M327 -9c-133 0 -232 86 -232 237v180c0 151 99 237 232 237c132 0 232 -86 232 -237v-180c0 -151 -100 -237 -232 -237zM327 593c-115 0 -180 -70 -180 -186v-178c0 -117 65 -186 180 -186s180 69 180 186v178c0 116 -65 186 -180 186zM105 750c11 0 25 -5 25 -27
c0 -2 0 -7 -1 -11l-45 -157c-4 -21 -13 -35 -25 -35c-15 0 -28 14 -28 36c0 4 1 9 2 12l44 157c4 12 11 25 28 25z" />
    <glyph glyph-name="Upsilontonos" unicode="&#x38e;" horiz-adv-x="633" 
d="M346 308l-209 289c-4 6 -8 13 -8 21c0 16 15 25 25 25s18 -9 25 -18l193 -267l192 267c11 15 21 18 26 18c10 0 25 -10 25 -25c0 -8 -4 -15 -8 -21l-208 -289v-284c0 -15 -5 -31 -27 -31c-10 0 -26 5 -26 31v284zM99 746c11 0 25 -5 25 -27c0 -2 0 -7 -1 -11l-45 -157
c-4 -21 -13 -35 -25 -35c-15 0 -28 14 -28 36c0 4 1 9 2 12l44 157c4 12 11 25 28 25z" />
    <glyph glyph-name="Omegatonos" unicode="&#x38f;" horiz-adv-x="622" 
d="M146 326c0 -145 98 -173 133 -182v-45c0 -94 -13 -99 -93 -99h-57c-18 0 -35 5 -35 26s17 26 35 26h50c45 0 46 2 46 32v26c-79 33 -131 107 -131 217v81c0 151 99 237 232 237c132 0 232 -86 232 -237v-81c0 -110 -52 -184 -131 -217v-27c0 -30 1 -31 46 -31h50
c18 0 35 -5 35 -26s-17 -26 -35 -26h-57c-80 0 -93 4 -93 99v46c36 8 133 36 133 181v81c0 116 -66 186 -180 186s-180 -70 -180 -186v-81zM112 750c11 0 25 -5 25 -27c0 -2 0 -7 -1 -11l-45 -157c-4 -21 -13 -35 -25 -35c-15 0 -28 14 -28 36c0 4 1 9 2 12l44 157
c4 12 11 25 28 25z" />
    <glyph glyph-name="iotadieresistonos" unicode="&#x390;" horiz-adv-x="228" 
d="M25 593c19 0 51 -17 51 -41c0 -25 -32 -41 -51 -41c-20 0 -51 16 -51 41c0 24 31 41 51 41zM171 593c19 0 51 -17 51 -41c0 -25 -32 -41 -51 -41c-20 0 -51 16 -51 41c0 24 31 41 51 41zM153 820c11 0 25 -5 25 -27c0 -2 0 -7 -1 -11l-45 -157c-4 -21 -13 -35 -25 -35
c-15 0 -28 14 -28 36c0 4 1 9 2 12l44 157c4 12 11 25 28 25zM179 0h-7c-80 0 -100 36 -100 126v308c0 18 5 34 26 34c19 0 26 -12 26 -34v-324c0 -41 11 -58 55 -58c21 0 35 -5 35 -27c0 -15 -9 -25 -35 -25z" />
    <glyph glyph-name="Alpha" unicode="&#x391;" horiz-adv-x="570" 
d="M316 636l227 -611c2 -6 3 -11 3 -16c0 -20 -19 -25 -26 -25c-12 0 -21 9 -27 23l-71 192h-274l-71 -192c-5 -12 -15 -23 -27 -23c-7 0 -26 5 -26 25c0 5 1 10 3 16l227 611h62zM284 560l-116 -309h234z" />
    <glyph glyph-name="Beta" unicode="&#x392;" horiz-adv-x="605" 
d="M136 332v-280h190c120 0 170 11 170 126v28c0 115 -50 126 -164 126h-196zM84 36v564c0 20 5 36 24 36h180c133 0 218 -24 218 -150c0 -56 -18 -89 -49 -112c58 -22 91 -67 91 -165v-29c0 -154 -84 -180 -222 -180h-218c-19 0 -24 16 -24 36zM288 384
c116 0 166 15 166 97c0 90 -54 98 -166 98h-152v-195h152z" />
    <glyph glyph-name="Gamma" unicode="&#x393;" horiz-adv-x="557" 
d="M189 584c-44 0 -55 -18 -55 -59v-498c0 -22 -8 -34 -27 -34c-15 0 -25 9 -25 34v482c0 90 20 127 100 127h315c18 0 35 -5 35 -26s-17 -26 -35 -26h-308z" />
    <glyph glyph-name="Delta" unicode="&#x394;" horiz-adv-x="552" 
d="M500 0h-448c-16 0 -27 10 -27 25c0 4 1 10 3 15l219 581c6 17 17 23 29 23s23 -6 29 -23l219 -581c2 -5 3 -11 3 -15c0 -15 -11 -25 -27 -25zM88 53h376l-188 501z" />
    <glyph glyph-name="Epsilon" unicode="&#x395;" 
d="M136 332v-280h378c23 0 34 -9 34 -28s-12 -24 -34 -24h-406c-19 0 -24 15 -24 36v564c0 20 5 36 24 36h406c23 0 34 -9 34 -28s-12 -24 -34 -24h-378v-200h259c20 0 36 -6 36 -28c0 -19 -14 -24 -36 -24h-259z" />
    <glyph glyph-name="Zeta" unicode="&#x396;" horiz-adv-x="555" 
d="M46 0v51l401 543h-366c-22 0 -36 5 -36 26c0 18 12 26 36 26h428v-53l-399 -541h364c21 0 35 -5 35 -27c0 -15 -9 -25 -35 -25h-428z" />
    <glyph glyph-name="Eta" unicode="&#x397;" horiz-adv-x="632" 
d="M136 27c0 -22 -7 -34 -26 -34c-21 0 -26 16 -26 34v581c0 20 5 35 24 35c22 0 28 -16 28 -35v-239h360v239c0 18 5 35 25 35c22 0 27 -16 27 -35v-581c0 -19 -5 -34 -25 -34c-11 0 -27 4 -27 34v290h-360v-290z" />
    <glyph glyph-name="Theta" unicode="&#x398;" horiz-adv-x="594" 
d="M209 291c-22 0 -32 13 -32 27c0 15 10 26 32 26h173c21 0 35 -10 35 -26s-15 -27 -35 -27h-173zM297 -9c-133 0 -232 86 -232 237v180c0 151 99 237 232 237c132 0 232 -86 232 -237v-180c0 -151 -100 -237 -232 -237zM297 593c-115 0 -180 -70 -180 -186v-178
c0 -117 65 -186 180 -186s180 69 180 186v178c0 116 -65 186 -180 186z" />
    <glyph glyph-name="Iota" unicode="&#x399;" horiz-adv-x="220" 
d="M136 25c0 -16 -5 -32 -27 -32c-10 0 -25 5 -25 32v585c0 29 16 33 26 33s26 -4 26 -33v-585z" />
    <glyph glyph-name="Kappa" unicode="&#x39a;" horiz-adv-x="518" 
d="M514 18c0 -15 -16 -25 -26 -25s-18 6 -25 15l-274 314l-53 -64v-233c0 -15 -5 -32 -27 -32c-10 0 -25 5 -25 32v585c0 29 16 33 26 33s26 -4 26 -33v-280l261 298c7 10 15 15 25 15s25 -10 25 -24c0 -8 -4 -16 -10 -24l-213 -239l279 -315c7 -8 11 -15 11 -23z" />
    <glyph glyph-name="Lambda" unicode="&#x39b;" horiz-adv-x="570" 
d="M50 -16c-7 0 -26 4 -26 20c0 5 1 11 3 18l231 614h54l231 -614c2 -7 3 -13 3 -18c0 -16 -19 -20 -26 -20c-12 0 -21 8 -27 20l-209 555l-207 -555c-5 -12 -15 -20 -27 -20z" />
    <glyph glyph-name="Mu" unicode="&#x39c;" horiz-adv-x="653" 
d="M326 279c-3 0 -11 0 -17 8l-173 258v-517c0 -23 -7 -35 -26 -35c-21 0 -26 16 -26 34v581c0 20 5 35 24 35c12 0 21 -5 30 -19l188 -278l189 278c9 13 17 19 29 19c20 0 25 -15 25 -35v-581c0 -22 -8 -34 -27 -34c-20 0 -25 15 -25 35v517l-173 -258c-4 -5 -11 -8 -18 -8
z" />
    <glyph glyph-name="Nu" unicode="&#x39d;" horiz-adv-x="632" 
d="M523 -7c-8 0 -16 2 -20 7l-367 543v-517c0 -22 -7 -33 -26 -33c-21 0 -26 16 -26 34v581c0 20 5 35 24 35c12 0 21 -5 30 -19l358 -528v511c0 19 5 36 25 36c22 0 27 -16 27 -35v-581c0 -19 -5 -34 -25 -34z" />
    <glyph glyph-name="Xi" unicode="&#x39e;" horiz-adv-x="609" 
d="M202 291c-22 0 -32 13 -32 27c0 15 10 26 32 26h203c21 0 35 -10 35 -26s-15 -27 -35 -27h-203zM84 595c-22 0 -31 10 -31 26c0 10 5 26 31 26h440c29 0 34 -17 34 -28c0 -10 -6 -24 -34 -24h-440zM84 0c-22 0 -31 10 -31 26c0 10 5 26 31 26h440c29 0 34 -17 34 -28
c0 -10 -6 -24 -34 -24h-440z" />
    <glyph glyph-name="Omicron" unicode="&#x39f;" horiz-adv-x="594" 
d="M297 -9c-133 0 -232 86 -232 237v180c0 151 99 237 232 237c132 0 232 -86 232 -237v-180c0 -151 -100 -237 -232 -237zM297 593c-115 0 -180 -70 -180 -186v-178c0 -117 65 -186 180 -186s180 69 180 186v178c0 116 -65 186 -180 186z" />
    <glyph glyph-name="Pi" unicode="&#x3a0;" horiz-adv-x="624" 
d="M85 636h454v-609c0 -19 -5 -34 -25 -34c-11 0 -27 4 -27 34v557h-350v-557c0 -22 -7 -34 -26 -34c-21 0 -26 16 -26 34v609z" />
    <glyph glyph-name="Rho" unicode="&#x3a1;" horiz-adv-x="542" 
d="M136 25c0 -16 -5 -32 -27 -32c-10 0 -25 5 -25 32v575c0 20 5 36 24 36h181c132 0 217 -29 217 -155c0 -101 -65 -154 -173 -154h-197v-302zM289 379c116 0 165 15 165 102c0 90 -53 103 -165 103h-153v-205h153z" />
    <glyph glyph-name="Sigma" unicode="&#x3a3;" horiz-adv-x="577" 
d="M30 622c0 10 5 25 31 25h440c29 0 34 -17 34 -28c0 -10 -6 -24 -34 -24h-389l223 -250c4 -5 11 -13 11 -22s-4 -15 -10 -22l-224 -249h389c29 0 34 -17 34 -28c0 -10 -6 -24 -34 -24h-446c-13 0 -25 10 -25 25c0 9 1 12 10 23l243 275l-243 276c-5 5 -10 9 -10 23z" />
    <glyph glyph-name="Tau" unicode="&#x3a4;" horiz-adv-x="481" 
d="M421 636c24 0 33 -11 33 -27c0 -20 -17 -25 -33 -25h-152v-559c0 -27 -18 -32 -29 -32s-26 5 -26 32v559h-154c-29 0 -33 16 -33 26s4 26 33 26h361z" />
    <glyph glyph-name="Upsilon" unicode="&#x3a5;" horiz-adv-x="521" 
d="M234 308l-209 289c-4 6 -8 13 -8 21c0 16 15 25 25 25s18 -9 25 -18l193 -267l192 267c11 15 21 18 26 18c10 0 25 -10 25 -25c0 -8 -4 -15 -8 -21l-208 -289v-284c0 -15 -5 -31 -27 -31c-10 0 -26 5 -26 31v284z" />
    <glyph glyph-name="Phi" unicode="&#x3a6;" horiz-adv-x="548" 
d="M303 25c0 -16 -5 -32 -28 -32c-10 0 -26 5 -26 32v51c-121 10 -207 94 -207 236v12c0 142 86 226 207 236v50c0 29 16 33 27 33s27 -4 27 -33v-50c118 -12 203 -95 203 -236v-12c0 -141 -85 -224 -203 -236v-51zM303 511v-386c96 10 151 79 151 187v12
c0 107 -55 176 -151 187zM94 312c0 -110 56 -178 155 -188v388c-99 -10 -155 -79 -155 -188v-12z" />
    <glyph glyph-name="Chi" unicode="&#x3a7;" horiz-adv-x="559" 
d="M497 643c7 0 26 -5 26 -26c0 -3 0 -12 -8 -21l-203 -279l203 -278c6 -8 8 -16 8 -22c0 -16 -15 -24 -26 -24c-10 0 -18 7 -25 16l-193 268l-192 -268c-7 -9 -16 -16 -26 -16c-11 0 -25 10 -25 24c0 6 2 14 8 22l203 278l-203 279c-8 9 -8 18 -8 21c0 21 20 26 25 26
c11 0 19 -8 26 -18l192 -267l193 267c7 9 15 18 25 18z" />
    <glyph glyph-name="Psi" unicode="&#x3a8;" horiz-adv-x="560" 
d="M460 610c0 28 16 33 27 33c20 0 25 -17 25 -33v-153c0 -141 -86 -225 -204 -236v-196c0 -16 -5 -32 -28 -32c-10 0 -26 5 -26 32v196c-120 10 -206 94 -206 236v153c0 29 16 33 26 33s26 -4 26 -33v-156c0 -110 56 -178 154 -188v344c0 29 16 33 27 33s27 -4 27 -33v-343
c97 10 152 78 152 187v156z" />
    <glyph glyph-name="Omega" unicode="&#x3a9;" horiz-adv-x="592" 
d="M116 326c0 -145 98 -173 133 -182v-45c0 -94 -13 -99 -93 -99h-57c-18 0 -35 5 -35 26s17 26 35 26h50c45 0 46 2 46 32v26c-79 33 -131 107 -131 217v81c0 151 99 237 232 237c132 0 232 -86 232 -237v-81c0 -110 -52 -184 -131 -217v-27c0 -30 1 -31 46 -31h50
c18 0 35 -5 35 -26s-17 -26 -35 -26h-57c-80 0 -93 4 -93 99v46c36 8 133 36 133 181v81c0 116 -66 186 -180 186s-180 -70 -180 -186v-81z" />
    <glyph glyph-name="Iotadieresis" unicode="&#x3aa;" horiz-adv-x="220" 
d="M136 25c0 -16 -5 -32 -27 -32c-10 0 -25 5 -25 32v585c0 29 16 33 26 33s26 -4 26 -33v-585zM38 784c19 0 51 -17 51 -41c0 -25 -32 -41 -51 -41c-20 0 -51 16 -51 41c0 24 31 41 51 41zM184 784c19 0 51 -17 51 -41c0 -25 -32 -41 -51 -41c-20 0 -51 16 -51 41
c0 24 31 41 51 41z" />
    <glyph glyph-name="Upsilondieresis" unicode="&#x3ab;" horiz-adv-x="521" 
d="M234 308l-209 289c-4 6 -8 13 -8 21c0 16 15 25 25 25s18 -9 25 -18l193 -267l192 267c11 15 21 18 26 18c10 0 25 -10 25 -25c0 -8 -4 -15 -8 -21l-208 -289v-284c0 -15 -5 -31 -27 -31c-10 0 -26 5 -26 31v284zM188 784c19 0 51 -17 51 -41c0 -25 -32 -41 -51 -41
c-20 0 -51 16 -51 41c0 24 31 41 51 41zM334 784c19 0 51 -17 51 -41c0 -25 -32 -41 -51 -41c-20 0 -51 16 -51 41c0 24 31 41 51 41z" />
    <glyph glyph-name="alphatonos" unicode="&#x3ac;" horiz-adv-x="585" 
d="M520 0h-7c-54 0 -82 17 -94 60c-41 -45 -103 -60 -159 -60c-131 0 -200 46 -200 196v69c0 150 69 196 200 196c55 0 112 -15 152 -53v25c0 18 6 35 27 35c19 0 26 -12 26 -34v-324c0 -41 11 -58 55 -58c21 0 35 -5 35 -27c0 -15 -10 -25 -35 -25zM260 409
c-111 0 -148 -28 -148 -144v-69c0 -116 37 -144 148 -144c80 0 152 28 152 144v69c0 116 -72 144 -152 144zM308 749c11 0 25 -5 25 -27c0 -2 0 -7 -1 -11l-45 -157c-4 -21 -13 -35 -25 -35c-15 0 -28 14 -28 36c0 4 1 9 2 12l44 157c4 12 11 25 28 25z" />
    <glyph glyph-name="epsilontonos" unicode="&#x3ad;" horiz-adv-x="593" 
d="M317 212h-86c-75 0 -118 -27 -118 -98c0 -50 57 -62 122 -62h123c24 0 125 6 125 77c0 25 11 35 27 35c10 0 25 -4 25 -35c0 -97 -84 -129 -170 -129h-137c-86 0 -167 32 -167 126c0 62 29 92 59 111c-30 13 -59 36 -59 98c0 94 81 126 167 126h137
c86 0 170 -32 170 -129c0 -30 -15 -35 -25 -35c-16 0 -27 10 -27 35c0 71 -100 77 -125 77h-123c-84 0 -123 -21 -123 -62c0 -66 36 -83 119 -83h86c23 0 36 -8 36 -28c0 -19 -17 -24 -36 -24zM326 742c11 0 25 -5 25 -27c0 -2 0 -7 -1 -11l-45 -157c-4 -21 -13 -35 -25 -35
c-15 0 -28 14 -28 36c0 4 1 9 2 12l44 157c4 12 11 25 28 25z" />
    <glyph glyph-name="etatonos" unicode="&#x3ae;" horiz-adv-x="619" 
d="M297 409c-114 0 -171 -63 -171 -178v-204c0 -22 -7 -34 -26 -34c-21 0 -26 16 -26 34v406c0 20 5 35 24 35c22 0 28 -16 28 -36v-34c40 43 102 63 171 63h29c138 0 222 -26 222 -177v-454c0 -20 -5 -35 -25 -35c-11 0 -27 4 -27 35v453c0 115 -50 126 -170 126h-29z
M366 749c11 0 25 -5 25 -27c0 -2 0 -7 -1 -11l-45 -157c-4 -21 -13 -35 -25 -35c-15 0 -28 14 -28 36c0 4 1 9 2 12l44 157c4 12 11 25 28 25z" />
    <glyph glyph-name="iotatonos" unicode="&#x3af;" horiz-adv-x="228" 
d="M179 0h-7c-80 0 -100 36 -100 126v308c0 18 5 34 26 34c19 0 26 -12 26 -34v-324c0 -41 11 -58 55 -58c21 0 35 -5 35 -27c0 -15 -9 -25 -35 -25zM156 749c11 0 25 -5 25 -27c0 -2 0 -7 -1 -11l-45 -157c-4 -21 -13 -35 -25 -35c-15 0 -28 14 -28 36c0 4 1 9 2 12l44 157
c4 12 11 25 28 25z" />
    <glyph glyph-name="upsilondieresistonos" unicode="&#x3b0;" horiz-adv-x="603" 
d="M228 611c19 0 51 -17 51 -41c0 -25 -32 -41 -51 -41c-20 0 -51 16 -51 41c0 24 31 41 51 41zM374 611c19 0 51 -17 51 -41c0 -25 -32 -41 -51 -41c-20 0 -51 16 -51 41c0 24 31 41 51 41zM356 838c11 0 25 -5 25 -27c0 -2 0 -7 -1 -11l-45 -157c-4 -21 -13 -35 -25 -35
c-15 0 -28 14 -28 36c0 4 1 9 2 12l44 157c4 12 11 25 28 25zM320 0h-28c-139 0 -223 26 -223 176v258c0 19 5 34 25 34c19 0 27 -11 27 -34v-257c0 -114 50 -125 171 -125h28c121 0 161 11 161 125v257c0 18 5 34 26 34s26 -16 26 -34v-258c0 -150 -74 -176 -213 -176z" />
    <glyph glyph-name="alpha" unicode="&#x3b1;" horiz-adv-x="585" 
d="M520 0h-7c-54 0 -82 17 -94 60c-41 -45 -103 -60 -159 -60c-131 0 -200 46 -200 196v69c0 150 69 196 200 196c55 0 112 -15 152 -53v25c0 18 6 35 27 35c19 0 26 -12 26 -34v-324c0 -41 11 -58 55 -58c21 0 35 -5 35 -27c0 -15 -10 -25 -35 -25zM260 409
c-111 0 -148 -28 -148 -144v-69c0 -116 37 -144 148 -144c80 0 152 28 152 144v69c0 116 -72 144 -152 144z" />
    <glyph glyph-name="beta" unicode="&#x3b2;" horiz-adv-x="486" 
d="M127 47v-158c0 -20 -6 -36 -28 -36c-19 0 -24 16 -24 36v572c1 151 84 175 160 175c93 0 158 -58 158 -144c0 -61 -29 -108 -73 -137c102 -31 118 -126 118 -176c0 -164 -100 -186 -171 -186s-114 29 -140 54zM127 461v-337c28 -34 77 -81 138 -81c37 0 121 0 121 137
c0 74 -40 146 -189 146v51c126 0 144 70 144 117c0 59 -52 90 -106 90c-65 0 -108 -10 -108 -123z" />
    <glyph glyph-name="gamma" unicode="&#x3b3;" horiz-adv-x="525" 
d="M56 409c-29 0 -33 16 -33 26s4 26 33 26c91 0 97 -55 207 -415l183 401c8 16 17 21 28 21c12 0 24 -9 24 -23c0 -5 -1 -7 -3 -12l-210 -459v-121c0 -20 -6 -35 -29 -35c-20 0 -25 15 -25 35v120c-101 334 -135 436 -175 436z" />
    <glyph glyph-name="delta" unicode="&#x3b4;" horiz-adv-x="565" 
d="M111 586c-7 3 -16 8 -16 25c0 10 5 26 31 26h323c29 0 34 -17 34 -28c0 -15 -13 -25 -34 -25h-203c192 -72 268 -210 268 -379c0 -132 -92 -212 -232 -212c-165 0 -237 133 -237 245c0 154 147 223 243 223c28 0 58 -5 82 -15c-50 56 -120 87 -170 106zM286 46
c116 0 175 64 175 162c0 117 -62 201 -171 201c-74 0 -192 -52 -192 -177c0 -96 67 -186 188 -186z" />
    <glyph glyph-name="epsilon" unicode="&#x3b5;" horiz-adv-x="593" 
d="M317 212h-86c-75 0 -118 -27 -118 -98c0 -50 57 -62 122 -62h123c24 0 125 6 125 77c0 25 11 35 27 35c10 0 25 -4 25 -35c0 -97 -84 -129 -170 -129h-137c-86 0 -167 32 -167 126c0 62 29 92 59 111c-30 13 -59 36 -59 98c0 94 81 126 167 126h137
c86 0 170 -32 170 -129c0 -30 -15 -35 -25 -35c-16 0 -27 10 -27 35c0 71 -100 77 -125 77h-123c-84 0 -123 -21 -123 -62c0 -66 36 -83 119 -83h86c23 0 36 -8 36 -28c0 -19 -17 -24 -36 -24z" />
    <glyph glyph-name="zeta" unicode="&#x3b6;" horiz-adv-x="503" 
d="M285 -7c-141 0 -233 80 -233 212c0 219 123 324 270 379h-205c-21 0 -34 10 -34 25c0 11 5 28 34 28h323c26 0 31 -16 31 -26c0 -19 -11 -28 -16 -30c-82 -31 -350 -96 -350 -372c0 -98 59 -163 177 -163c129 0 209 -7 209 -128c0 -57 -47 -97 -75 -97
c-14 0 -23 13 -23 26c0 27 46 31 46 67c0 73 -37 79 -154 79z" />
    <glyph glyph-name="eta" unicode="&#x3b7;" horiz-adv-x="619" 
d="M297 409c-114 0 -171 -63 -171 -178v-204c0 -22 -7 -34 -26 -34c-21 0 -26 16 -26 34v406c0 20 5 35 24 35c22 0 28 -16 28 -36v-34c40 43 102 63 171 63h29c138 0 222 -26 222 -177v-454c0 -20 -5 -35 -25 -35c-11 0 -27 4 -27 35v453c0 115 -50 126 -170 126h-29z" />
    <glyph glyph-name="theta" unicode="&#x3b8;" horiz-adv-x="524" 
d="M262 593c-102 0 -145 -69 -145 -185v-64h290v64c0 116 -43 185 -145 185zM262 -9c-134 0 -197 86 -197 237v180c0 151 63 237 197 237c133 0 197 -86 197 -237v-180c0 -151 -64 -237 -197 -237zM407 228v63h-290v-63c0 -94 28 -185 145 -185s145 91 145 185z" />
    <glyph glyph-name="iota" unicode="&#x3b9;" horiz-adv-x="228" 
d="M179 0h-7c-80 0 -100 36 -100 126v308c0 18 5 34 26 34c19 0 26 -12 26 -34v-324c0 -41 11 -58 55 -58c21 0 35 -5 35 -27c0 -15 -9 -25 -35 -25z" />
    <glyph glyph-name="kappa" unicode="&#x3ba;" horiz-adv-x="459" 
d="M428 19c0 -10 -9 -26 -24 -26c-9 0 -18 5 -23 9l-255 205v-183c0 -15 -5 -31 -27 -31c-10 0 -25 5 -25 31v412c0 28 16 32 26 32s26 -4 26 -32v-179l254 204c6 5 14 10 24 10c14 0 24 -16 24 -26s-6 -18 -15 -24l-240 -189l241 -190c8 -6 14 -14 14 -23z" />
    <glyph glyph-name="lambda" unicode="&#x3bb;" horiz-adv-x="577" 
d="M414 72l-151 346l-184 -404c-7 -16 -17 -21 -28 -21c-12 0 -24 9 -24 23c0 5 1 7 3 12l203 446l-21 51c-16 37 -49 59 -78 59c-21 0 -34 10 -34 25c0 11 5 28 34 28c49 0 98 -29 118 -78l203 -454c15 -36 47 -58 75 -58c21 0 34 -10 34 -25c0 -11 -5 -28 -34 -28
c-48 0 -95 29 -116 78z" />
    <glyph glyph-name="mu" unicode="&#x3bc;" horiz-adv-x="574" 
d="M449 228v210c0 20 5 35 25 35c19 0 27 -12 27 -35v-414c0 -24 -7 -36 -25 -36c-22 0 -27 16 -27 36v34c-40 -43 -100 -63 -161 -63c-62 0 -121 20 -161 63v-227c0 -20 -6 -36 -28 -36c-19 0 -24 16 -24 36v607c0 20 5 35 25 35c19 0 27 -12 27 -35v-210
c0 -117 57 -181 161 -181c103 0 161 64 161 181z" />
    <glyph glyph-name="nu" unicode="&#x3bd;" horiz-adv-x="509" 
d="M252 51l178 401c7 16 17 21 28 21c12 0 24 -6 24 -20c0 -7 0 -8 -4 -17l-194 -441h-70l-182 441c-4 9 -4 10 -4 16c0 14 11 21 24 21c12 0 21 -6 28 -22z" />
    <glyph glyph-name="xi" unicode="&#x3be;" horiz-adv-x="502" 
d="M287 46c129 0 209 -7 209 -128c0 -57 -47 -97 -75 -97c-14 0 -23 13 -23 26c0 27 46 31 46 67c0 73 -37 79 -154 79c-112 0 -231 18 -231 180c0 61 38 128 70 152c-33 19 -70 80 -70 142c0 30 7 80 61 117h-49c-23 0 -31 13 -31 27c0 20 16 25 31 25h321
c16 0 34 -5 34 -27c0 -15 -13 -25 -34 -25c-106 0 -282 -9 -282 -117c0 -72 43 -110 112 -110h90c25 0 38 -8 38 -28c0 -18 -18 -23 -38 -23h-90c-67 0 -111 -71 -111 -145c0 -105 123 -115 176 -115z" />
    <glyph glyph-name="omicron" unicode="&#x3bf;" 
d="M314 0h-29c-139 0 -223 26 -223 176v109c0 150 84 176 223 176h29c138 0 222 -26 222 -176v-109c0 -150 -84 -176 -222 -176zM285 52h29c120 0 170 10 170 125v107c0 115 -50 125 -170 125h-29c-121 0 -171 -10 -171 -125v-107c0 -115 50 -125 171 -125z" />
    <glyph glyph-name="pi" unicode="&#x3c0;" horiz-adv-x="606" 
d="M430 409h-289v-382c0 -22 -7 -34 -26 -34c-21 0 -26 16 -26 34v382h-15c-29 0 -33 16 -33 26s4 26 33 26h424c24 0 33 -11 33 -27c0 -20 -17 -25 -33 -25h-15v-300c0 -41 11 -57 55 -57c21 0 35 -5 35 -27c0 -15 -10 -25 -35 -25h-8c-79 0 -100 35 -100 126v283z" />
    <glyph glyph-name="rho" unicode="&#x3c1;" horiz-adv-x="600" 
d="M486 284c0 115 -50 125 -170 125h-29c-114 0 -171 -62 -171 -177v-180h201c119 0 169 10 169 125v107zM287 461h29c138 0 222 -26 222 -176v-109c0 -150 -84 -176 -221 -176h-201v-147c0 -20 -6 -35 -28 -35c-19 0 -24 15 -24 35v362c0 178 85 246 223 246z" />
    <glyph glyph-name="sigma1" unicode="&#x3c2;" horiz-adv-x="489" 
d="M100 229c0 -89 27 -183 143 -183c130 0 210 -7 210 -128c0 -57 -47 -97 -75 -97c-14 0 -23 13 -23 26c0 27 46 31 46 67c0 73 -37 79 -155 79c-140 0 -199 103 -199 233c0 142 119 242 371 242c21 0 34 -10 34 -25c0 -11 -5 -28 -34 -28c-259 0 -318 -100 -318 -186z" />
    <glyph glyph-name="sigma" unicode="&#x3c3;" horiz-adv-x="622" 
d="M553 461c18 0 35 -5 35 -26c0 -19 -12 -26 -35 -26h-90c43 -39 63 -96 63 -157v-76c0 -150 -76 -176 -212 -176h-29c-139 0 -223 26 -223 176v109c0 150 84 176 223 176h268zM285 409c-121 0 -171 -10 -171 -125v-107c0 -115 50 -125 171 -125h29c118 0 160 10 160 125
v75c0 101 -64 157 -182 157h-7z" />
    <glyph glyph-name="tau" unicode="&#x3c4;" horiz-adv-x="478" 
d="M262 109c0 -41 12 -57 58 -57c31 0 45 -5 45 -27c0 -15 -9 -25 -45 -25h-8c-84 0 -105 35 -105 126v283h-154c-29 0 -33 16 -33 26s4 26 33 26h361c24 0 33 -11 33 -27c0 -20 -17 -25 -33 -25h-152v-300z" />
    <glyph glyph-name="upsilon" unicode="&#x3c5;" horiz-adv-x="605" 
d="M321 0h-28c-139 0 -223 26 -223 176v258c0 19 5 34 25 34c19 0 27 -11 27 -34v-257c0 -114 50 -125 171 -125h28c121 0 161 11 161 125v257c0 18 5 34 26 34s26 -16 26 -34v-258c0 -150 -74 -176 -213 -176z" />
    <glyph glyph-name="phi" unicode="&#x3c6;" horiz-adv-x="628" 
d="M422 461c86 0 143 -25 143 -176v-109c0 -164 -113 -176 -225 -176v-147c0 -21 -6 -35 -28 -35c-16 0 -26 10 -26 35v147c-126 2 -223 31 -223 176v131c0 75 27 154 129 154c32 0 37 -15 37 -25c0 -16 -10 -27 -37 -27h-18c-41 0 -59 -53 -59 -112v-127
c0 -111 61 -127 171 -128v169c0 128 2 250 136 250zM427 409c-68 0 -87 -53 -87 -182v-185c114 0 173 7 173 128v111c0 119 -31 128 -86 128z" />
    <glyph glyph-name="chi" unicode="&#x3c7;" horiz-adv-x="517" 
d="M430 468c10 0 26 -10 26 -25c0 -6 -2 -12 -7 -20l-159 -265l99 -221c15 -37 47 -59 75 -59c21 0 34 -10 34 -25c0 -11 -5 -28 -34 -28c-48 0 -95 29 -116 78l-91 205l-159 -267c-6 -13 -15 -19 -25 -19c-7 0 -27 5 -27 25c0 2 0 10 7 20l177 297l-87 193
c-15 36 -47 58 -75 58c-21 0 -34 10 -34 25c0 11 5 28 34 28c48 0 95 -29 116 -78l79 -178l141 237c7 11 15 19 26 19z" />
    <glyph glyph-name="psi" unicode="&#x3c8;" horiz-adv-x="590" 
d="M475 435c0 28 16 33 27 33c20 0 25 -17 25 -32v-208c0 -140 -86 -224 -204 -235v-101c0 -16 -5 -32 -28 -32c-10 0 -26 5 -26 32v101c-120 10 -206 94 -206 235v208c0 28 16 32 26 32s26 -4 26 -33v-212c0 -110 56 -178 154 -188v526c0 29 16 33 27 33s27 -4 27 -33v-525
c97 10 152 78 152 187v212z" />
    <glyph glyph-name="omega" unicode="&#x3c9;" horiz-adv-x="666" 
d="M333 54c-19 -30 -55 -61 -121 -61c-96 0 -150 79 -150 154v165c0 75 33 156 129 156c27 0 36 -10 36 -25c0 -19 -12 -27 -36 -27c-70 0 -77 -91 -77 -112v-149c0 -72 42 -110 85 -110c77 0 104 44 104 109v101c0 21 6 35 29 35c24 0 30 -15 30 -35v-101
c0 -65 27 -109 104 -109c43 0 85 38 85 110v149c0 21 -7 112 -77 112c-24 0 -36 8 -36 27c0 15 9 25 36 25c96 0 129 -81 129 -156v-165c0 -75 -54 -154 -150 -154c-66 0 -101 31 -120 61z" />
    <glyph glyph-name="iotadieresis" unicode="&#x3ca;" horiz-adv-x="228" 
d="M179 0h-7c-80 0 -100 36 -100 126v308c0 18 5 34 26 34c19 0 26 -12 26 -34v-324c0 -41 11 -58 55 -58c21 0 35 -5 35 -27c0 -15 -9 -25 -35 -25zM25 606c19 0 51 -17 51 -41c0 -25 -32 -41 -51 -41c-20 0 -51 16 -51 41c0 24 31 41 51 41zM171 606c19 0 51 -17 51 -41
c0 -25 -32 -41 -51 -41c-20 0 -51 16 -51 41c0 24 31 41 51 41z" />
    <glyph glyph-name="upsilondieresis" unicode="&#x3cb;" horiz-adv-x="603" 
d="M228 611c19 0 51 -17 51 -41c0 -25 -32 -41 -51 -41c-20 0 -51 16 -51 41c0 24 31 41 51 41zM374 611c19 0 51 -17 51 -41c0 -25 -32 -41 -51 -41c-20 0 -51 16 -51 41c0 24 31 41 51 41zM320 0h-28c-139 0 -223 26 -223 176v258c0 19 5 34 25 34c19 0 27 -11 27 -34
v-257c0 -114 50 -125 171 -125h28c121 0 161 11 161 125v257c0 18 5 34 26 34s26 -16 26 -34v-258c0 -150 -74 -176 -213 -176z" />
    <glyph glyph-name="omicrontonos" unicode="&#x3cc;" 
d="M324 752c11 0 25 -5 25 -27c0 -2 0 -7 -1 -11l-45 -157c-4 -21 -13 -35 -25 -35c-15 0 -28 14 -28 36c0 4 1 9 2 12l44 157c4 12 11 25 28 25zM314 0h-29c-139 0 -223 26 -223 176v109c0 150 84 176 223 176h29c138 0 222 -26 222 -176v-109c0 -150 -84 -176 -222 -176z
M285 52h29c120 0 170 10 170 125v107c0 115 -50 125 -170 125h-29c-121 0 -171 -10 -171 -125v-107c0 -115 50 -125 171 -125z" />
    <glyph glyph-name="upsilontonos" unicode="&#x3cd;" horiz-adv-x="605" 
d="M326 759c11 0 25 -5 25 -27c0 -2 0 -7 -1 -11l-45 -157c-4 -21 -13 -35 -25 -35c-15 0 -28 14 -28 36c0 4 1 9 2 12l44 157c4 12 11 25 28 25zM321 0h-28c-139 0 -223 26 -223 176v258c0 19 5 34 25 34c19 0 27 -11 27 -34v-257c0 -114 50 -125 171 -125h28
c121 0 161 11 161 125v257c0 18 5 34 26 34s26 -16 26 -34v-258c0 -150 -74 -176 -213 -176z" />
    <glyph glyph-name="omegatonos" unicode="&#x3ce;" horiz-adv-x="666" 
d="M357 759c11 0 25 -5 25 -27c0 -2 0 -7 -1 -11l-45 -157c-4 -21 -13 -35 -25 -35c-15 0 -28 14 -28 36c0 4 1 9 2 12l44 157c4 12 11 25 28 25zM333 54c-19 -30 -55 -61 -121 -61c-96 0 -150 79 -150 154v165c0 75 33 156 129 156c27 0 36 -10 36 -25
c0 -19 -12 -27 -36 -27c-70 0 -77 -91 -77 -112v-149c0 -72 42 -110 85 -110c77 0 104 44 104 109v101c0 21 6 35 29 35c24 0 30 -15 30 -35v-101c0 -65 27 -109 104 -109c43 0 85 38 85 110v149c0 21 -7 112 -77 112c-24 0 -36 8 -36 27c0 15 9 25 36 25
c96 0 129 -81 129 -156v-165c0 -75 -54 -154 -150 -154c-66 0 -101 31 -120 61z" />
    <glyph glyph-name="uni0400" unicode="&#x400;" 
d="M136 332v-280h378c23 0 34 -9 34 -28s-12 -24 -34 -24h-406c-19 0 -24 15 -24 36v564c0 20 5 36 24 36h406c23 0 34 -9 34 -28s-12 -24 -34 -24h-378v-200h259c20 0 36 -6 36 -28c0 -19 -14 -24 -36 -24h-259zM230 819c8 0 16 -4 24 -13l70 -69c7 -8 12 -15 12 -25
s-10 -24 -25 -24c-8 0 -17 4 -25 13l-69 68c-8 9 -13 16 -13 25c0 10 12 25 26 25z" />
    <glyph glyph-name="Iocyrillic" unicode="&#x401;" 
d="M136 332v-280h378c23 0 34 -9 34 -28s-12 -24 -34 -24h-406c-19 0 -24 15 -24 36v564c0 20 5 36 24 36h406c23 0 34 -9 34 -28s-12 -24 -34 -24h-378v-200h259c20 0 36 -6 36 -28c0 -19 -14 -24 -36 -24h-259zM239 784c19 0 51 -17 51 -41c0 -25 -32 -41 -51 -41
c-20 0 -51 16 -51 41c0 24 31 41 51 41zM385 784c19 0 51 -17 51 -41c0 -25 -32 -41 -51 -41c-20 0 -51 16 -51 41c0 24 31 41 51 41z" />
    <glyph glyph-name="Djecyrillic" unicode="&#x402;" horiz-adv-x="703" 
d="M417 636c25 0 34 -11 34 -27c0 -20 -18 -25 -34 -25h-152v-181c41 43 102 63 166 63c130 0 214 -26 214 -178v-364c0 -118 -48 -129 -107 -129c-20 0 -37 5 -37 26c0 16 11 26 37 26c44 0 55 18 55 60v380c0 116 -50 127 -162 127c-107 0 -166 -63 -166 -180v-206
c0 -23 -7 -35 -27 -35c-21 0 -26 16 -26 34v557h-152c-29 0 -33 16 -33 26s4 26 33 26h357z" />
    <glyph glyph-name="Gjecyrillic" unicode="&#x403;" horiz-adv-x="557" 
d="M189 584c-44 0 -55 -18 -55 -59v-498c0 -22 -8 -34 -27 -34c-15 0 -25 9 -25 34v482c0 90 20 127 100 127h315c18 0 35 -5 35 -26s-17 -26 -35 -26h-308zM394 770l-70 -69c-8 -9 -16 -13 -24 -13c-14 0 -26 13 -26 24c0 10 6 18 13 26l69 68c8 9 17 13 25 13
c16 0 25 -16 25 -25s-5 -16 -12 -24z" />
    <glyph glyph-name="Ie.ukran" unicode="&#x404;" horiz-adv-x="590" 
d="M436 636c90 0 100 -58 100 -111c0 -24 -8 -36 -26 -36c-10 0 -26 4 -26 33c0 44 -11 62 -55 62h-134c-121 0 -171 -11 -171 -125v-100h259c21 0 35 -5 35 -24c0 -22 -15 -28 -35 -28h-259v-129c0 -115 50 -126 171 -126h134c40 0 55 14 55 62c0 29 16 33 26 33
c21 0 26 -17 26 -35c0 -54 -10 -112 -100 -112h-141c-139 0 -223 26 -223 177v282c0 151 84 177 223 177h141z" />
    <glyph glyph-name="Dzecyrillic" unicode="&#x405;" horiz-adv-x="599" 
d="M113 481c0 -55 28 -95 60 -102l237 -51c97 -21 127 -98 127 -172c0 -75 -37 -164 -170 -164h-83c-138 0 -223 25 -223 180c0 21 10 33 28 33c15 0 25 -13 25 -33c0 -117 48 -128 170 -128h102c80 0 99 73 99 113c0 72 -37 110 -60 115l-235 52c-95 21 -129 69 -129 158
c0 75 38 162 177 162h76c137 0 223 -23 223 -178c0 -21 -10 -33 -27 -33c-16 0 -26 13 -26 33c0 117 -48 126 -170 126h-98c-80 0 -103 -68 -103 -111z" />
    <glyph glyph-name="Icyrillic" unicode="&#x406;" horiz-adv-x="220" 
d="M136 25c0 -16 -5 -32 -27 -32c-10 0 -25 5 -25 32v585c0 29 16 33 26 33s26 -4 26 -33v-585z" />
    <glyph glyph-name="Yicyrillic" unicode="&#x407;" horiz-adv-x="220" 
d="M136 25c0 -16 -5 -32 -27 -32c-10 0 -25 5 -25 32v585c0 29 16 33 26 33s26 -4 26 -33v-585zM38 784c19 0 51 -17 51 -41c0 -25 -32 -41 -51 -41c-20 0 -51 16 -51 41c0 24 31 41 51 41zM184 784c19 0 51 -17 51 -41c0 -25 -32 -41 -51 -41c-20 0 -51 16 -51 41
c0 24 31 41 51 41z" />
    <glyph glyph-name="Jecyrillic" unicode="&#x408;" horiz-adv-x="550" 
d="M251 44c116 0 166 11 166 126v441c0 28 16 32 26 32s26 -4 26 -33v-441c0 -152 -84 -177 -218 -177s-219 25 -219 180c0 21 10 33 28 33c15 0 25 -13 25 -33c0 -117 48 -128 166 -128z" />
    <glyph glyph-name="Ljecyrillic" unicode="&#x409;" horiz-adv-x="883" 
d="M489 354v-309h143c112 0 163 65 163 155c0 88 -51 154 -164 154h-142zM489 406h142c131 0 216 -83 216 -206c0 -124 -84 -207 -215 -207h-168c-18 0 -27 14 -27 35v556h-208c-49 0 -65 -18 -65 -59v-398c0 -115 -47 -127 -107 -127c-23 0 -36 7 -36 27c0 9 5 24 36 24
c44 0 55 17 55 58v400c0 90 20 127 110 127h267v-230z" />
    <glyph glyph-name="Njecyrillic" unicode="&#x40a;" horiz-adv-x="932" 
d="M543 354v-309h139c111 0 162 65 162 155c0 88 -51 154 -162 154h-139zM543 406h139c129 0 214 -83 214 -206c0 -124 -84 -207 -214 -207h-165c-17 0 -26 14 -26 36v325h-355v-326c0 -23 -7 -35 -26 -35c-21 0 -26 16 -26 34v581c0 20 5 35 24 35c22 0 28 -15 28 -35v-202
h355v202c0 18 5 35 25 35c22 0 27 -15 27 -35v-202z" />
    <glyph glyph-name="Tshecyrillic" unicode="&#x40b;" horiz-adv-x="703" 
d="M417 584h-152v-181c41 43 102 63 166 63c130 0 214 -26 214 -178v-260c0 -20 -5 -35 -25 -35c-11 0 -27 4 -27 35v260c0 115 -50 126 -162 126c-107 0 -166 -63 -166 -180v-206c0 -23 -7 -35 -27 -35c-21 0 -26 16 -26 34v557h-152c-29 0 -33 16 -33 26s4 26 33 26h357
c25 0 34 -11 34 -27c0 -20 -18 -25 -34 -25z" />
    <glyph glyph-name="Kjecyrillic" unicode="&#x40c;" horiz-adv-x="574" 
d="M136 270v-246c0 -15 -5 -31 -27 -31c-10 0 -25 5 -25 32v545c0 29 16 33 26 33s26 -4 26 -33v-248h123c77 0 132 30 132 70v83c0 118 48 129 107 129c20 0 36 -5 36 -26c0 -16 -10 -26 -36 -26c-44 0 -55 -18 -55 -60v-93c0 -55 -22 -86 -54 -105c49 -29 54 -73 54 -99
v-91c0 -42 11 -59 55 -59c26 0 36 -10 36 -26c0 -21 -16 -26 -36 -26c-59 0 -107 11 -107 127v81c0 40 -55 69 -132 69h-123zM379 719l-96 -115c-9 -10 -17 -15 -25 -15c-10 0 -25 10 -25 25c0 9 3 16 9 23l96 115c9 10 17 15 25 15c11 0 25 -10 25 -26c0 -7 -3 -15 -9 -22z
" />
    <glyph glyph-name="Iicyrillic_grave" unicode="&#x40d;" horiz-adv-x="632" 
d="M109 -7c-20 0 -25 15 -25 34v581c0 19 5 35 27 35c20 0 25 -17 25 -36v-511l358 528c9 14 18 19 30 19c19 0 24 -15 24 -35v-581c0 -18 -5 -34 -26 -34c-19 0 -26 11 -26 33v517l-367 -543c-4 -5 -12 -7 -20 -7zM235 809c8 0 16 -5 25 -15l96 -115c6 -7 9 -14 9 -23
c0 -16 -15 -25 -25 -25c-8 0 -16 5 -25 15l-96 115c-6 7 -9 15 -9 22c0 16 14 26 25 26z" />
    <glyph glyph-name="Ushortcyrillic" unicode="&#x40e;" horiz-adv-x="527" 
d="M271 213l183 402c7 16 17 21 28 21c12 0 24 -9 24 -23c0 -5 -1 -8 -3 -13l-256 -558c-13 -29 -47 -48 -85 -48c-90 0 -100 59 -100 112c0 18 5 35 26 35c18 0 26 -11 26 -33c0 -49 14 -62 47 -62c16 0 32 11 40 28l37 77l-192 448c-4 9 -4 10 -4 16c0 14 11 21 24 21
c12 0 21 -6 28 -22zM423 748c0 -83 -18 -117 -91 -117h-117c-73 0 -91 35 -91 117v27h52v-43c0 -39 9 -49 47 -49h102c38 0 46 10 46 49v43h52v-27z" />
    <glyph glyph-name="Dzhecyrillic" unicode="&#x40f;" horiz-adv-x="626" 
d="M286 -57v57h-200v576c0 20 5 35 25 35c11 0 27 -4 27 -35v-524h350v524c0 23 7 35 26 35c21 0 26 -17 26 -35v-576h-200v-57c0 -23 -7 -35 -27 -35c-22 0 -27 17 -27 35z" />
    <glyph glyph-name="Acyrillic" unicode="&#x410;" horiz-adv-x="570" 
d="M316 636l227 -611c2 -6 3 -11 3 -16c0 -20 -19 -25 -26 -25c-12 0 -21 9 -27 23l-71 192h-274l-71 -192c-5 -12 -15 -23 -27 -23c-7 0 -26 5 -26 25c0 5 1 10 3 16l227 611h62zM284 560l-116 -309h234z" />
    <glyph glyph-name="Becyrillic" unicode="&#x411;" horiz-adv-x="555" 
d="M439 636c18 0 35 -5 35 -26s-17 -26 -35 -26h-302v-118h153c132 0 217 -113 217 -236c0 -125 -85 -237 -217 -237h-181c-19 0 -24 15 -24 35v608h354zM290 414h-153v-369h153c113 0 165 94 165 185c0 89 -53 184 -165 184z" />
    <glyph glyph-name="Vecyrillic" unicode="&#x412;" horiz-adv-x="605" 
d="M136 332v-280h190c120 0 170 11 170 126v28c0 115 -50 126 -164 126h-196zM84 36v564c0 20 5 36 24 36h180c133 0 218 -24 218 -150c0 -56 -18 -89 -49 -112c58 -22 91 -67 91 -165v-29c0 -154 -84 -180 -222 -180h-218c-19 0 -24 16 -24 36zM288 384
c116 0 166 15 166 97c0 90 -54 98 -166 98h-152v-195h152z" />
    <glyph glyph-name="Gecyrillic" unicode="&#x413;" horiz-adv-x="557" 
d="M189 584c-44 0 -55 -18 -55 -59v-498c0 -22 -8 -34 -27 -34c-15 0 -25 9 -25 34v482c0 90 20 127 100 127h315c18 0 35 -5 35 -26s-17 -26 -35 -26h-308z" />
    <glyph glyph-name="Decyrillic" unicode="&#x414;" horiz-adv-x="572" 
d="M64 -57c0 -23 -7 -35 -26 -35c-21 0 -26 17 -26 35v52c0 41 20 57 51 57h10c37 66 100 369 100 584h299v-584h9c31 0 51 -16 51 -57v-52c0 -23 -7 -35 -26 -35c-21 0 -26 17 -26 35v57h-416v-57zM420 52v532h-194c-1 -171 -58 -456 -96 -532h290z" />
    <glyph glyph-name="Iecyrillic" unicode="&#x415;" 
d="M136 332v-280h378c23 0 34 -9 34 -28s-12 -24 -34 -24h-406c-19 0 -24 15 -24 36v564c0 20 5 36 24 36h406c23 0 34 -9 34 -28s-12 -24 -34 -24h-378v-200h259c20 0 36 -6 36 -28c0 -19 -14 -24 -36 -24h-259z" />
    <glyph glyph-name="Zhecyrillic" unicode="&#x416;" horiz-adv-x="668" 
d="M309 327v248c0 29 15 33 26 33s26 -4 26 -33v-248c77 1 125 29 125 70v83c0 118 48 129 107 129c20 0 36 -5 36 -26c0 -16 -10 -26 -36 -26c-44 0 -55 -18 -55 -60v-93c0 -55 -22 -87 -53 -105c48 -30 53 -75 53 -101v-93c0 -42 11 -60 55 -60c26 0 36 -10 36 -26
c0 -21 -16 -26 -36 -26c-59 0 -107 11 -107 129v83c0 38 -76 67 -125 70v-250c0 -15 -5 -32 -27 -32c-10 0 -25 5 -25 32v250c-76 -1 -127 -29 -127 -70v-83c0 -118 -48 -129 -107 -129c-20 0 -36 5 -36 26c0 16 10 26 36 26c44 0 55 18 55 60v93c0 52 25 84 58 103
c-33 19 -58 51 -58 103v93c0 42 -11 60 -55 60c-26 0 -36 10 -36 26c0 21 16 26 36 26c59 0 107 -11 107 -129v-83c0 -41 51 -69 127 -70z" />
    <glyph glyph-name="Zecyrillic" unicode="&#x417;" horiz-adv-x="584" 
d="M264 354h86c69 0 118 46 118 115c0 44 -41 115 -122 115h-183c-44 0 -55 -17 -55 -59v-18c0 -25 -11 -35 -27 -35c-10 0 -25 4 -25 35c0 92 20 129 100 129h197c98 0 167 -72 167 -166c0 -64 -30 -115 -75 -143c45 -32 75 -87 75 -151c0 -94 -69 -176 -167 -176h-197
c-80 0 -100 37 -100 129c0 31 15 35 25 35c16 0 27 -10 27 -35v-18c0 -42 11 -59 55 -59h183c81 0 122 81 122 125c0 69 -49 125 -118 125h-86c-22 0 -36 5 -36 26s14 26 36 26z" />
    <glyph glyph-name="Iicyrillic" unicode="&#x418;" horiz-adv-x="632" 
d="M109 -7c-20 0 -25 15 -25 34v581c0 19 5 35 27 35c20 0 25 -17 25 -36v-511l358 528c9 14 18 19 30 19c19 0 24 -15 24 -35v-581c0 -18 -5 -34 -26 -34c-19 0 -26 11 -26 33v517l-367 -543c-4 -5 -12 -7 -20 -7z" />
    <glyph glyph-name="Iishortcyrillic" unicode="&#x419;" horiz-adv-x="632" 
d="M464 748c0 -83 -18 -117 -91 -117h-117c-73 0 -91 35 -91 117v27h52v-43c0 -39 9 -49 47 -49h102c38 0 46 10 46 49v43h52v-27zM109 -7c-20 0 -25 15 -25 34v581c0 19 5 35 27 35c20 0 25 -17 25 -36v-511l358 528c9 14 18 19 30 19c19 0 24 -15 24 -35v-581
c0 -18 -5 -34 -26 -34c-19 0 -26 11 -26 33v517l-367 -543c-4 -5 -12 -7 -20 -7z" />
    <glyph glyph-name="Kacyrillic" unicode="&#x41a;" horiz-adv-x="574" 
d="M136 270v-246c0 -15 -5 -31 -27 -31c-10 0 -25 5 -25 32v545c0 29 16 33 26 33s26 -4 26 -33v-248h123c77 0 132 30 132 70v83c0 118 48 129 107 129c20 0 36 -5 36 -26c0 -16 -10 -26 -36 -26c-44 0 -55 -18 -55 -60v-93c0 -55 -22 -86 -54 -105c49 -29 54 -73 54 -99
v-91c0 -42 11 -59 55 -59c26 0 36 -10 36 -26c0 -21 -16 -26 -36 -26c-59 0 -107 11 -107 127v81c0 40 -55 69 -132 69h-123z" />
    <glyph glyph-name="Elcyrillic" unicode="&#x41b;" horiz-adv-x="574" 
d="M489 28c0 -22 -7 -35 -27 -35c-10 0 -25 5 -25 35v556h-208c-49 0 -62 -18 -62 -59v-398c0 -115 -50 -127 -110 -127c-23 0 -36 7 -36 27c0 10 5 25 36 25c44 0 55 17 55 58v399c0 90 20 127 110 127h267v-608z" />
    <glyph glyph-name="Emcyrillic" unicode="&#x41c;" horiz-adv-x="653" 
d="M326 279c-3 0 -11 0 -17 8l-173 258v-517c0 -23 -7 -35 -26 -35c-21 0 -26 16 -26 34v581c0 20 5 35 24 35c12 0 21 -5 30 -19l188 -278l189 278c9 13 17 19 29 19c20 0 25 -15 25 -35v-581c0 -22 -8 -34 -27 -34c-20 0 -25 15 -25 35v517l-173 -258c-4 -5 -11 -8 -18 -8
z" />
    <glyph glyph-name="Encyrillic" unicode="&#x41d;" horiz-adv-x="632" 
d="M136 27c0 -22 -7 -34 -26 -34c-21 0 -26 16 -26 34v581c0 20 5 35 24 35c22 0 28 -16 28 -35v-239h360v239c0 18 5 35 25 35c22 0 27 -16 27 -35v-581c0 -19 -5 -34 -25 -34c-11 0 -27 4 -27 34v290h-360v-290z" />
    <glyph glyph-name="Ocyrillic" unicode="&#x41e;" horiz-adv-x="594" 
d="M297 -9c-133 0 -232 86 -232 237v180c0 151 99 237 232 237c132 0 232 -86 232 -237v-180c0 -151 -100 -237 -232 -237zM297 593c-115 0 -180 -70 -180 -186v-178c0 -117 65 -186 180 -186s180 69 180 186v178c0 116 -65 186 -180 186z" />
    <glyph glyph-name="Pecyrillic" unicode="&#x41f;" horiz-adv-x="624" 
d="M85 636h454v-609c0 -19 -5 -34 -25 -34c-11 0 -27 4 -27 34v557h-350v-557c0 -22 -7 -34 -26 -34c-21 0 -26 16 -26 34v609z" />
    <glyph glyph-name="Ercyrillic" unicode="&#x420;" horiz-adv-x="542" 
d="M136 25c0 -16 -5 -32 -27 -32c-10 0 -25 5 -25 32v575c0 20 5 36 24 36h181c132 0 217 -29 217 -155c0 -101 -65 -154 -173 -154h-197v-302zM289 379c116 0 165 15 165 102c0 90 -53 103 -165 103h-153v-205h153z" />
    <glyph glyph-name="Escyrillic" unicode="&#x421;" horiz-adv-x="592" 
d="M436 0h-141c-139 0 -223 26 -223 180v276c0 154 84 180 217 180h147c90 0 100 -58 100 -112c0 -18 -5 -35 -26 -35c-10 0 -26 4 -26 33c0 48 -15 62 -55 62h-140c-115 0 -165 -11 -165 -128v-276c0 -117 50 -128 171 -128h134c44 0 55 18 55 62c0 29 16 33 26 33
c18 0 26 -12 26 -36c0 -53 -10 -111 -100 -111z" />
    <glyph glyph-name="Tecyrillic" unicode="&#x422;" horiz-adv-x="481" 
d="M421 636c24 0 33 -11 33 -27c0 -20 -17 -25 -33 -25h-152v-559c0 -27 -18 -32 -29 -32s-26 5 -26 32v559h-154c-29 0 -33 16 -33 26s4 26 33 26h361z" />
    <glyph glyph-name="Ucyrillic" unicode="&#x423;" horiz-adv-x="527" 
d="M271 213l183 402c7 16 17 21 28 21c12 0 24 -9 24 -23c0 -5 -1 -8 -3 -13l-256 -558c-13 -29 -47 -48 -85 -48c-90 0 -100 59 -100 112c0 18 5 35 26 35c18 0 26 -11 26 -33c0 -49 14 -62 47 -62c16 0 32 11 40 28l37 77l-192 448c-4 9 -4 10 -4 16c0 14 11 21 24 21
c12 0 21 -6 28 -22z" />
    <glyph glyph-name="Efcyrillic" unicode="&#x424;" horiz-adv-x="548" 
d="M303 25c0 -16 -5 -32 -28 -32c-10 0 -26 5 -26 32v51c-121 10 -207 94 -207 236v12c0 142 86 226 207 236v50c0 29 16 33 27 33s27 -4 27 -33v-50c118 -12 203 -95 203 -236v-12c0 -141 -85 -224 -203 -236v-51zM303 511v-386c96 10 151 79 151 187v12
c0 107 -55 176 -151 187zM94 312c0 -110 56 -178 155 -188v388c-99 -10 -155 -79 -155 -188v-12z" />
    <glyph glyph-name="Khacyrillic" unicode="&#x425;" horiz-adv-x="559" 
d="M497 643c7 0 26 -5 26 -26c0 -3 0 -12 -8 -21l-203 -279l203 -278c6 -8 8 -16 8 -22c0 -16 -15 -24 -26 -24c-10 0 -18 7 -25 16l-193 268l-192 -268c-7 -9 -16 -16 -26 -16c-11 0 -25 10 -25 24c0 6 2 14 8 22l203 278l-203 279c-8 9 -8 18 -8 21c0 21 20 26 25 26
c11 0 19 -8 26 -18l192 -267l193 267c7 9 15 18 25 18z" />
    <glyph glyph-name="Tsecyrillic" unicode="&#x426;" horiz-adv-x="582" 
d="M540 -57c0 -23 -7 -35 -26 -35c-21 0 -26 17 -26 35v57h-402v576c0 20 5 35 25 35c11 0 27 -4 27 -35v-524h292v524c0 23 7 35 26 35c21 0 26 -17 26 -35v-524h7c31 0 51 -16 51 -57v-52z" />
    <glyph glyph-name="Checyrillic" unicode="&#x427;" horiz-adv-x="605" 
d="M304 222c108 0 165 63 165 180v206c0 23 7 35 26 35c21 0 26 -16 26 -34v-581c0 -20 -5 -35 -24 -35c-22 0 -28 15 -28 35v205c-40 -43 -100 -63 -165 -63h-31c-132 0 -216 26 -216 178v260c0 20 5 35 25 35c11 0 27 -4 27 -35v-260c0 -115 50 -126 164 -126h31z" />
    <glyph glyph-name="Shacyrillic" unicode="&#x428;" horiz-adv-x="698" 
d="M86 0v576c0 20 5 35 25 35c11 0 27 -4 27 -35v-524h185v524c0 20 4 35 25 35c11 0 27 -4 27 -35v-524h185v524c0 23 7 35 26 35c21 0 26 -17 26 -35v-576h-526z" />
    <glyph glyph-name="Shchacyrillic" unicode="&#x429;" horiz-adv-x="712" 
d="M322 576c0 20 4 35 25 35c11 0 27 -4 27 -35v-524h186v524c0 23 7 35 26 35c21 0 26 -17 26 -35v-524h7c31 0 51 -16 51 -57v-52c0 -23 -7 -35 -26 -35c-21 0 -26 17 -26 35v57h-532v576c0 20 5 35 25 35c11 0 27 -4 27 -35v-524h184v524z" />
    <glyph glyph-name="Hardsigncyrillic" unicode="&#x42a;" horiz-adv-x="617" 
d="M157 584h-96c-20 0 -36 6 -36 28c0 19 16 24 36 24h148v-170h154c131 0 216 -113 216 -236c0 -125 -85 -237 -215 -237h-182c-20 0 -25 15 -25 35v556zM363 414h-154v-369h155c111 0 163 94 163 185c0 89 -53 184 -164 184z" />
    <glyph glyph-name="Yericyrillic" unicode="&#x42b;" horiz-adv-x="673" 
d="M589 25c0 -16 -5 -32 -27 -32c-10 0 -25 5 -25 32v585c0 29 16 33 26 33s26 -4 26 -33v-585zM289 466c132 0 217 -113 217 -236c0 -125 -85 -237 -217 -237h-181c-19 0 -24 15 -24 35v576c0 27 15 32 25 32c22 0 27 -16 27 -31v-139h153zM289 414h-153v-369h153
c113 0 165 94 165 185c0 89 -53 184 -165 184z" />
    <glyph glyph-name="Softsigncyrillic" unicode="&#x42c;" horiz-adv-x="544" 
d="M289 466c132 0 217 -113 217 -236c0 -125 -85 -237 -217 -237h-181c-19 0 -24 15 -24 35v576c0 27 15 32 25 32c22 0 27 -16 27 -31v-139h153zM289 414h-153v-369h153c113 0 165 94 165 185c0 89 -53 184 -165 184z" />
    <glyph glyph-name="Ereversedcyrillic" unicode="&#x42d;" horiz-adv-x="590" 
d="M154 636h141c139 0 223 -26 223 -177v-282c0 -151 -84 -177 -223 -177h-141c-90 0 -100 58 -100 112c0 18 5 35 26 35c10 0 26 -4 26 -33c0 -48 15 -62 55 -62h134c121 0 171 11 171 126v129h-259c-20 0 -35 6 -35 28c0 19 14 24 35 24h259v100c0 114 -50 125 -171 125
h-134c-44 0 -55 -18 -55 -62c0 -29 -16 -33 -26 -33c-18 0 -26 12 -26 36c0 53 10 111 100 111z" />
    <glyph glyph-name="IUcyrillic" unicode="&#x42e;" horiz-adv-x="720" 
d="M425 593c-113 0 -181 -70 -181 -186v-178c0 -117 68 -186 181 -186s178 69 178 186v178c0 116 -65 186 -178 186zM425 -9c-133 0 -233 86 -233 237v69h-56v-273c0 -15 -5 -31 -27 -31c-10 0 -25 5 -25 32v585c0 29 16 33 26 33s26 -4 26 -32v-262h56v59
c0 151 100 237 233 237c130 0 230 -86 230 -237v-180c0 -151 -100 -237 -230 -237z" />
    <glyph glyph-name="IAcyrillic" unicode="&#x42f;" horiz-adv-x="585" 
d="M138 467c0 -90 54 -121 165 -121h146v243h-146c-115 0 -165 -34 -165 -122zM202 311c-91 27 -116 94 -116 161c0 128 90 174 217 174h174c20 0 24 -17 24 -36v-585c0 -22 -10 -32 -25 -32c-20 0 -27 15 -27 32v274h-135c-73 0 -103 -30 -117 -81l-28 -104
c-19 -72 -68 -121 -126 -121c-23 0 -36 8 -36 26c0 21 18 26 36 26c38 0 65 45 71 65l31 114c9 34 28 65 57 87z" />
    <glyph glyph-name="acyrillic" unicode="&#x430;" horiz-adv-x="554" 
d="M283 243c-121 0 -171 -10 -171 -125c0 -35 28 -66 55 -66h93c113 0 170 63 170 176v15h-147zM283 295h147v57c0 40 -11 57 -55 57h-141c-73 0 -122 -15 -122 -60c0 -21 -5 -35 -27 -35c-15 0 -25 10 -25 35c0 81 74 112 167 112h155c80 0 100 -36 100 -126v-308
c0 -18 -5 -34 -26 -34s-26 17 -26 35v35c-39 -43 -102 -63 -170 -63h-93c-61 0 -107 47 -107 123c0 144 85 172 223 172z" />
    <glyph glyph-name="becyrillic" unicode="&#x431;" horiz-adv-x="607" 
d="M329 409h-206v-232c0 -115 50 -125 170 -125h30c120 0 170 10 170 125v107c0 115 -50 125 -164 125zM124 461h205c132 0 216 -26 216 -176v-109c0 -150 -84 -176 -222 -176h-30c-138 0 -222 26 -222 177v278c0 168 127 181 386 181c20 0 36 -6 36 -28
c0 -19 -16 -24 -36 -24c-242 0 -331 -3 -333 -123z" />
    <glyph glyph-name="vecyrillic" unicode="&#x432;" horiz-adv-x="602" 
d="M75 461h305c78 0 159 -32 159 -126c0 -62 -29 -85 -59 -98c30 -19 59 -49 59 -111c0 -94 -81 -126 -159 -126h-305v461zM127 212v-160h246c57 0 114 18 114 68c0 71 -43 92 -110 92h-250zM127 409v-145h250c75 0 111 11 111 77c0 41 -39 68 -115 68h-246z" />
    <glyph glyph-name="gecyrillic" unicode="&#x433;" horiz-adv-x="479" 
d="M180 409c-44 0 -55 -17 -55 -59v-323c0 -23 -8 -34 -27 -34c-15 0 -25 9 -25 34v308c0 90 20 126 100 126h254c18 0 35 -5 35 -26s-17 -26 -35 -26h-247z" />
    <glyph glyph-name="decyrillic" unicode="&#x434;" horiz-adv-x="559" 
d="M65 -57c0 -23 -7 -35 -26 -35c-21 0 -26 17 -26 35v52c0 41 20 57 51 57h10c38 64 100 198 100 409h265v-409h43c31 0 51 -16 51 -57v-52c0 -23 -7 -35 -26 -35c-21 0 -26 17 -26 35v57h-416v-57zM386 52v357h-159c-1 -169 -58 -293 -95 -357h254z" />
    <glyph glyph-name="iecyrillic" unicode="&#x435;" horiz-adv-x="592" 
d="M536 285v-40h-422v-68c0 -115 50 -125 171 -125h134c44 0 55 18 55 62c0 29 16 33 26 33c18 0 26 -12 26 -36c0 -53 -10 -111 -100 -111h-141c-139 0 -223 26 -223 176v109c0 150 84 176 223 176h29c138 0 222 -26 222 -176zM314 409h-29c-119 0 -169 -11 -171 -112h370
c-2 101 -52 112 -170 112z" />
    <glyph glyph-name="zhecyrillic" unicode="&#x436;" horiz-adv-x="670" 
d="M309 252v183c0 29 16 33 27 33s27 -4 27 -33v-183c63 1 123 13 123 60v28c0 118 49 129 108 129c20 0 36 -5 36 -26c0 -16 -10 -26 -36 -26c-44 0 -55 -17 -55 -58v-28c0 -53 -22 -84 -53 -102c48 -29 53 -73 53 -98v-28c0 -41 11 -58 55 -58c26 0 36 -10 36 -26
c0 -21 -16 -26 -36 -26c-59 0 -108 11 -108 129v28c0 37 -71 58 -123 60v-185c0 -15 -6 -32 -28 -32c-10 0 -26 5 -26 32v185c-63 -1 -125 -13 -125 -60v-28c0 -118 -49 -129 -108 -129c-20 0 -36 5 -36 26c0 16 10 26 36 26c44 0 55 17 55 58v28c0 51 25 82 58 100
c-33 18 -58 49 -58 100v28c0 41 -11 58 -55 58c-26 0 -36 10 -36 26c0 21 16 26 36 26c59 0 108 -11 108 -129v-28c0 -47 62 -59 125 -60z" />
    <glyph glyph-name="zecyrillic" unicode="&#x437;" horiz-adv-x="585" 
d="M266 212c-19 0 -36 5 -36 24c0 20 13 28 36 28h86c83 0 119 17 119 83c0 41 -39 62 -123 62h-183c-44 0 -55 -17 -55 -59v-18c0 -25 -11 -35 -27 -35c-10 0 -25 5 -25 35c0 92 20 129 100 129h197c86 0 167 -32 167 -126c0 -62 -29 -85 -59 -98c30 -19 59 -49 59 -111
c0 -94 -81 -126 -167 -126h-197c-80 0 -100 37 -100 129c0 31 15 35 25 35c16 0 27 -10 27 -35v-18c0 -42 11 -59 55 -59h183c65 0 122 12 122 62c0 71 -43 98 -118 98h-86z" />
    <glyph glyph-name="iicyrillic" unicode="&#x438;" horiz-adv-x="604" 
d="M529 461v-433c0 -18 -5 -35 -25 -35c-22 0 -27 16 -27 36v365l-346 -394h-56v433c0 18 5 35 25 35c22 0 27 -16 27 -36v-369l349 398h53z" />
    <glyph glyph-name="iishortcyrillic" unicode="&#x439;" horiz-adv-x="604" 
d="M457 614c0 -83 -18 -117 -91 -117h-117c-73 0 -91 35 -91 117v27h52v-43c0 -39 9 -49 47 -49h102c38 0 46 10 46 49v43h52v-27zM529 461v-433c0 -18 -5 -35 -25 -35c-22 0 -27 16 -27 36v365l-346 -394h-56v433c0 18 5 35 25 35c22 0 27 -16 27 -36v-369l349 398h53z" />
    <glyph glyph-name="kacyrillic" unicode="&#x43a;" horiz-adv-x="562" 
d="M190 205h-64v-181c0 -15 -5 -31 -27 -31c-10 0 -25 5 -25 31v412c0 28 16 32 26 32s26 -4 26 -32v-179h64c76 0 191 44 191 96c0 100 47 116 108 116c20 0 36 -5 36 -26c0 -16 -10 -26 -36 -26c-44 0 -55 -17 -55 -58v-20c0 -50 -68 -95 -113 -110
c44 -15 113 -58 113 -106v-20c0 -41 11 -58 55 -58c26 0 36 -10 36 -26c0 -21 -16 -26 -36 -26c-61 0 -108 16 -108 116c0 52 -116 96 -191 96z" />
    <glyph glyph-name="elcyrillic" unicode="&#x43b;" horiz-adv-x="569" 
d="M494 29c0 -23 -7 -36 -27 -36c-10 0 -25 5 -25 35v381h-214c-47 0 -58 -17 -58 -59v-224c0 -114 -48 -126 -108 -126c-23 0 -36 7 -36 27c0 10 5 25 36 25c44 0 55 17 55 58v225c0 90 20 126 103 126h274v-432z" />
    <glyph glyph-name="emcyrillic" unicode="&#x43c;" horiz-adv-x="633" 
d="M316 104c-3 0 -11 0 -17 8l-173 258v-342c0 -23 -7 -35 -26 -35c-21 0 -26 16 -26 34v406c0 20 5 35 24 35c12 0 21 -5 30 -19l188 -278l189 278c9 13 17 19 29 19c20 0 25 -15 25 -35v-406c0 -23 -8 -34 -27 -34c-20 0 -25 15 -25 35v342l-173 -258c-4 -6 -11 -8 -18 -8
z" />
    <glyph glyph-name="encyrillic" unicode="&#x43d;" horiz-adv-x="603" 
d="M126 27c0 -22 -7 -34 -26 -34c-21 0 -26 16 -26 34v406c0 20 5 35 24 35c22 0 28 -15 28 -35v-163h350v163c0 19 5 35 25 35c22 0 27 -15 27 -35v-406c0 -19 -5 -34 -25 -34c-11 0 -27 4 -27 34v191h-350v-191z" />
    <glyph glyph-name="ocyrillic" unicode="&#x43e;" 
d="M314 0h-29c-139 0 -223 26 -223 176v109c0 150 84 176 223 176h29c138 0 222 -26 222 -176v-109c0 -150 -84 -176 -222 -176zM285 52h29c120 0 170 10 170 125v107c0 115 -50 125 -170 125h-29c-121 0 -171 -10 -171 -125v-107c0 -115 50 -125 171 -125z" />
    <glyph glyph-name="pecyrillic" unicode="&#x43f;" horiz-adv-x="604" 
d="M75 461h454v-434c0 -19 -5 -34 -25 -34c-11 0 -27 4 -27 34v382h-350v-382c0 -22 -7 -34 -26 -34c-21 0 -26 16 -26 34v434z" />
    <glyph glyph-name="ercyrillic" unicode="&#x440;" horiz-adv-x="611" 
d="M497 284c0 115 -50 125 -170 125h-29c-114 0 -171 -62 -171 -177v-180h201c119 0 169 10 169 125v107zM549 176c0 -150 -84 -176 -221 -176h-201v-147c0 -20 -6 -35 -28 -35c-19 0 -24 15 -24 35v581c0 18 5 34 26 34c19 0 26 -12 26 -35v-35c40 43 102 63 171 63h29
c138 0 222 -26 222 -176v-109z" />
    <glyph glyph-name="escyrillic" unicode="&#x441;" horiz-adv-x="584" 
d="M426 0h-141c-139 0 -223 26 -223 176v109c0 150 84 176 223 176h141c90 0 100 -59 100 -112c0 -18 -5 -35 -26 -35c-10 0 -26 4 -26 33c0 48 -15 62 -55 62h-134c-121 0 -171 -10 -171 -125v-107c0 -115 50 -125 171 -125h134c44 0 55 18 55 62c0 29 16 33 26 33
c18 0 26 -12 26 -36c0 -53 -10 -111 -100 -111z" />
    <glyph glyph-name="tecyrillic" unicode="&#x442;" horiz-adv-x="460" 
d="M410 461c24 0 33 -11 33 -27c0 -20 -17 -25 -33 -25h-152v-385c0 -26 -18 -31 -29 -31s-26 5 -26 31v385h-154c-29 0 -33 16 -33 26s4 26 33 26h361z" />
    <glyph glyph-name="ucyrillic" unicode="&#x443;" horiz-adv-x="619" 
d="M544 -87c0 -83 -18 -118 -91 -118h-283c-90 0 -100 59 -100 112c0 18 5 35 26 35c18 0 26 -11 26 -33c0 -48 15 -62 55 -62h269c39 0 46 11 46 50v166c-40 -43 -102 -63 -171 -63h-29c-138 0 -222 26 -222 176v258c0 19 5 34 25 34c11 0 27 -4 27 -34v-257
c0 -115 50 -125 170 -125h29c114 0 171 63 171 178v204c0 22 7 34 26 34c21 0 26 -16 26 -34v-521z" />
    <glyph glyph-name="efcyrillic" unicode="&#x444;" horiz-adv-x="768" 
d="M656 196v69c0 64 -6 144 -115 144c-104 0 -130 -98 -130 -178s26 -179 130 -179c109 0 115 80 115 144zM112 196c0 -64 6 -144 115 -144c104 0 130 99 130 179s-26 178 -130 178c-109 0 -115 -80 -115 -144v-69zM411 -147c0 -18 -6 -35 -27 -35s-27 17 -27 35v209
c-35 -42 -67 -62 -130 -62c-101 0 -167 54 -167 196v69c0 142 66 196 167 196c63 0 95 -20 130 -62v209c0 18 6 35 27 35s27 -17 27 -35v-209c35 42 67 62 130 62c101 0 167 -54 167 -196v-69c0 -142 -66 -196 -167 -196c-63 0 -95 20 -130 62v-209z" />
    <glyph glyph-name="khacyrillic" unicode="&#x445;" horiz-adv-x="512" 
d="M472 12c0 -14 -14 -23 -25 -23c-9 0 -17 5 -24 12l-166 193l-167 -193c-8 -7 -16 -12 -25 -12c-11 0 -25 9 -25 23c0 10 9 22 10 24l171 194l-171 195c-9 11 -10 18 -10 23c0 14 14 24 25 24c9 0 17 -5 25 -12l167 -193l166 193c7 7 14 12 24 12c11 0 25 -10 25 -24
c0 -5 -1 -12 -10 -23l-171 -195l171 -194c6 -9 10 -16 10 -24z" />
    <glyph glyph-name="tsecyrillic" unicode="&#x446;" horiz-adv-x="563" 
d="M529 -57c0 -23 -7 -35 -26 -35c-21 0 -26 17 -26 35v57h-402v434c0 19 5 34 25 34c11 0 27 -4 27 -34v-382h292v382c0 22 7 34 26 34c21 0 26 -16 26 -34v-382h7c31 0 51 -16 51 -57v-52z" />
    <glyph glyph-name="checyrillic" unicode="&#x447;" horiz-adv-x="589" 
d="M297 180c108 0 165 63 165 179v75c0 22 7 34 26 34c21 0 26 -16 26 -34v-406c0 -20 -5 -35 -24 -35c-22 0 -28 15 -28 35v163c-40 -43 -100 -63 -165 -63h-31c-132 0 -216 26 -216 177v129c0 19 5 34 25 34c11 0 27 -4 27 -34v-128c0 -115 50 -126 164 -126h31z" />
    <glyph glyph-name="shacyrillic" unicode="&#x448;" horiz-adv-x="636" 
d="M75 0v434c0 19 5 34 25 34c11 0 27 -4 27 -34v-382h165v382c0 19 4 34 25 34c11 0 27 -4 27 -34v-382h165v382c0 22 7 34 26 34c21 0 26 -16 26 -34v-434h-486z" />
    <glyph glyph-name="shchacyrillic" unicode="&#x449;" horiz-adv-x="653" 
d="M291 434c0 19 4 34 25 34c11 0 27 -4 27 -34v-382h166v382c0 22 7 34 26 34c21 0 26 -16 26 -34v-382h7c31 0 51 -16 51 -57v-52c0 -23 -7 -35 -26 -35c-21 0 -26 17 -26 35v57h-492v434c0 19 5 34 25 34c11 0 27 -4 27 -34v-382h164v382z" />
    <glyph glyph-name="hardsigncyrillic" unicode="&#x44a;" horiz-adv-x="589" 
d="M380 52c118 0 122 55 122 80c0 32 -5 80 -122 80h-169v-160h169zM159 0v409h-96c-20 0 -36 6 -36 28c0 19 16 24 36 24h148v-197h174c73 0 169 -27 169 -132s-85 -132 -167 -132h-228z" />
    <glyph glyph-name="yericyrillic" unicode="&#x44b;" horiz-adv-x="667" 
d="M566 -12c-10 0 -25 5 -25 32v420c0 29 16 33 26 33s26 -4 26 -33v-420c0 -16 -5 -32 -27 -32zM335 52c110 0 114 55 114 80c0 32 -5 80 -114 80h-208v-160h208zM75 0v433c0 18 5 35 25 35c22 0 27 -15 27 -35v-169h215c73 0 159 -26 159 -132c0 -105 -85 -132 -159 -132
h-267z" />
    <glyph glyph-name="softsigncyrillic" unicode="&#x44c;" horiz-adv-x="536" 
d="M335 52c110 0 114 55 114 80c0 32 -5 80 -114 80h-208v-160h208zM75 0v433c0 18 5 35 25 35c22 0 27 -15 27 -35v-169h215c73 0 159 -26 159 -132c0 -105 -85 -132 -159 -132h-267z" />
    <glyph glyph-name="ereversedcyrillic" unicode="&#x44d;" horiz-adv-x="583" 
d="M157 461h141c139 0 223 -26 223 -176v-109c0 -150 -84 -176 -223 -176h-141c-90 0 -100 59 -100 112c0 18 5 35 26 35c10 0 26 -4 26 -33c0 -48 15 -62 55 -62h134c121 0 171 10 171 124v36h-204c-19 0 -36 5 -36 24c0 20 13 28 36 28h204v21c0 114 -50 124 -171 124
h-134c-44 0 -55 -18 -55 -62c0 -29 -16 -33 -26 -33c-18 0 -26 12 -26 36c0 53 10 111 100 111z" />
    <glyph glyph-name="iucyrillic" unicode="&#x44e;" horiz-adv-x="688" 
d="M126 24c0 -15 -5 -31 -27 -31c-10 0 -25 5 -25 31v412c0 28 16 32 26 32s26 -4 26 -32v-172h66v21c0 150 86 176 219 176c131 0 215 -26 215 -176v-109c0 -150 -84 -176 -215 -176c-133 0 -219 26 -219 176v36h-66v-188zM411 52c113 0 163 10 163 125v107
c0 115 -50 125 -163 125c-115 0 -167 -10 -167 -125v-107c0 -115 52 -125 167 -125z" />
    <glyph glyph-name="iacyrillic" unicode="&#x44f;" horiz-adv-x="552" 
d="M134 331c0 -80 41 -82 133 -82h158v165h-158c-96 0 -133 -4 -133 -83zM182 205c-71 13 -100 45 -100 121c0 128 88 135 217 135h154c20 0 24 -17 24 -35v-402c0 -21 -10 -31 -25 -31c-20 0 -27 14 -27 31v174h-121c-77 0 -104 -29 -119 -85c-20 -71 -68 -121 -126 -121
c-23 0 -36 8 -36 26c0 21 18 26 36 26c38 0 65 45 71 65l5 18c8 30 24 57 47 78z" />
    <glyph glyph-name="uni0450" unicode="&#x450;" horiz-adv-x="592" 
d="M536 285v-40h-422v-68c0 -115 50 -125 171 -125h134c44 0 55 18 55 62c0 29 16 33 26 33c18 0 26 -12 26 -36c0 -53 -10 -111 -100 -111h-141c-139 0 -223 26 -223 176v109c0 150 84 176 223 176h29c138 0 222 -26 222 -176zM314 409h-29c-119 0 -169 -11 -171 -112h370
c-2 101 -52 112 -170 112zM216 683c8 0 16 -5 25 -15l96 -115c6 -7 9 -14 9 -23c0 -16 -15 -25 -25 -25c-8 0 -16 5 -25 15l-96 115c-6 7 -9 15 -9 22c0 16 14 26 25 26z" />
    <glyph glyph-name="iocyrillic" unicode="&#x451;" horiz-adv-x="592" 
d="M536 285v-40h-422v-68c0 -115 50 -125 171 -125h134c44 0 55 18 55 62c0 29 16 33 26 33c18 0 26 -12 26 -36c0 -53 -10 -111 -100 -111h-141c-139 0 -223 26 -223 176v109c0 150 84 176 223 176h29c138 0 222 -26 222 -176zM314 409h-29c-119 0 -169 -11 -171 -112h370
c-2 101 -52 112 -170 112zM227 599c19 0 51 -17 51 -41c0 -25 -32 -41 -51 -41c-20 0 -51 16 -51 41c0 24 31 41 51 41zM373 599c19 0 51 -17 51 -41c0 -25 -32 -41 -51 -41c-20 0 -51 16 -51 41c0 24 31 41 51 41z" />
    <glyph glyph-name="djecyrillic" unicode="&#x452;" horiz-adv-x="620" 
d="M75 553v54c0 20 5 36 24 36c22 0 28 -16 28 -36v-54h210c23 0 38 -10 38 -28c0 -15 -15 -25 -38 -25h-210v-102c40 43 103 63 171 63h29c138 0 222 -26 222 -177v-360c0 -118 -48 -129 -107 -129c-21 0 -38 5 -38 26c0 16 11 26 38 26c44 0 55 18 55 60v377
c0 114 -50 125 -170 125h-29c-113 0 -171 -63 -171 -178v-204c0 -22 -7 -34 -26 -34c-21 0 -26 16 -26 34v473c-23 0 -38 10 -38 28c0 15 15 25 38 25z" />
    <glyph glyph-name="gjecyrillic" unicode="&#x453;" horiz-adv-x="479" 
d="M382 635l-96 -115c-9 -10 -17 -15 -25 -15c-10 0 -25 10 -25 25c0 9 3 16 9 23l96 115c9 10 17 15 25 15c11 0 25 -10 25 -26c0 -7 -3 -15 -9 -22zM180 409c-44 0 -55 -17 -55 -59v-323c0 -23 -8 -34 -27 -34c-15 0 -25 9 -25 34v308c0 90 20 126 100 126h254
c18 0 35 -5 35 -26s-17 -26 -35 -26h-247z" />
    <glyph glyph-name="ecyrillic" unicode="&#x454;" horiz-adv-x="583" 
d="M426 461c90 0 100 -58 100 -111c0 -24 -8 -36 -26 -36c-10 0 -26 4 -26 33c0 44 -11 62 -55 62h-134c-121 0 -171 -10 -171 -124v-21h204c23 0 36 -8 36 -28c0 -19 -17 -24 -36 -24h-204v-36c0 -114 50 -124 171 -124h134c40 0 55 14 55 62c0 29 16 33 26 33
c21 0 26 -17 26 -35c0 -53 -10 -112 -100 -112h-141c-139 0 -223 26 -223 176v109c0 150 84 176 223 176h141z" />
    <glyph glyph-name="dzecyrillic" unicode="&#x455;" horiz-adv-x="586" 
d="M160 0c-90 0 -100 58 -100 111c0 24 8 36 26 36s26 -11 26 -33c0 -44 11 -62 55 -62h248c43 0 59 31 59 74c0 50 -24 84 -59 84h-226c-97 0 -129 58 -129 130c0 74 31 121 139 121h225c90 0 100 -59 100 -112c0 -18 -5 -35 -26 -35c-10 0 -26 4 -26 33
c0 48 -15 62 -55 62h-246c-35 0 -59 -18 -59 -69c0 -52 26 -78 59 -78h227c102 0 128 -70 128 -136c0 -77 -33 -126 -138 -126h-228z" />
    <glyph glyph-name="icyrillic" unicode="&#x456;" horiz-adv-x="200" 
d="M99 -12c-10 0 -25 5 -25 32v420c0 29 16 33 26 33s26 -4 26 -33v-420c0 -16 -5 -32 -27 -32zM100 642c19 0 51 -16 51 -41c0 -24 -32 -41 -51 -41c-20 0 -51 17 -51 41c0 25 31 41 51 41z" />
    <glyph glyph-name="yicyrillic" unicode="&#x457;" horiz-adv-x="200" 
d="M99 -12c-10 0 -25 5 -25 32v420c0 29 16 33 26 33s26 -4 26 -33v-420c0 -16 -5 -32 -27 -32zM27 606c19 0 51 -17 51 -41c0 -25 -32 -41 -51 -41c-20 0 -51 16 -51 41c0 24 31 41 51 41zM173 606c19 0 51 -17 51 -41c0 -25 -32 -41 -51 -41c-20 0 -51 16 -51 41
c0 24 31 41 51 41z" />
    <glyph glyph-name="jecyrillic" unicode="&#x458;" horiz-adv-x="202" 
d="M99 642c19 0 51 -16 51 -41c0 -24 -32 -41 -51 -41c-20 0 -51 17 -51 41c0 25 31 41 51 41zM127 0c0 -153 -85 -175 -213 -175c-19 0 -36 5 -36 27c0 19 13 25 36 25c111 0 161 10 161 123v432c0 20 5 36 27 36c18 0 25 -12 25 -36v-432z" />
    <glyph glyph-name="ljecyrillic" unicode="&#x459;" horiz-adv-x="754" 
d="M544 212h-89v-160h89c118 0 122 55 122 80c0 32 -5 80 -122 80zM455 264h103c74 0 160 -26 160 -132c0 -105 -85 -132 -167 -132h-148v409h-165c-49 0 -62 -17 -62 -59l-2 -224c0 -114 -48 -126 -108 -126c-23 0 -36 7 -36 27c0 10 5 25 36 25c44 0 55 17 55 58v225
c0 90 20 126 110 126h224v-197z" />
    <glyph glyph-name="njecyrillic" unicode="&#x45a;" horiz-adv-x="798" 
d="M588 212h-89v-160h89c118 0 122 55 122 80c0 32 -5 80 -122 80zM496 264h98c72 0 168 -27 168 -132s-85 -132 -167 -132h-148v212h-321v-185c0 -22 -7 -34 -26 -34c-21 0 -26 16 -26 34v406c0 20 5 35 24 35c22 0 28 -15 28 -35v-169h317v169c0 19 5 35 25 35
c22 0 28 -15 28 -35v-169z" />
    <glyph glyph-name="tshecyrillic" unicode="&#x45b;" horiz-adv-x="619" 
d="M75 553v54c0 20 5 36 24 36c22 0 28 -16 28 -36v-54h210c23 0 38 -10 38 -28c0 -15 -15 -25 -38 -25h-210v-102c40 43 103 63 171 63h29c138 0 222 -26 222 -176v-258c0 -19 -5 -34 -25 -34c-11 0 -27 4 -27 34v257c0 115 -50 125 -170 125h-29
c-113 0 -171 -63 -171 -178v-204c0 -22 -7 -34 -26 -34c-21 0 -26 16 -26 34v473c-23 0 -38 10 -38 28c0 15 15 25 38 25z" />
    <glyph glyph-name="kjecyrillic" unicode="&#x45c;" horiz-adv-x="562" 
d="M371 635l-96 -115c-9 -10 -17 -15 -25 -15c-10 0 -25 10 -25 25c0 9 3 16 9 23l96 115c9 10 17 15 25 15c11 0 25 -10 25 -26c0 -7 -3 -15 -9 -22zM190 205h-64v-181c0 -15 -5 -31 -27 -31c-10 0 -25 5 -25 31v412c0 28 16 32 26 32s26 -4 26 -32v-179h64
c76 0 191 44 191 96c0 100 47 116 108 116c20 0 36 -5 36 -26c0 -16 -10 -26 -36 -26c-44 0 -55 -17 -55 -58v-20c0 -50 -68 -95 -113 -110c44 -15 113 -58 113 -106v-20c0 -41 11 -58 55 -58c26 0 36 -10 36 -26c0 -21 -16 -26 -36 -26c-61 0 -108 16 -108 116
c0 52 -116 96 -191 96z" />
    <glyph glyph-name="iicyrillic_grave" unicode="&#x45d;" horiz-adv-x="604" 
d="M529 461v-433c0 -18 -5 -35 -25 -35c-22 0 -27 16 -27 36v365l-346 -394h-56v433c0 18 5 35 25 35c22 0 27 -16 27 -36v-369l349 398h53zM227 683c8 0 16 -5 25 -15l96 -115c6 -7 9 -14 9 -23c0 -16 -15 -25 -25 -25c-8 0 -16 5 -25 15l-96 115c-6 7 -9 15 -9 22
c0 16 14 26 25 26z" />
    <glyph glyph-name="ushortcyrillic" unicode="&#x45e;" horiz-adv-x="619" 
d="M458 614c0 -83 -18 -117 -91 -117h-117c-73 0 -91 35 -91 117v27h52v-43c0 -39 9 -49 47 -49h102c38 0 46 10 46 49v43h52v-27zM544 -87c0 -83 -18 -118 -91 -118h-283c-90 0 -100 59 -100 112c0 18 5 35 26 35c18 0 26 -11 26 -33c0 -48 15 -62 55 -62h269
c39 0 46 11 46 50v166c-40 -43 -102 -63 -171 -63h-29c-138 0 -222 26 -222 176v258c0 19 5 34 25 34c11 0 27 -4 27 -34v-257c0 -115 50 -125 170 -125h29c114 0 171 63 171 178v204c0 22 7 34 26 34c21 0 26 -16 26 -34v-521z" />
    <glyph glyph-name="dzhecyrillic" unicode="&#x45f;" horiz-adv-x="604" 
d="M276 -57v57h-201v434c0 19 5 34 25 34c11 0 27 -4 27 -34v-382h350v382c0 22 7 34 26 34c21 0 26 -16 26 -34v-434h-201v-57c0 -23 -6 -35 -26 -35c-22 0 -26 17 -26 35z" />
    <glyph glyph-name="Yatcyrillic" unicode="&#x462;" horiz-adv-x="650" 
d="M206 608c0 18 5 35 25 35c23 0 28 -15 28 -35v-102h150c24 0 34 -11 34 -27c0 -19 -18 -24 -34 -24h-150v-49h140c130 0 215 -83 215 -206c0 -124 -84 -207 -215 -207h-167c-18 0 -26 14 -26 35v426h-144c-29 0 -33 15 -33 26c0 10 4 25 33 25h144v103zM259 354v-309h140
c112 0 163 65 163 155c0 88 -51 154 -163 154h-140z" />
    <glyph glyph-name="yatcyrillic" unicode="&#x463;" horiz-adv-x="659" 
d="M217 0c-22 0 -27 15 -27 35v374h-139c-29 0 -33 16 -33 26s4 26 33 26h139v150c0 27 15 32 25 32c22 0 27 -17 27 -32v-150h142c24 0 34 -11 34 -27c0 -20 -18 -25 -34 -25h-142v-105h197c106 0 181 -53 181 -152c0 -124 -85 -152 -222 -152h-181zM398 52
c117 0 170 13 170 100s-59 100 -173 100h-153v-200h156z" />
    <glyph glyph-name="Fitacyrillic" unicode="&#x472;" horiz-adv-x="594" 
d="M399 327c34 0 78 34 78 34v43c0 118 -65 189 -180 189s-180 -71 -180 -189v-60s29 23 63 23c66 0 179 -40 219 -40zM529 228c0 -151 -100 -237 -232 -237c-133 0 -232 86 -232 237v180c0 151 99 237 232 237c132 0 232 -86 232 -237v-180zM477 232v66s-31 -23 -65 -23
c-66 0 -179 40 -219 40c-34 0 -76 -33 -76 -33v-50c0 -119 65 -189 180 -189s180 70 180 189z" />
    <glyph glyph-name="fitacyrillic" unicode="&#x473;" horiz-adv-x="586" 
d="M302 0h-17c-139 0 -223 26 -223 176v109c0 150 84 176 223 176h17c138 0 222 -26 222 -176v-109c0 -150 -84 -176 -222 -176zM114 254c0 0 29 23 63 23c66 0 177 -40 217 -40c34 0 78 34 78 34v13c0 115 -50 125 -170 125h-17c-121 0 -171 -10 -171 -125v-30zM472 208
c0 0 -31 -23 -65 -23c-66 0 -177 40 -217 40c-34 0 -76 -33 -76 -33v-15c0 -115 50 -125 171 -125h17c120 0 170 10 170 125v31z" />
    <glyph glyph-name="Gheupturncyrillic" unicode="&#x490;" horiz-adv-x="560" 
d="M532 584h-343c-44 0 -55 -18 -55 -59v-498c0 -22 -8 -34 -27 -34c-15 0 -25 9 -25 34v482c0 90 20 127 100 127h298v77c0 25 11 35 27 35c10 0 25 -4 25 -35v-129z" />
    <glyph glyph-name="gheupturncyrillic" unicode="&#x491;" horiz-adv-x="482" 
d="M180 409c-44 0 -55 -17 -55 -59v-323c0 -23 -8 -34 -27 -34c-15 0 -25 9 -25 34v308c0 90 20 126 100 126h237v77c0 25 11 35 27 35c10 0 25 -5 25 -35v-129h-282z" />
    <glyph glyph-name="uni1E02" unicode="&#x1e02;" horiz-adv-x="605" 
d="M274 789c19 0 51 -17 51 -41c0 -25 -32 -41 -51 -41c-20 0 -51 16 -51 41c0 24 31 41 51 41zM136 332v-280h190c120 0 170 11 170 126v28c0 115 -50 126 -164 126h-196zM84 36v564c0 20 5 36 24 36h180c133 0 218 -24 218 -150c0 -56 -18 -89 -49 -112
c58 -22 91 -67 91 -165v-29c0 -154 -84 -180 -222 -180h-218c-19 0 -24 16 -24 36zM288 384c116 0 166 15 166 97c0 90 -54 98 -166 98h-152v-195h152z" />
    <glyph glyph-name="uni1E03" unicode="&#x1e03;" horiz-adv-x="611" 
d="M312 594c19 0 51 -17 51 -41c0 -25 -32 -41 -51 -41c-20 0 -51 16 -51 41c0 24 31 41 51 41zM127 398c40 43 102 63 171 63h29c138 0 222 -26 222 -176v-109c0 -150 -84 -176 -222 -176h-29c-69 0 -131 20 -171 63v-35c0 -23 -7 -35 -26 -35c-21 0 -26 16 -26 34v580
c0 20 5 36 24 36c22 0 28 -16 28 -36v-209zM298 409c-114 0 -171 -62 -171 -177v-4c0 -114 57 -176 171 -176h29c120 0 170 10 170 125v107c0 115 -50 125 -170 125h-29z" />
    <glyph glyph-name="uni1E0A" unicode="&#x1e0a;" horiz-adv-x="620" 
d="M300 789c19 0 51 -17 51 -41c0 -25 -32 -41 -51 -41c-20 0 -51 16 -51 41c0 24 31 41 51 41zM548 456v-276c0 -154 -84 -180 -222 -180h-218c-19 0 -24 16 -24 36v564c0 20 5 36 24 36h224c132 0 216 -26 216 -180zM496 180v276c0 117 -50 128 -164 128h-196v-532h190
c120 0 170 11 170 128z" />
    <glyph glyph-name="uni1E0B" unicode="&#x1e0b;" horiz-adv-x="611" 
d="M299 594c19 0 51 -17 51 -41c0 -25 -32 -41 -51 -41c-20 0 -51 16 -51 41c0 24 31 41 51 41zM484 461v146c0 20 6 36 28 36c19 0 24 -16 24 -36v-580c0 -18 -5 -34 -26 -34c-19 0 -26 12 -26 35v35c-40 -43 -102 -63 -171 -63h-29c-138 0 -222 26 -222 176v109
c0 150 84 176 222 176h200zM484 409h-200c-120 0 -170 -10 -170 -125v-107c0 -115 50 -125 170 -125h29c114 0 171 62 171 176v181z" />
    <glyph glyph-name="uni1E1E" unicode="&#x1e1e;" horiz-adv-x="577" 
d="M311 788c19 0 51 -17 51 -41c0 -25 -32 -41 -51 -41c-20 0 -51 16 -51 41c0 24 31 41 51 41zM136 27c0 -22 -7 -34 -26 -34c-21 0 -26 16 -26 35v572c0 20 5 36 24 36h406c23 0 34 -9 34 -28s-12 -24 -34 -24h-378v-200h259c20 0 36 -6 36 -28c0 -19 -14 -24 -36 -24
h-259v-305z" />
    <glyph glyph-name="uni1E1F" unicode="&#x1e1f;" horiz-adv-x="323" 
d="M213 759c19 0 51 -17 51 -41c0 -25 -32 -41 -51 -41c-20 0 -51 16 -51 41c0 24 31 41 51 41zM293 584c-110 0 -160 -10 -161 -123h138c20 0 36 -6 36 -28c0 -19 -16 -24 -36 -24h-138v-381c0 -20 -6 -35 -28 -35c-19 0 -24 15 -24 35v382c-17 1 -31 7 -31 27
c0 16 11 23 31 24c2 152 86 175 213 175c23 0 36 -8 36 -28c0 -19 -17 -24 -36 -24z" />
    <glyph glyph-name="uni1E40" unicode="&#x1e40;" horiz-adv-x="653" 
d="M326 718c19 0 51 -17 51 -41c0 -25 -32 -41 -51 -41c-20 0 -51 16 -51 41c0 24 31 41 51 41zM326 279c-3 0 -11 0 -17 8l-173 258v-517c0 -23 -7 -35 -26 -35c-21 0 -26 16 -26 34v581c0 20 5 35 24 35c12 0 21 -5 30 -19l188 -278l189 278c9 13 17 19 29 19
c20 0 25 -15 25 -35v-581c0 -22 -8 -34 -27 -34c-20 0 -25 15 -25 35v517l-173 -258c-4 -5 -11 -8 -18 -8z" />
    <glyph glyph-name="uni1E41" unicode="&#x1e41;" horiz-adv-x="830" 
d="M415 611c19 0 51 -17 51 -41c0 -25 -32 -41 -51 -41c-20 0 -51 16 -51 41c0 24 31 41 51 41zM257 409c-82 0 -131 -62 -131 -178v-204c0 -22 -7 -34 -26 -34c-21 0 -26 16 -26 34v406c0 20 5 35 24 35c22 0 28 -16 28 -36v-34c36 43 68 63 131 63c80 0 143 -13 171 -80
c32 50 83 80 147 80c109 0 184 -26 184 -176v-258c0 -18 -5 -34 -26 -34s-26 16 -26 34v257c0 115 -37 125 -132 125c-83 0 -133 -62 -133 -178v-204c0 -19 -5 -34 -25 -34c-19 0 -27 11 -27 34v257c0 115 -38 125 -133 125z" />
    <glyph glyph-name="uni1E56" unicode="&#x1e56;" horiz-adv-x="540" 
d="M256 788c19 0 51 -17 51 -41c0 -25 -32 -41 -51 -41c-20 0 -51 16 -51 41c0 24 31 41 51 41zM136 25c0 -16 -5 -32 -27 -32c-10 0 -25 5 -25 32v575c0 20 5 36 24 36h181c132 0 217 -29 217 -155c0 -101 -65 -154 -173 -154h-197v-302zM289 379c116 0 165 15 165 102
c0 90 -53 103 -165 103h-153v-205h153z" />
    <glyph glyph-name="uni1E57" unicode="&#x1e57;" horiz-adv-x="611" 
d="M333 611c19 0 51 -17 51 -41c0 -25 -32 -41 -51 -41c-20 0 -51 16 -51 41c0 24 31 41 51 41zM497 284c0 115 -50 125 -170 125h-29c-114 0 -171 -62 -171 -177v-180h201c119 0 169 10 169 125v107zM549 176c0 -150 -84 -176 -221 -176h-201v-147c0 -20 -6 -35 -28 -35
c-19 0 -24 15 -24 35v581c0 18 5 34 26 34c19 0 26 -12 26 -35v-35c40 43 102 63 171 63h29c138 0 222 -26 222 -176v-109z" />
    </font>
</defs>
</svg>
